STARTFONT 2.1
FONT -HP-Sung-Medium-R-Normal--24-240-75-75-C-240-CNS11643.1992-1
SIZE 24 75 75
FONTBOUNDINGBOX 24 24 0 -2

STARTPROPERTIES 23
FONTNAME_REGISTRY ""
FOUNDRY "HP"
FAMILY_NAME "Sung"
WEIGHT_NAME "Medium"
SLANT "R"
SETWIDTH_NAME "Normal"
ADD_STYLE_NAME ""
PIXEL_SIZE 24
POINT_SIZE 240
RESOLUTION_X 75
RESOLUTION_Y 75
SPACING "C"
AVERAGE_WIDTH 240
CHARSET_REGISTRY "CNS11643.1992"
CHARSET_ENCODING "1"
COPYRIGHT "Copyright (c) 1994 Hewlett-Packard Company."
_HP_ASXVERSION "@(#) ASX 3.00 $Revision: 13.9 $ sung24n1"
WEIGHT 10
X_HEIGHT 0
QUAD_WIDTH 24
DEFAULT_CHAR 9039
FONT_DESCENT 2
FONT_ASCENT 22
ENDPROPERTIES

CHARS 6086

STARTCHAR cns1_2121
ENCODING 8481
SWIDTH 960 0
DWIDTH 24 0
BBX 24 24 0 -2
BITMAP
000000
000000
000000
000000
000000
000000
000000
000000
000000
000000
000000
000000
000000
000000
000000
000000
000000
000000
000000
000000
000000
000000
000000
000000
ENDCHAR

STARTCHAR cns1_2122
ENCODING 8482
SWIDTH 960 0
DWIDTH 24 0
BBX 24 24 0 -2
BITMAP
000000
000000
000000
000000
000000
000000
000000
000000
000000
000000
000000
003800
007C00
003C00
000C00
000C00
001800
002000
000000
000000
000000
000000
000000
000000
ENDCHAR

STARTCHAR cns1_2123
ENCODING 8483
SWIDTH 960 0
DWIDTH 24 0
BBX 24 24 0 -2
BITMAP
000000
000000
000000
000000
000000
000000
000000
000000
000000
018000
006000
003000
001800
001C00
000C00
000C00
000000
000000
000000
000000
000000
000000
000000
000000
ENDCHAR

STARTCHAR cns1_2124
ENCODING 8484
SWIDTH 960 0
DWIDTH 24 0
BBX 24 24 0 -2
BITMAP
000000
000000
000000
000000
000000
000000
000000
000000
003C00
004200
008100
008100
008100
008100
004200
003C00
000000
000000
000000
000000
000000
000000
000000
000000
ENDCHAR

STARTCHAR cns1_2125
ENCODING 8485
SWIDTH 960 0
DWIDTH 24 0
BBX 24 24 0 -2
BITMAP
000000
000000
000000
000000
000000
000000
000000
000000
000000
000000
000000
000000
000000
000000
000000
000000
000000
000000
060000
0F0000
0F0000
060000
000000
000000
ENDCHAR

STARTCHAR cns1_2126
ENCODING 8486
SWIDTH 960 0
DWIDTH 24 0
BBX 24 24 0 -2
BITMAP
000000
000000
000000
000000
000000
000000
000000
000000
000000
000000
000000
001800
003C00
003C00
001800
000000
000000
000000
000000
000000
000000
000000
000000
000000
ENDCHAR

STARTCHAR cns1_2127
ENCODING 8487
SWIDTH 960 0
DWIDTH 24 0
BBX 24 24 0 -2
BITMAP
000000
000000
000000
000000
000000
000000
000000
001800
003C00
001800
000000
000000
001800
003C00
001C00
000400
000400
000400
000800
003000
000000
000000
000000
000000
ENDCHAR

STARTCHAR cns1_2128
ENCODING 8488
SWIDTH 960 0
DWIDTH 24 0
BBX 24 24 0 -2
BITMAP
000000
000000
000000
000000
000000
000000
000000
001800
003C00
001800
000000
000000
000000
000000
001800
003C00
001800
000000
000000
000000
000000
000000
000000
000000
ENDCHAR

STARTCHAR cns1_2129
ENCODING 8489
SWIDTH 960 0
DWIDTH 24 0
BBX 24 24 0 -2
BITMAP
000000
000000
007E00
00C300
018180
018180
018180
01E380
00C380
000700
000600
000C00
000800
001800
001000
001000
001000
000000
000000
003800
003800
003800
000000
000000
ENDCHAR

STARTCHAR cns1_212A
ENCODING 8490
SWIDTH 960 0
DWIDTH 24 0
BBX 24 24 0 -2
BITMAP
000000
000000
000000
001800
003C00
003C00
003C00
003C00
003C00
003C00
001800
001800
001800
001800
001800
001800
001800
000000
000000
001800
003C00
001800
000000
000000
ENDCHAR

STARTCHAR cns1_212B
ENCODING 8491
SWIDTH 960 0
DWIDTH 24 0
BBX 24 24 0 -2
BITMAP
000000
000000
000000
000000
000000
000000
001800
003C00
003C00
001800
000000
000000
000000
000000
001800
003C00
003C00
001800
000000
000000
000000
000000
000000
000000
ENDCHAR

STARTCHAR cns1_212C
ENCODING 8492
SWIDTH 960 0
DWIDTH 24 0
BBX 24 24 0 -2
BITMAP
000000
000000
000000
000000
000000
000000
000000
000000
000000
30180C
783C1E
30180C
000000
000000
000000
000000
000000
000000
000000
000000
000000
000000
000000
000000
ENDCHAR

STARTCHAR cns1_212D
ENCODING 8493
SWIDTH 960 0
DWIDTH 24 0
BBX 24 24 0 -2
BITMAP
000000
000000
000000
000000
000000
000000
000000
000000
000000
0300C0
0781E0
0300C0
000000
000000
000000
000000
000000
000000
000000
000000
000000
000000
000000
000000
ENDCHAR

STARTCHAR cns1_212E
ENCODING 8494
SWIDTH 960 0
DWIDTH 24 0
BBX 24 24 0 -2
BITMAP
000000
000000
000000
000000
000000
000000
000000
000000
000000
000000
000000
000000
000000
000000
000000
000000
000000
180000
180000
080000
080000
100000
200000
000000
ENDCHAR

STARTCHAR cns1_212F
ENCODING 8495
SWIDTH 960 0
DWIDTH 24 0
BBX 24 24 0 -2
BITMAP
000000
000000
000000
000000
000000
000000
000000
000000
000000
000000
000000
000000
000000
000000
000000
000000
000000
080000
040000
020000
030000
030000
030000
000000
ENDCHAR

STARTCHAR cns1_2130
ENCODING 8496
SWIDTH 960 0
DWIDTH 24 0
BBX 24 24 0 -2
BITMAP
000000
000000
000000
000000
000000
000000
000000
000000
000000
000000
000000
000000
000000
000000
000000
000000
000000
000000
000000
060000
060000
000000
000000
000000
ENDCHAR

STARTCHAR cns1_2131
ENCODING 8497
SWIDTH 960 0
DWIDTH 24 0
BBX 24 24 0 -2
BITMAP
000000
000000
000000
000000
000000
000000
000000
000000
000000
180000
3C0000
3C0000
180000
000000
000000
000000
000000
000000
000000
000000
000000
000000
000000
000000
ENDCHAR

STARTCHAR cns1_2132
ENCODING 8498
SWIDTH 960 0
DWIDTH 24 0
BBX 24 24 0 -2
BITMAP
000000
000000
000000
000000
000000
000000
000000
001800
001800
000000
000000
000000
000000
000000
000000
001800
001800
000800
000800
001000
002000
000000
000000
000000
ENDCHAR

STARTCHAR cns1_2133
ENCODING 8499
SWIDTH 960 0
DWIDTH 24 0
BBX 24 24 0 -2
BITMAP
000000
000000
000000
000000
000000
000000
000000
001800
001800
000000
000000
000000
000000
000000
000000
001800
001800
000000
000000
000000
000000
000000
000000
000000
ENDCHAR

STARTCHAR cns1_2134
ENCODING 8500
SWIDTH 960 0
DWIDTH 24 0
BBX 24 24 0 -2
BITMAP
000000
000000
000000
000000
003C00
006600
00C300
00C300
004600
000400
000C00
000800
000800
000800
000800
000000
000000
000800
001C00
000800
000000
000000
000000
000000
ENDCHAR

STARTCHAR cns1_2135
ENCODING 8501
SWIDTH 960 0
DWIDTH 24 0
BBX 24 24 0 -2
BITMAP
000000
000000
000000
001000
001000
001000
001000
001000
001000
001000
001000
001000
001000
001000
001000
000000
000000
001000
001000
001000
000000
000000
000000
000000
ENDCHAR

STARTCHAR cns1_2136
ENCODING 8502
SWIDTH 960 0
DWIDTH 24 0
BBX 24 24 0 -2
BITMAP
000000
001800
001800
001800
001800
001800
001800
001800
001800
001800
001800
001800
001800
001800
001800
001800
001800
001800
001800
001800
001800
001800
001800
000000
ENDCHAR

STARTCHAR cns1_2137
ENCODING 8503
SWIDTH 960 0
DWIDTH 24 0
BBX 24 24 0 -2
BITMAP
000000
000000
000000
000000
000000
000000
000000
000000
000000
000000
000000
0FFFF0
0FFFF0
000000
000000
000000
000000
000000
000000
000000
000000
000000
000000
000000
ENDCHAR

STARTCHAR cns1_2138
ENCODING 8504
SWIDTH 960 0
DWIDTH 24 0
BBX 24 24 0 -2
BITMAP
000000
000000
000C00
000C00
000C00
000C00
000C00
000C00
000C00
000C00
000C00
000C00
000C00
000C00
000C00
000C00
000C00
000C00
000C00
000C00
000C00
000C00
000000
000000
ENDCHAR

STARTCHAR cns1_2139
ENCODING 8505
SWIDTH 960 0
DWIDTH 24 0
BBX 24 24 0 -2
BITMAP
000000
000000
000000
000000
000000
000000
000000
000000
000000
000000
000000
3FFFFC
000000
000000
000000
000000
000000
000000
000000
000000
000000
000000
000000
000000
ENDCHAR

STARTCHAR cns1_213A
ENCODING 8506
SWIDTH 960 0
DWIDTH 24 0
BBX 24 24 0 -2
BITMAP
000000
000006
000006
000006
000006
000006
000006
000006
000006
000006
000006
000006
000006
000006
000006
000006
000006
000006
000006
000006
000006
000006
000006
000000
ENDCHAR

STARTCHAR cns1_213B
ENCODING 8507
SWIDTH 960 0
DWIDTH 24 0
BBX 24 24 0 -2
BITMAP
000000
7FFFFE
7FFFFE
000000
000000
000000
000000
000000
000000
000000
000000
000000
000000
000000
000000
000000
000000
000000
000000
000000
000000
000000
000000
000000
ENDCHAR

STARTCHAR cns1_213C
ENCODING 8508
SWIDTH 960 0
DWIDTH 24 0
BBX 24 24 0 -2
BITMAP
000000
000060
000030
000018
000010
000030
000060
0000C0
000040
000060
000030
000018
000010
000030
000060
0000C0
000060
000030
000018
00000C
000018
000030
000060
000000
ENDCHAR

STARTCHAR cns1_213D
ENCODING 8509
SWIDTH 960 0
DWIDTH 24 0
BBX 24 24 0 -2
BITMAP
000000
000000
101010
3C3C3C
666666
43C3C2
010100
000000
000000
000000
000000
000000
000000
000000
000000
000000
000000
000000
000000
000000
000000
000000
000000
000000
ENDCHAR

STARTCHAR cns1_213E
ENCODING 8510
SWIDTH 960 0
DWIDTH 24 0
BBX 24 24 0 -2
BITMAP
000000
00000C
000018
000030
000030
000060
000060
0000C0
0000C0
0000C0
0001C0
0001C0
0001C0
0001C0
0000C0
0000C0
0000C0
000060
000060
000030
000030
000018
00000C
000000
ENDCHAR

STARTCHAR cns1_213F
ENCODING 8511
SWIDTH 960 0
DWIDTH 24 0
BBX 24 24 0 -2
BITMAP
000000
300000
180000
0C0000
0C0000
060000
060000
030000
030000
030000
038000
038000
038000
038000
030000
030000
030000
060000
060000
0C0000
0C0000
180000
300000
000000
ENDCHAR

STARTCHAR cns1_2140
ENCODING 8512
SWIDTH 960 0
DWIDTH 24 0
BBX 24 24 0 -2
BITMAP
000000
000000
000000
000000
000000
000000
000000
000000
000000
000000
000000
000000
01FFC0
07FFE0
1E0078
30000C
600006
400002
000000
000000
000000
000000
000000
000000
ENDCHAR

STARTCHAR cns1_2141
ENCODING 8513
SWIDTH 960 0
DWIDTH 24 0
BBX 24 24 0 -2
BITMAP
000000
000000
000000
000000
000000
000000
400002
600006
30000C
1E0078
07FFE0
01FF80
000000
000000
000000
000000
000000
000000
000000
000000
000000
000000
000000
000000
ENDCHAR

STARTCHAR cns1_2142
ENCODING 8514
SWIDTH 960 0
DWIDTH 24 0
BBX 24 24 0 -2
BITMAP
000000
000010
000030
000020
000060
000060
000020
000030
000030
000030
000020
0000C0
000040
000020
000030
000030
000070
000060
000060
000020
000030
000010
000008
000000
ENDCHAR

STARTCHAR cns1_2143
ENCODING 8515
SWIDTH 960 0
DWIDTH 24 0
BBX 24 24 0 -2
BITMAP
000000
080000
0C0000
040000
060000
060000
040000
0C0000
0C0000
0C0000
040000
030000
020000
040000
0C0000
0C0000
0E0000
060000
060000
040000
0C0000
080000
100000
000000
ENDCHAR

STARTCHAR cns1_2144
ENCODING 8516
SWIDTH 960 0
DWIDTH 24 0
BBX 24 24 0 -2
BITMAP
000000
000000
000000
000000
000000
000000
000000
000000
000000
000000
000000
000000
001000
003800
1FEFF8
7FC7FE
7F83FE
400002
400002
000000
000000
000000
000000
000000
ENDCHAR

STARTCHAR cns1_2145
ENCODING 8517
SWIDTH 960 0
DWIDTH 24 0
BBX 24 24 0 -2
BITMAP
000000
000000
000000
000000
000000
400002
400002
7FC1FE
7FE3FE
1FF7F8
001C00
000800
000000
000000
000000
000000
000000
000000
000000
000000
000000
000000
000000
000000
ENDCHAR

STARTCHAR cns1_2146
ENCODING 8518
SWIDTH 960 0
DWIDTH 24 0
BBX 24 24 0 -2
BITMAP
000000
000070
0001C0
000100
000100
000100
000100
000100
000100
000100
000100
000100
000100
000100
000100
000100
000100
000100
000100
000100
000100
0001C0
000070
000000
ENDCHAR

STARTCHAR cns1_2147
ENCODING 8519
SWIDTH 960 0
DWIDTH 24 0
BBX 24 24 0 -2
BITMAP
000000
0E0000
038000
008000
008000
008000
008000
008000
008000
008000
008000
008000
008000
008000
008000
008000
008000
008000
008000
008000
008000
038000
0E0000
000000
ENDCHAR

STARTCHAR cns1_2148
ENCODING 8520
SWIDTH 960 0
DWIDTH 24 0
BBX 24 24 0 -2
BITMAP
000000
000000
000000
000000
000000
000000
000000
000000
000000
000000
000000
000000
1FFFF8
3FFFFC
30000C
600006
600006
400002
400002
000000
000000
000000
000000
000000
ENDCHAR

STARTCHAR cns1_2149
ENCODING 8521
SWIDTH 960 0
DWIDTH 24 0
BBX 24 24 0 -2
BITMAP
000000
000000
000000
000000
000000
400002
400002
600006
700006
30000C
3FFFFC
1FFFF8
000000
000000
000000
000000
000000
000000
000000
000000
000000
000000
000000
000000
ENDCHAR

STARTCHAR cns1_214A
ENCODING 8522
SWIDTH 960 0
DWIDTH 24 0
BBX 24 24 0 -2
BITMAP
000000
0003F8
0003F0
0003E0
0003C0
0003C0
000380
000380
000380
000300
000300
000300
000300
000300
000300
000380
000380
000380
0003C0
0003C0
0003E0
0003F0
0003F8
000000
ENDCHAR

STARTCHAR cns1_214B
ENCODING 8523
SWIDTH 960 0
DWIDTH 24 0
BBX 24 24 0 -2
BITMAP
000000
1FC000
0FC000
07C000
03C000
03C000
01C000
01C000
01C000
00C000
00C000
00C000
00C000
00C000
00C000
01C000
01C000
01C000
03C000
03C000
07C000
0FC000
1FC000
000000
ENDCHAR

STARTCHAR cns1_214C
ENCODING 8524
SWIDTH 960 0
DWIDTH 24 0
BBX 24 24 0 -2
BITMAP
000000
000000
000000
000000
000000
000000
000000
000000
000000
000000
000000
000000
7FFFFE
7FFFFE
7F81FE
7C003E
70000E
600006
400002
000000
000000
000000
000000
000000
ENDCHAR

STARTCHAR cns1_214D
ENCODING 8525
SWIDTH 960 0
DWIDTH 24 0
BBX 24 24 0 -2
BITMAP
000000
000000
000000
000000
000000
400002
600006
70000E
7C003E
7F81FE
7FFFFE
7FFFFE
000000
000000
000000
000000
000000
000000
000000
000000
000000
000000
000000
000000
ENDCHAR

STARTCHAR cns1_214E
ENCODING 8526
SWIDTH 960 0
DWIDTH 24 0
BBX 24 24 0 -2
BITMAP
000000
0000CC
000088
000198
000110
000330
000220
000660
000440
000CC0
000880
001100
001100
000880
000CC0
000440
000660
000220
000330
000110
000198
000088
0000CC
000000
ENDCHAR

STARTCHAR cns1_214F
ENCODING 8527
SWIDTH 960 0
DWIDTH 24 0
BBX 24 24 0 -2
BITMAP
000000
330000
110000
198000
088000
0CC000
044000
066000
022000
033000
011000
008800
008800
011000
033000
022000
066000
044000
0CC000
088000
198000
110000
330000
000000
ENDCHAR

STARTCHAR cns1_2150
ENCODING 8528
SWIDTH 960 0
DWIDTH 24 0
BBX 24 24 0 -2
BITMAP
000000
000000
000000
000000
000000
000000
000000
000000
000000
001800
007E00
01C380
0700E0
1C1838
707E0E
41C382
0700E0
1C0038
70000E
400002
000000
000000
000000
000000
ENDCHAR

STARTCHAR cns1_2151
ENCODING 8529
SWIDTH 960 0
DWIDTH 24 0
BBX 24 24 0 -2
BITMAP
000000
000000
000000
000000
400002
70000E
1C0038
0700E0
41C382
707E0E
1C1838
0700E0
01C380
007E00
001C00
000000
000000
000000
000000
000000
000000
000000
000000
000000
ENDCHAR

STARTCHAR cns1_2152
ENCODING 8530
SWIDTH 960 0
DWIDTH 24 0
BBX 24 24 0 -2
BITMAP
000000
00000C
000008
000018
000010
000030
000020
000060
000040
0000C0
000080
000100
000100
000080
0000C0
000040
000060
000020
000030
000010
000018
000008
00000C
000000
ENDCHAR

STARTCHAR cns1_2153
ENCODING 8531
SWIDTH 960 0
DWIDTH 24 0
BBX 24 24 0 -2
BITMAP
000000
300000
100000
180000
080000
0C0000
040000
060000
020000
030000
010000
008000
008000
010000
030000
020000
060000
040000
0C0000
080000
180000
100000
300000
000000
ENDCHAR

STARTCHAR cns1_2154
ENCODING 8532
SWIDTH 960 0
DWIDTH 24 0
BBX 24 24 0 -2
BITMAP
000000
000000
000000
000000
000000
000000
000000
000000
000000
000000
000000
000000
000800
001C00
003600
006300
00C180
0180C0
070070
1E003C
78000E
000000
000000
000000
ENDCHAR

STARTCHAR cns1_2155
ENCODING 8533
SWIDTH 960 0
DWIDTH 24 0
BBX 24 24 0 -2
BITMAP
000000
000000
000000
78000E
1E003C
070070
0180C0
00C180
006300
003600
001C00
000800
000000
000000
000000
000000
000000
000000
000000
000000
000000
000000
000000
000000
ENDCHAR

STARTCHAR cns1_2156
ENCODING 8534
SWIDTH 960 0
DWIDTH 24 0
BBX 24 24 0 -2
BITMAP
000000
0007FC
000400
000400
000400
000400
000400
000400
000400
000400
000400
000400
000400
000400
000400
000000
000000
000000
000000
000000
000000
000000
000000
000000
ENDCHAR

STARTCHAR cns1_2157
ENCODING 8535
SWIDTH 960 0
DWIDTH 24 0
BBX 24 24 0 -2
BITMAP
000000
000000
000000
000000
000000
000000
000000
000000
000000
002000
002000
002000
002000
002000
002000
002000
002000
002000
002000
002000
002000
002000
1FE000
000000
ENDCHAR

STARTCHAR cns1_2158
ENCODING 8536
SWIDTH 960 0
DWIDTH 24 0
BBX 24 24 0 -2
BITMAP
000000
000000
000000
000000
000000
000000
000000
000000
000000
000000
000000
000000
3FFFFC
3FFFFC
00000C
00000C
00000C
00000C
00000C
00000C
00000C
00000C
000000
000000
ENDCHAR

STARTCHAR cns1_2159
ENCODING 8537
SWIDTH 960 0
DWIDTH 24 0
BBX 24 24 0 -2
BITMAP
000000
000000
300000
300000
300000
300000
300000
300000
300000
300000
3FFFFC
3FFFFC
000000
000000
000000
000000
000000
000000
000000
000000
000000
000000
000000
000000
ENDCHAR

STARTCHAR cns1_215A
ENCODING 8538
SWIDTH 960 0
DWIDTH 24 0
BBX 24 24 0 -2
BITMAP
000000
0007FC
000404
000404
0004FC
000480
000480
000480
000480
000480
000480
000480
000480
000480
000480
000480
000480
000780
000000
000000
000000
000000
000000
000000
ENDCHAR

STARTCHAR cns1_215B
ENCODING 8539
SWIDTH 960 0
DWIDTH 24 0
BBX 24 24 0 -2
BITMAP
000000
000000
000000
000000
000000
000000
01E000
012000
012000
012000
012000
012000
012000
012000
012000
012000
012000
012000
012000
3F2000
202000
202000
3FE000
000000
ENDCHAR

STARTCHAR cns1_215C
ENCODING 8540
SWIDTH 960 0
DWIDTH 24 0
BBX 24 24 0 -2
BITMAP
000000
000000
000000
000000
000000
000000
000000
000000
000000
000000
000000
000000
3FFFFC
200004
200004
3FFFE4
000024
000024
000024
000024
000024
00003C
000000
000000
ENDCHAR

STARTCHAR cns1_215D
ENCODING 8541
SWIDTH 960 0
DWIDTH 24 0
BBX 24 24 0 -2
BITMAP
000000
000000
3C0000
240000
240000
240000
240000
240000
27FFFC
200004
200004
3FFFFC
000000
000000
000000
000000
000000
000000
000000
000000
000000
000000
000000
000000
ENDCHAR

STARTCHAR cns1_215E
ENCODING 8542
SWIDTH 960 0
DWIDTH 24 0
BBX 24 24 0 -2
BITMAP
000000
000000
000000
000000
000000
000008
000010
000030
000020
000060
000060
000060
000060
000060
000060
000060
000020
000030
000010
000008
000000
000000
000000
000000
ENDCHAR

STARTCHAR cns1_215F
ENCODING 8543
SWIDTH 960 0
DWIDTH 24 0
BBX 24 24 0 -2
BITMAP
000000
000000
000000
000000
000000
100000
080000
0C0000
040000
060000
060000
060000
060000
060000
060000
060000
040000
0C0000
080000
100000
000000
000000
000000
000000
ENDCHAR

STARTCHAR cns1_2160
ENCODING 8544
SWIDTH 960 0
DWIDTH 24 0
BBX 24 24 0 -2
BITMAP
000000
000000
000000
000000
000038
000060
000060
000060
000060
000060
000060
0000C0
0000C0
000060
000060
000060
000060
000060
000060
000038
000000
000000
000000
000000
ENDCHAR

STARTCHAR cns1_2161
ENCODING 8545
SWIDTH 960 0
DWIDTH 24 0
BBX 24 24 0 -2
BITMAP
000000
000000
000000
000000
1C0000
060000
060000
060000
060000
060000
060000
030000
030000
060000
060000
060000
060000
060000
060000
1C0000
000000
000000
000000
000000
ENDCHAR

STARTCHAR cns1_2162
ENCODING 8546
SWIDTH 960 0
DWIDTH 24 0
BBX 24 24 0 -2
BITMAP
000000
000000
000000
000000
000040
000080
000100
000100
000100
000100
000100
000100
000100
000100
000100
000100
000100
000100
000080
000040
000000
000000
000000
000000
ENDCHAR

STARTCHAR cns1_2163
ENCODING 8547
SWIDTH 960 0
DWIDTH 24 0
BBX 24 24 0 -2
BITMAP
000000
000000
000000
000000
020000
010000
008000
008000
008000
008000
008000
008000
008000
008000
008000
008000
008000
008000
010000
020000
000000
000000
000000
000000
ENDCHAR

STARTCHAR cns1_2164
ENCODING 8548
SWIDTH 960 0
DWIDTH 24 0
BBX 24 24 0 -2
BITMAP
000000
00000C
000030
000060
0000C0
0000F0
0000F8
0000F8
000070
000000
000000
000000
000000
000000
000000
000000
000000
000000
000000
000000
000000
000000
000000
000000
ENDCHAR

STARTCHAR cns1_2165
ENCODING 8549
SWIDTH 960 0
DWIDTH 24 0
BBX 24 24 0 -2
BITMAP
000000
0E0000
1F0000
1F0000
0F0000
030000
060000
0C0000
300000
000000
000000
000000
000000
000000
000000
000000
000000
000000
000000
000000
000000
000000
000000
000000
ENDCHAR

STARTCHAR cns1_2166
ENCODING 8550
SWIDTH 960 0
DWIDTH 24 0
BBX 24 24 0 -2
BITMAP
000000
000186
00030C
000618
000E38
000F3C
000F3C
000618
000000
000000
000000
000000
000000
000000
000000
000000
000000
000000
000000
000000
000000
000000
000000
000000
ENDCHAR

STARTCHAR cns1_2167
ENCODING 8551
SWIDTH 960 0
DWIDTH 24 0
BBX 24 24 0 -2
BITMAP
000000
186000
3CF000
3CF000
1C7000
186000
30C000
618000
000000
000000
000000
000000
000000
000000
000000
000000
000000
000000
000000
000000
000000
000000
000000
000000
ENDCHAR

STARTCHAR cns1_2168
ENCODING 8552
SWIDTH 960 0
DWIDTH 24 0
BBX 24 24 0 -2
BITMAP
000000
010000
238000
738000
71C000
38E000
1C6000
0C3000
061000
020000
000000
000000
000000
000000
000000
000000
000000
000000
000000
000000
000000
000000
000000
000000
ENDCHAR

STARTCHAR cns1_2169
ENCODING 8553
SWIDTH 960 0
DWIDTH 24 0
BBX 24 24 0 -2
BITMAP
000000
007700
006600
006600
006600
00CC00
00CC00
00CC00
008800
008800
000000
000000
000000
000000
000000
000000
000000
000000
000000
000000
000000
000000
000000
000000
ENDCHAR

STARTCHAR cns1_216A
ENCODING 8554
SWIDTH 960 0
DWIDTH 24 0
BBX 24 24 0 -2
BITMAP
000000
018000
03C000
03C000
01E000
00E000
007000
003800
001C00
000C00
000600
000200
000000
000000
000000
000000
000000
000000
000000
000000
000000
000000
000000
000000
ENDCHAR

STARTCHAR cns1_216B
ENCODING 8555
SWIDTH 960 0
DWIDTH 24 0
BBX 24 24 0 -2
BITMAP
000000
000000
000300
000380
0007C0
000780
000F00
000E00
001C00
001800
003000
004000
000000
000000
000000
000000
000000
000000
000000
000000
000000
000000
000000
000000
ENDCHAR

STARTCHAR cns1_216C
ENCODING 8556
SWIDTH 960 0
DWIDTH 24 0
BBX 24 24 0 -2
BITMAP
000000
000200
004200
004200
004200
004200
0043E0
007FE0
07FA00
0F4200
004200
004200
004200
004260
0047F0
00FFC0
07FE00
0FC200
004200
004200
004200
004200
004000
000000
ENDCHAR

STARTCHAR cns1_216D
ENCODING 8557
SWIDTH 960 0
DWIDTH 24 0
BBX 24 24 0 -2
BITMAP
000000
000000
00F800
018C00
030600
030600
030600
018C00
00F800
00E0F8
03F030
063030
0C3860
181840
181C80
180D00
180600
1C0700
0E09CC
07F0F8
01C000
000000
000000
000000
ENDCHAR

STARTCHAR cns1_216E
ENCODING 8558
SWIDTH 960 0
DWIDTH 24 0
BBX 24 24 0 -2
BITMAP
000000
000000
000000
000000
000000
30000C
181818
0E1870
0318C0
01DB80
007E00
3FFFFC
3FFFFC
007E00
01DB80
0318C0
0E1870
181818
30000C
000000
000000
000000
000000
000000
ENDCHAR

STARTCHAR cns1_216F
ENCODING 8559
SWIDTH 960 0
DWIDTH 24 0
BBX 24 24 0 -2
BITMAP
000000
000000
000000
000000
181818
0C3C30
063C60
0318C0
018180
00C300
0C6630
1E3C78
1E1878
0C3C30
006600
00C300
018180
0318C0
063C60
0C3C30
181818
000000
000000
000000
ENDCHAR

STARTCHAR cns1_2170
ENCODING 8560
SWIDTH 960 0
DWIDTH 24 0
BBX 24 24 0 -2
BITMAP
000000
003C00
004200
008300
008700
008600
00C000
007000
003800
00CE00
010700
010180
018080
00E080
007100
001E00
000E00
000300
004100
00E100
00E100
006200
003C00
000000
ENDCHAR

STARTCHAR cns1_2171
ENCODING 8561
SWIDTH 960 0
DWIDTH 24 0
BBX 24 24 0 -2
BITMAP
000000
000000
000000
000000
000000
000000
000000
000000
018180
01C1C0
018180
018180
018180
030300
030300
020200
060600
080400
100800
201000
000000
000000
000000
000000
ENDCHAR

STARTCHAR cns1_2172
ENCODING 8562
SWIDTH 960 0
DWIDTH 24 0
BBX 24 24 0 -2
BITMAP
000000
000000
007E00
01C380
0700E0
0C0030
080010
180018
100008
30000C
200004
200004
200004
200004
30000C
100008
180018
080010
0C0030
0700E0
01C380
007E00
000000
000000
ENDCHAR

STARTCHAR cns1_2173
ENCODING 8563
SWIDTH 960 0
DWIDTH 24 0
BBX 24 24 0 -2
BITMAP
000000
000000
007E00
01FF80
07FFE0
0FFFF0
0FFFF0
1FFFF8
1FFFF8
3FFFFC
3FFFFC
3FFFFC
3FFFFC
3FFFFC
3FFFFC
1FFFF8
1FFFF8
1FFFF0
0FFFF0
07FFE0
01FF80
007E00
000000
000000
ENDCHAR

STARTCHAR cns1_2174
ENCODING 8564
SWIDTH 960 0
DWIDTH 24 0
BBX 24 24 0 -2
BITMAP
000000
001800
001800
003C00
002400
006600
004200
00C300
018180
010080
0300C0
020040
060060
0C0030
080010
180018
100008
30000C
200004
7FFFFE
000000
000000
000000
000000
ENDCHAR

STARTCHAR cns1_2175
ENCODING 8565
SWIDTH 960 0
DWIDTH 24 0
BBX 24 24 0 -2
BITMAP
000000
000000
000800
001C00
003C00
007E00
007E00
00FF00
01FF80
01FF80
03FFC0
03FFC0
07FFE0
0FFFF0
0FFFF0
1FFFF8
1FFFF8
3FFFFC
3FFFFC
7FFFFE
000000
000000
000000
000000
ENDCHAR

STARTCHAR cns1_2176
ENCODING 8566
SWIDTH 960 0
DWIDTH 24 0
BBX 24 24 0 -2
BITMAP
000000
000000
007E00
01C380
0700E0
0C3C30
08C310
198198
1300C8
32004C
240024
240024
240024
240024
32004C
1300C8
198198
08C310
0C3C30
0700E0
01C380
007E00
000000
000000
ENDCHAR

STARTCHAR cns1_2177
ENCODING 8567
SWIDTH 960 0
DWIDTH 24 0
BBX 24 24 0 -2
BITMAP
000000
001000
001000
001000
003800
002800
006C00
004400
004400
7FC7FE
30000C
1C0038
060060
0381C0
018100
018180
011080
013880
036C80
03C2C0
0301C0
0600C0
040040
000000
ENDCHAR

STARTCHAR cns1_2178
ENCODING 8568
SWIDTH 960 0
DWIDTH 24 0
BBX 24 24 0 -2
BITMAP
000000
001000
001000
001000
003800
003800
007C00
007C00
007C00
7FFFFE
3FFFFC
1FFFF8
07FFE0
03FFC0
01FF80
01FF80
01FF80
01FF80
03EF80
03C3C0
0301C0
0600C0
040040
000000
ENDCHAR

STARTCHAR cns1_2179
ENCODING 8569
SWIDTH 960 0
DWIDTH 24 0
BBX 24 24 0 -2
BITMAP
000000
000800
001C00
003600
006300
00C180
0180C0
030060
060030
0C0018
18000C
300006
18000C
0C0018
060030
030060
0180C0
00C180
006300
003600
001C00
000800
000000
000000
ENDCHAR

STARTCHAR cns1_217A
ENCODING 8570
SWIDTH 960 0
DWIDTH 24 0
BBX 24 24 0 -2
BITMAP
000000
000800
001C00
003E00
007F00
00FF80
01FFC0
03FFE0
07FFF0
0FFFF8
1FFFFC
3FFFFE
1FFFFC
0FFFF8
07FFF0
03FFE0
01FFC0
00FF80
007F00
003E00
001C00
000800
000000
000000
ENDCHAR

STARTCHAR cns1_217B
ENCODING 8571
SWIDTH 960 0
DWIDTH 24 0
BBX 24 24 0 -2
BITMAP
000000
000000
3FFFFC
200004
200004
200004
200004
200004
200004
200004
200004
200004
200004
200004
200004
200004
200004
200004
200004
200004
200004
3FFFFC
000000
000000
ENDCHAR

STARTCHAR cns1_217C
ENCODING 8572
SWIDTH 960 0
DWIDTH 24 0
BBX 24 24 0 -2
BITMAP
000000
000000
3FFFFC
3FFFFC
3FFFFC
3FFFFC
3FFFFC
3FFFFC
3FFFFC
3FFFFC
3FFFFC
3FFFFC
3FFFFC
3FFFFC
3FFFFC
3FFFFC
3FFFFC
3FFFFC
3FFFFC
3FFFFC
3FFFFC
3FFFFC
000000
000000
ENDCHAR

STARTCHAR cns1_217D
ENCODING 8573
SWIDTH 960 0
DWIDTH 24 0
BBX 24 24 0 -2
BITMAP
000000
000000
000000
000000
7FFFFE
200004
30000C
100008
180018
080010
0C0030
060060
020040
0300C0
010080
018180
00C300
004200
006600
002400
003C00
001800
000000
000000
ENDCHAR

STARTCHAR cns1_217E
ENCODING 8574
SWIDTH 960 0
DWIDTH 24 0
BBX 24 24 0 -2
BITMAP
000000
000000
000000
000000
7FFFFE
3FFFFC
3FFFFC
1FFFF8
1FFFF8
0FFFF0
0FFFF0
07FFE0
03FFC0
03FFC0
01FF80
01FF80
00FF00
007E00
007E00
003C00
003C00
001800
000000
000000
ENDCHAR

STARTCHAR cns1_2221
ENCODING 8737
SWIDTH 960 0
DWIDTH 24 0
BBX 24 24 0 -2
BITMAP
000000
000000
007E00
01C380
0700E0
0C0030
080110
19FF98
101808
30180C
211804
219804
219FC4
219804
31980C
119808
1BFFD8
080010
0C0030
0700E0
01C380
007E00
000000
000000
ENDCHAR

STARTCHAR cns1_2222
ENCODING 8738
SWIDTH 960 0
DWIDTH 24 0
BBX 24 24 0 -2
BITMAP
000000
03C006
0C600C
183018
300030
300060
6000C0
600180
600300
600600
60CC00
3198F0
1E3318
00660C
00CC0C
018C0C
03180C
06180C
0C1818
181818
301830
600C60
400780
000000
ENDCHAR

STARTCHAR cns1_2223
ENCODING 8739
SWIDTH 960 0
DWIDTH 24 0
BBX 24 24 0 -2
BITMAP
000000
7FFFFE
000000
000000
000000
000000
000000
000000
000000
000000
000000
000000
000000
000000
000000
000000
000000
000000
000000
000000
000000
000000
000000
000000
ENDCHAR

STARTCHAR cns1_2224
ENCODING 8740
SWIDTH 960 0
DWIDTH 24 0
BBX 24 24 0 -2
BITMAP
000000
7FFFFE
7FFFFE
000000
000000
000000
000000
000000
000000
000000
000000
000000
000000
000000
000000
000000
000000
000000
000000
000000
000000
000000
000000
000000
ENDCHAR

STARTCHAR cns1_2225
ENCODING 8741
SWIDTH 960 0
DWIDTH 24 0
BBX 24 24 0 -2
BITMAP
000000
000000
000000
000000
000000
000000
000000
000000
000000
000000
000000
000000
000000
000000
000000
000000
000000
000000
000000
000000
000000
000000
7FFFFE
000000
ENDCHAR

STARTCHAR cns1_2226
ENCODING 8742
SWIDTH 960 0
DWIDTH 24 0
BBX 24 24 0 -2
BITMAP
000000
000000
000000
000000
000000
000000
000000
000000
000000
000000
000000
000000
000000
000000
000000
000000
000000
000000
000000
000000
000000
7FFFFE
7FFFFE
000000
ENDCHAR

STARTCHAR cns1_2227
ENCODING 8743
SWIDTH 960 0
DWIDTH 24 0
BBX 24 24 0 -2
BITMAP
000000
3C3C3C
3C3C3C
000000
000000
000000
000000
000000
000000
000000
000000
000000
000000
000000
000000
000000
000000
000000
000000
000000
000000
000000
000000
000000
ENDCHAR

STARTCHAR cns1_2228
ENCODING 8744
SWIDTH 960 0
DWIDTH 24 0
BBX 24 24 0 -2
BITMAP
000000
3F18FC
3F18FC
000000
000000
000000
000000
000000
000000
000000
000000
000000
000000
000000
000000
000000
000000
000000
000000
000000
000000
000000
000000
000000
ENDCHAR

STARTCHAR cns1_2229
ENCODING 8745
SWIDTH 960 0
DWIDTH 24 0
BBX 24 24 0 -2
BITMAP
000000
000000
000000
000000
000000
000000
000000
000000
000000
000000
000000
000000
000000
000000
000000
000000
000000
000000
000000
000000
000000
1E3C3C
1E3C3C
000000
ENDCHAR

STARTCHAR cns1_222A
ENCODING 8746
SWIDTH 960 0
DWIDTH 24 0
BBX 24 24 0 -2
BITMAP
000000
000000
000000
000000
000000
000000
000000
000000
000000
000000
000000
000000
000000
000000
000000
000000
000000
000000
000000
000000
000000
1F99F8
1F99F8
000000
ENDCHAR

STARTCHAR cns1_222B
ENCODING 8747
SWIDTH 960 0
DWIDTH 24 0
BBX 24 24 0 -2
BITMAP
000000
000000
000000
0300C0
0781E0
0CC330
186618
303C0C
601806
000000
000000
000000
000000
000000
000000
000000
000000
000000
000000
000000
000000
000000
000000
000000
ENDCHAR

STARTCHAR cns1_222C
ENCODING 8748
SWIDTH 960 0
DWIDTH 24 0
BBX 24 24 0 -2
BITMAP
000000
000000
000000
0700E0
0F81F0
1FC3F8
39E79C
70FE0E
603C06
000000
000000
000000
000000
000000
000000
000000
000000
000000
000000
000000
000000
000000
000000
000000
ENDCHAR

STARTCHAR cns1_222D
ENCODING 8749
SWIDTH 960 0
DWIDTH 24 0
BBX 24 24 0 -2
BITMAP
000000
000000
000000
000000
008800
008800
008800
008800
07FF00
008800
008800
008800
008800
07FF00
008800
008800
008800
008800
000000
000000
000000
000000
000000
000000
ENDCHAR

STARTCHAR cns1_222E
ENCODING 8750
SWIDTH 960 0
DWIDTH 24 0
BBX 24 24 0 -2
BITMAP
000000
000000
000000
000000
000000
000000
00E000
01B000
011000
011000
01B000
00E000
00E000
01B000
0319C0
030C80
030780
018F00
00F9C0
000000
000000
000000
000000
000000
ENDCHAR

STARTCHAR cns1_222F
ENCODING 8751
SWIDTH 960 0
DWIDTH 24 0
BBX 24 24 0 -2
BITMAP
000000
000000
418200
618600
318C00
118800
199800
0DB000
05A000
07E000
03C000
018000
018000
03C000
07E000
05A000
0DB000
199800
118800
318C00
618600
418200
000000
000000
ENDCHAR

STARTCHAR cns1_2230
ENCODING 8752
SWIDTH 960 0
DWIDTH 24 0
BBX 24 24 0 -2
BITMAP
000000
000000
000000
001800
001800
001800
001800
001800
001800
001800
001800
1FFFF8
1FFFF8
001800
001800
001800
001800
001800
001800
001800
001800
000000
000000
000000
ENDCHAR

STARTCHAR cns1_2231
ENCODING 8753
SWIDTH 960 0
DWIDTH 24 0
BBX 24 24 0 -2
BITMAP
000000
000000
000000
000000
000000
000000
000000
000000
000000
000000
000000
1FFFF8
1FFFF8
000000
000000
000000
000000
000000
000000
000000
000000
000000
000000
000000
ENDCHAR

STARTCHAR cns1_2232
ENCODING 8754
SWIDTH 960 0
DWIDTH 24 0
BBX 24 24 0 -2
BITMAP
000000
000000
000000
000000
0C0030
060060
0300C0
018180
00C300
006600
003C00
001800
003C00
006600
00C300
018180
0300C0
060060
0C0030
000000
000000
000000
000000
000000
ENDCHAR

STARTCHAR cns1_2233
ENCODING 8755
SWIDTH 960 0
DWIDTH 24 0
BBX 24 24 0 -2
BITMAP
000000
000000
000000
001800
003C00
003C00
001800
000000
000000
000000
000000
3FFFFC
3FFFFC
000000
000000
000000
000000
001800
003C00
003C00
001800
000000
000000
000000
ENDCHAR

STARTCHAR cns1_2234
ENCODING 8756
SWIDTH 960 0
DWIDTH 24 0
BBX 24 24 0 -2
BITMAP
000000
000000
001800
001800
001800
001800
001800
001800
001800
001800
1FFFF8
1FFFF8
001800
001800
001800
001800
001800
001800
001800
000000
1FFFF8
1FFFF8
000000
000000
ENDCHAR

STARTCHAR cns1_2235
ENCODING 8757
SWIDTH 960 0
DWIDTH 24 0
BBX 24 24 0 -2
BITMAP
000000
000000
000000
000000
007FF0
004000
004000
00C000
008000
008000
018000
010000
010000
630000
220000
320000
120000
160000
1C0000
0C0000
080000
000000
000000
000000
ENDCHAR

STARTCHAR cns1_2236
ENCODING 8758
SWIDTH 960 0
DWIDTH 24 0
BBX 24 24 0 -2
BITMAP
000000
000000
000000
000030
0000F0
0003C0
000F00
003C00
00F000
038000
0E0000
180000
0C0000
070000
01C000
007000
001E00
000780
0001E0
000070
000000
000000
000000
000000
ENDCHAR

STARTCHAR cns1_2237
ENCODING 8759
SWIDTH 960 0
DWIDTH 24 0
BBX 24 24 0 -2
BITMAP
000000
000000
000000
180000
0E0000
038000
00E000
003800
000E00
000380
0000E0
000030
000070
0001E0
000780
001E00
007800
01E000
078000
1C0000
000000
000000
000000
000000
ENDCHAR

STARTCHAR cns1_2238
ENCODING 8760
SWIDTH 960 0
DWIDTH 24 0
BBX 24 24 0 -2
BITMAP
000000
000000
000000
000000
000000
000000
000000
000000
1FFFF8
1FFFF8
000000
000000
000000
000000
1FFFF8
1FFFF8
000000
000000
000000
000000
000000
000000
000000
000000
ENDCHAR

STARTCHAR cns1_2239
ENCODING 8761
SWIDTH 960 0
DWIDTH 24 0
BBX 24 24 0 -2
BITMAP
000000
000000
000018
0000F0
000780
003C00
01E000
0F0000
380000
0F0000
01E000
003C00
000780
0000F0
000018
000000
1FFFF8
1FFFF8
000000
000000
1FFFF8
1FFFF8
000000
000000
ENDCHAR

STARTCHAR cns1_223A
ENCODING 8762
SWIDTH 960 0
DWIDTH 24 0
BBX 24 24 0 -2
BITMAP
000000
000000
180000
0F0000
01E000
003C00
000780
0000F0
00001C
0000F0
000780
003C00
01E000
0F0000
180000
000000
1FFFF8
1FFFF8
000000
000000
1FFFF8
1FFFF8
000000
000000
ENDCHAR

STARTCHAR cns1_223B
ENCODING 8763
SWIDTH 960 0
DWIDTH 24 0
BBX 24 24 0 -2
BITMAP
000000
000080
000080
000180
000100
000300
000200
000600
1FFFF8
1FFFF8
000800
001800
001000
003000
1FFFF8
1FFFF8
004000
00C000
008000
018000
010000
030000
020000
000000
ENDCHAR

STARTCHAR cns1_223C
ENCODING 8764
SWIDTH 960 0
DWIDTH 24 0
BBX 24 24 0 -2
BITMAP
000000
000000
000000
000000
000000
000000
000000
0F00F0
108108
204204
402402
401802
401802
402402
204204
108108
0F00F0
000000
000000
000000
000000
000000
000000
000000
ENDCHAR

STARTCHAR cns1_223D
ENCODING 8765
SWIDTH 960 0
DWIDTH 24 0
BBX 24 24 0 -2
BITMAP
000000
000000
000000
000000
180000
3C0000
3C0000
180000
000000
7FFFFE
7FFFFE
000000
000000
7FFFFE
7FFFFE
000000
000018
00003C
00003C
000018
000000
000000
000000
000000
ENDCHAR

STARTCHAR cns1_223E
ENCODING 8766
SWIDTH 960 0
DWIDTH 24 0
BBX 24 24 0 -2
BITMAP
000000
000000
000000
000000
000000
000000
7FFFFE
7FFFFE
000000
000000
7FFFFE
7FFFFE
000000
000000
7FFFFE
7FFFFE
000000
000000
000000
000000
000000
000000
000000
000000
ENDCHAR

STARTCHAR cns1_223F
ENCODING 8767
SWIDTH 960 0
DWIDTH 24 0
BBX 24 24 0 -2
BITMAP
000000
000000
000000
000000
000000
000000
000800
000800
000800
000800
000800
01FFC0
000800
000800
000800
000800
000800
000000
000000
000000
000000
000000
000000
000000
ENDCHAR

STARTCHAR cns1_2240
ENCODING 8768
SWIDTH 960 0
DWIDTH 24 0
BBX 24 24 0 -2
BITMAP
000000
000000
000000
000000
000000
000000
000000
000000
000000
000000
000000
03FFC0
03FFC0
000000
000000
000000
000000
000000
000000
000000
000000
000000
000000
000000
ENDCHAR

STARTCHAR cns1_2241
ENCODING 8769
SWIDTH 960 0
DWIDTH 24 0
BBX 24 24 0 -2
BITMAP
000000
000000
000000
000000
000000
000000
001800
003000
006000
00C000
018000
030000
060000
030000
018000
00C000
006000
003000
001800
000000
000000
000000
000000
000000
ENDCHAR

STARTCHAR cns1_2242
ENCODING 8770
SWIDTH 960 0
DWIDTH 24 0
BBX 24 24 0 -2
BITMAP
000000
000000
000000
000000
000000
000000
001800
000C00
000600
000300
000180
0000C0
000060
0000C0
000180
000300
000600
000C00
001800
000000
000000
000000
000000
000000
ENDCHAR

STARTCHAR cns1_2243
ENCODING 8771
SWIDTH 960 0
DWIDTH 24 0
BBX 24 24 0 -2
BITMAP
000000
000000
000000
000000
000000
000000
000000
000000
03FFC0
000000
000000
000000
000000
000000
03FFC0
000000
000000
000000
000000
000000
000000
000000
000000
000000
ENDCHAR

STARTCHAR cns1_2244
ENCODING 8772
SWIDTH 960 0
DWIDTH 24 0
BBX 24 24 0 -2
BITMAP
000000
000000
000000
000000
000000
000000
000000
000000
000000
000000
07E000
0FF818
183E30
1007E0
0001C0
000000
000000
000000
000000
000000
000000
000000
000000
000000
ENDCHAR

STARTCHAR cns1_2245
ENCODING 8773
SWIDTH 960 0
DWIDTH 24 0
BBX 24 24 0 -2
BITMAP
000000
000000
007E00
00FF00
018180
0300C0
0700C0
060060
0C0060
0C0030
180030
180030
180018
300018
300018
300018
300018
300018
300018
100010
100010
000000
000000
000000
ENDCHAR

STARTCHAR cns1_2246
ENCODING 8774
SWIDTH 960 0
DWIDTH 24 0
BBX 24 24 0 -2
BITMAP
000000
000000
000000
080010
080010
180018
180018
180018
180018
180018
180018
180018
0C0030
0C0030
0C0030
060060
060060
0300C0
0300C0
018180
00FF00
007E00
000000
000000
ENDCHAR

STARTCHAR cns1_2247
ENCODING 8775
SWIDTH 960 0
DWIDTH 24 0
BBX 24 24 0 -2
BITMAP
000000
000000
000000
000000
001800
001800
001800
001800
001800
001800
001800
001800
001800
001800
001800
001800
001800
3FFFFC
3FFFFC
000000
000000
000000
000000
000000
ENDCHAR

STARTCHAR cns1_2248
ENCODING 8776
SWIDTH 960 0
DWIDTH 24 0
BBX 24 24 0 -2
BITMAP
000000
000000
000000
000000
000030
000060
0000C0
000180
000300
000600
000C00
001800
003000
006000
00C000
018000
030000
060000
0FFFF8
1FFFF8
000000
000000
000000
000000
ENDCHAR

STARTCHAR cns1_2249
ENCODING 8777
SWIDTH 960 0
DWIDTH 24 0
BBX 24 24 0 -2
BITMAP
000000
000000
000000
180000
180000
180000
180000
180000
180000
180000
180000
180000
180000
180000
180000
180000
180000
180000
1FFFF8
1FFFF8
000000
000000
000000
000000
ENDCHAR

STARTCHAR cns1_224A
ENCODING 8778
SWIDTH 960 0
DWIDTH 24 0
BBX 24 24 0 -2
BITMAP
000000
000000
000000
000018
000038
000078
0000D8
000198
000318
000618
000C18
001818
003018
006018
00C018
018018
030018
060018
0C0018
1FFFF8
1FFFF8
000000
000000
000000
ENDCHAR

STARTCHAR cns1_224B
ENCODING 8779
SWIDTH 960 0
DWIDTH 24 0
BBX 24 24 0 -2
BITMAP
000000
000000
780000
180000
180000
180000
180000
180000
180000
1860F6
18F31E
189318
199B18
1B0DB0
1B0CF0
1B0D80
1B0DE0
199B78
189218
18F60C
7E660C
00060C
0003F8
000000
ENDCHAR

STARTCHAR cns1_224C
ENCODING 8780
SWIDTH 960 0
DWIDTH 24 0
BBX 24 24 0 -2
BITMAP
000000
000000
780000
180000
180000
180000
180000
180000
18F3E0
183430
183818
183018
183018
183018
183018
183018
183018
183018
183018
183018
7EF87E
000000
000000
000000
ENDCHAR

STARTCHAR cns1_224D
ENCODING 8781
SWIDTH 960 0
DWIDTH 24 0
BBX 24 24 0 -2
BITMAP
000000
0001C0
000360
000630
000630
000C30
000C00
000C00
000C00
000C00
000C00
001800
001800
001800
001800
001800
001800
003000
0C3000
0C6000
0C6000
06C000
038000
000000
ENDCHAR

STARTCHAR cns1_224E
ENCODING 8782
SWIDTH 960 0
DWIDTH 24 0
BBX 24 24 0 -2
BITMAP
000000
0001C0
000360
000630
000C30
000C00
001C00
007F00
00CD80
018CC0
030C60
030C60
031860
0198C0
00D980
007F00
001C00
001800
003000
0C3000
0CE000
06C000
038000
000000
ENDCHAR

STARTCHAR cns1_224F
ENCODING 8783
SWIDTH 960 0
DWIDTH 24 0
BBX 24 24 0 -2
BITMAP
000000
000000
000000
000000
000000
0C0030
1E0078
1E0078
0C0030
000000
000000
000000
000000
000000
000000
001800
003C00
003C00
001800
000000
000000
000000
000000
000000
ENDCHAR

STARTCHAR cns1_2250
ENCODING 8784
SWIDTH 960 0
DWIDTH 24 0
BBX 24 24 0 -2
BITMAP
000000
000000
000000
001800
003C00
003C00
001800
000000
000000
000000
000000
000000
000000
000000
000000
000000
180018
3C003C
3C003C
180018
000000
000000
000000
000000
ENDCHAR

STARTCHAR cns1_2251
ENCODING 8785
SWIDTH 960 0
DWIDTH 24 0
BBX 24 24 0 -2
BITMAP
000000
007C00
00C600
018300
030180
020080
020080
020080
030180
018300
00C600
007C00
001000
001000
001000
1FFFF0
001000
001000
001000
001000
001000
001000
001000
000000
ENDCHAR

STARTCHAR cns1_2252
ENCODING 8786
SWIDTH 960 0
DWIDTH 24 0
BBX 24 24 0 -2
BITMAP
000000
001000
003800
007C00
00D600
019300
031180
0610C0
0C1060
001000
001000
001000
007C00
00C600
018300
030180
020080
020080
020080
030180
018300
00C600
007C00
000000
ENDCHAR

STARTCHAR cns1_2253
ENCODING 8787
SWIDTH 960 0
DWIDTH 24 0
BBX 24 24 0 -2
BITMAP
000000
000000
007E00
01DB80
0718E0
0C1830
0C1830
181818
30180C
30180C
601806
7FFFFE
7FFFFE
601806
601806
30180C
30180C
181818
0C1818
071870
01D9C0
007F00
000000
000000
ENDCHAR

STARTCHAR cns1_2254
ENCODING 8788
SWIDTH 960 0
DWIDTH 24 0
BBX 24 24 0 -2
BITMAP
000000
000000
007E00
01C380
0700E0
0C0030
0C0030
180018
30000C
30180C
603C06
607E06
607E06
603C06
601806
30000C
30000C
180018
0C0018
070070
01C1C0
007F00
000000
000000
ENDCHAR

STARTCHAR cns1_2255
ENCODING 8789
SWIDTH 960 0
DWIDTH 24 0
BBX 24 24 0 -2
BITMAP
000000
001800
003C00
007E00
00DB00
019980
0318C0
061860
0C1830
181818
001800
001800
001800
001800
001800
001800
001800
001800
001800
001800
001800
001800
001800
000000
ENDCHAR

STARTCHAR cns1_2256
ENCODING 8790
SWIDTH 960 0
DWIDTH 24 0
BBX 24 24 0 -2
BITMAP
000000
001800
001800
001800
001800
001800
001800
001800
001800
001800
001800
001800
001800
001800
181818
0C1830
061860
0318C0
019980
00DB00
007E00
003C00
001800
000000
ENDCHAR

STARTCHAR cns1_2257
ENCODING 8791
SWIDTH 960 0
DWIDTH 24 0
BBX 24 24 0 -2
BITMAP
000000
000000
000000
000200
000300
000180
0000C0
000060
000030
000018
00000C
7FFFFE
7FFFFE
00000C
000018
000030
000060
0000C0
000180
000300
000200
000000
000000
000000
ENDCHAR

STARTCHAR cns1_2258
ENCODING 8792
SWIDTH 960 0
DWIDTH 24 0
BBX 24 24 0 -2
BITMAP
000000
000000
000000
004000
00C000
018000
030000
060000
0C0000
180000
300000
7FFFFE
7FFFFE
300000
180000
0C0000
060000
030000
018000
00C000
004000
000000
000000
000000
ENDCHAR

STARTCHAR cns1_2259
ENCODING 8793
SWIDTH 960 0
DWIDTH 24 0
BBX 24 24 0 -2
BITMAP
000000
000000
000000
1FE000
1FE000
1E0000
1B0000
198000
18C000
186000
003000
001800
000C00
000600
000300
000180
0000C0
000060
000030
000018
00000C
000000
000000
000000
ENDCHAR

STARTCHAR cns1_225A
ENCODING 8794
SWIDTH 960 0
DWIDTH 24 0
BBX 24 24 0 -2
BITMAP
000000
000000
000000
0007F8
0007F8
000078
0000D8
000198
000318
000618
000C18
001800
003000
006000
00C000
018000
030000
060000
0C0000
180000
000000
000000
000000
000000
ENDCHAR

STARTCHAR cns1_225B
ENCODING 8795
SWIDTH 960 0
DWIDTH 24 0
BBX 24 24 0 -2
BITMAP
000000
000000
00000C
000018
000030
000060
0000C0
000180
000300
000600
000C00
001800
183000
186000
18C000
198000
1B0000
1E0000
1FF000
1FF000
000000
000000
000000
000000
ENDCHAR

STARTCHAR cns1_225C
ENCODING 8796
SWIDTH 960 0
DWIDTH 24 0
BBX 24 24 0 -2
BITMAP
000000
000000
000000
180000
0C0000
060000
030000
018000
00C000
006000
003000
001800
000C18
000618
000318
000198
0000D8
000078
000FF8
000FF8
000000
000000
000000
000000
ENDCHAR

STARTCHAR cns1_225D
ENCODING 8797
SWIDTH 960 0
DWIDTH 24 0
BBX 24 24 0 -2
BITMAP
000000
006600
006600
006600
006600
006600
006600
006600
006600
006600
006600
006600
006600
006600
006600
006600
006600
006600
006600
006600
006600
006600
006600
000000
ENDCHAR

STARTCHAR cns1_225E
ENCODING 8798
SWIDTH 960 0
DWIDTH 24 0
BBX 24 24 0 -2
BITMAP
000000
001800
001800
001800
001800
001800
001800
001800
001800
001800
001800
001800
001800
001800
001800
001800
001800
001800
001800
001800
001800
001800
001800
000000
ENDCHAR

STARTCHAR cns1_225F
ENCODING 8799
SWIDTH 960 0
DWIDTH 24 0
BBX 24 24 0 -2
BITMAP
000000
000006
00000C
000018
000030
000060
0000C0
000180
000300
000600
000C00
001800
003000
006000
00C000
018000
030000
060000
0C0000
180000
300000
600000
400000
000000
ENDCHAR

STARTCHAR cns1_2260
ENCODING 8800
SWIDTH 960 0
DWIDTH 24 0
BBX 24 24 0 -2
BITMAP
000000
600000
300000
180000
0C0000
060000
030000
018000
00C000
006000
003000
001800
000C00
000600
000300
000180
0000C0
000060
000030
000018
00000C
000006
000002
000000
ENDCHAR

STARTCHAR cns1_2261
ENCODING 8801
SWIDTH 960 0
DWIDTH 24 0
BBX 24 24 0 -2
BITMAP
000000
000000
000004
00000C
000018
000030
000060
0000C0
000180
000300
000600
000C00
001800
003000
006000
00C000
018000
030000
060000
0C0000
180000
300000
200000
000000
ENDCHAR

STARTCHAR cns1_2262
ENCODING 8802
SWIDTH 960 0
DWIDTH 24 0
BBX 24 24 0 -2
BITMAP
000000
000000
300000
380000
1C0000
0E0000
070000
038000
01C000
00E000
007000
003800
001C00
000E00
000700
000380
0001C0
0000E0
000070
000038
00001C
00000C
000000
000000
ENDCHAR

STARTCHAR cns1_2263
ENCODING 8803
SWIDTH 960 0
DWIDTH 24 0
BBX 24 24 0 -2
BITMAP
000000
000000
001800
001800
00FE00
011980
0318C0
0318E0
0398E0
01F840
007C00
001F00
001BC0
0018E0
021870
071870
071870
031870
0198E0
007F80
001800
001800
000000
000000
ENDCHAR

STARTCHAR cns1_2264
ENCODING 8804
SWIDTH 960 0
DWIDTH 24 0
BBX 24 24 0 -2
BITMAP
000000
000000
3F00FC
0C0030
0C0030
060060
0300C0
0300C0
018180
00C300
006600
1FFFF8
001800
001800
001800
1FFFF8
001800
001800
001800
001800
001800
00FF00
000000
000000
ENDCHAR

STARTCHAR cns1_2265
ENCODING 8805
SWIDTH 960 0
DWIDTH 24 0
BBX 24 24 0 -2
BITMAP
000000
000000
3FFFFC
3FFFFC
000000
000000
000000
000000
3FFFFC
3FFFFC
001800
001800
001800
001800
001800
001800
001800
001800
001800
001800
001800
001800
001800
001800
ENDCHAR

STARTCHAR cns1_2266
ENCODING 8806
SWIDTH 960 0
DWIDTH 24 0
BBX 24 24 0 -2
BITMAP
000080
000080
000080
003FC0
006320
00C230
018270
030670
030420
060400
060C00
060800
060800
061800
061000
061000
063040
032040
036080
01C300
00FC00
008000
018000
010000
ENDCHAR

STARTCHAR cns1_2267
ENCODING 8807
SWIDTH 960 0
DWIDTH 24 0
BBX 24 24 0 -2
BITMAP
000000
000000
001F80
0070C0
00C0E0
00C1E0
01C1E0
0180C0
018000
018000
1FFE00
018000
01C000
00C000
00C000
0FC000
18E008
30F008
30D810
30CE30
18C7E0
0F81C0
000000
000000
ENDCHAR

STARTCHAR cns1_2268
ENCODING 8808
SWIDTH 960 0
DWIDTH 24 0
BBX 24 24 0 -2
BITMAP
000000
000000
01E004
07300C
0E3018
183030
187060
30E0C0
31C180
1B8300
0E0600
000C00
001800
003078
0061CC
00C38C
01860C
03061C
060C38
0C0C70
1806E0
300380
000000
000000
ENDCHAR

STARTCHAR cns1_2269
ENCODING 8809
SWIDTH 960 0
DWIDTH 24 0
BBX 24 24 0 -2
BITMAP
000000
000000
000000
000000
007F00
0180C0
030060
060C20
043290
0C6190
084190
08C190
08C120
08C320
086540
043980
060010
030020
0180C0
007F00
000000
000000
000000
000000
ENDCHAR

STARTCHAR cns1_226A
ENCODING 8810
SWIDTH 960 0
DWIDTH 24 0
BBX 24 24 0 -2
BITMAP
000000
1E0000
210000
210780
211864
213034
1E601C
00C00C
00C00C
01C004
018004
018000
018000
018000
018000
018000
01C000
00C004
00C004
006008
003010
001860
000780
000000
ENDCHAR

STARTCHAR cns1_226B
ENCODING 8811
SWIDTH 960 0
DWIDTH 24 0
BBX 24 24 0 -2
BITMAP
000000
0E0000
210000
217FFE
21300E
213006
1E3002
003002
003000
003020
003060
003FE0
003060
003020
003000
003000
003000
003000
003000
003000
003000
00FC00
000000
000000
ENDCHAR

STARTCHAR cns1_226C
ENCODING 8812
SWIDTH 960 0
DWIDTH 24 0
BBX 24 24 0 -2
BITMAP
000000
000000
001000
001000
007C00
00D600
019300
019300
019200
019000
00F000
003800
001C00
011600
019300
019300
019300
00D600
007C00
001000
001000
000000
000000
000000
ENDCHAR

STARTCHAR cns1_226D
ENCODING 8813
SWIDTH 960 0
DWIDTH 24 0
BBX 24 24 0 -2
BITMAP
000000
000000
000000
000000
000000
000020
01C040
022080
042100
042200
044400
038800
001000
002380
004440
008840
010840
020880
040700
000000
000000
000000
000000
000000
ENDCHAR

STARTCHAR cns1_226E
ENCODING 8814
SWIDTH 960 0
DWIDTH 24 0
BBX 24 24 0 -2
BITMAP
000000
000000
000000
000000
000000
003F00
00E180
0180C0
011C40
032440
022440
022440
022440
022440
031EC0
010390
018030
00E060
003FC0
000000
000000
000000
000000
000000
ENDCHAR

STARTCHAR cns1_226F
ENCODING 8815
SWIDTH 960 0
DWIDTH 24 0
BBX 24 24 0 -2
BITMAP
000000
000000
000378
000798
000798
000318
000018
000018
766318
3BB398
333318
333318
333318
333318
333318
333318
333318
333318
333318
333318
7FFFFE
000000
000000
000000
ENDCHAR

STARTCHAR cns1_2270
ENCODING 8816
SWIDTH 960 0
DWIDTH 24 0
BBX 24 24 0 -2
BITMAP
000000
000000
000000
000000
000000
000000
000000
000000
766EEC
3BB776
333666
333666
333666
333666
333666
333666
333666
333666
333666
333666
7B776E
000000
000000
000000
ENDCHAR

STARTCHAR cns1_2271
ENCODING 8817
SWIDTH 960 0
DWIDTH 24 0
BBX 24 24 0 -2
BITMAP
000000
000000
000000
000000
000000
000000
000000
000000
0F8DDC
18DEEC
30ECCC
31ECCC
60CCCC
600CCC
600CCC
600CCC
600CCC
300CCC
302CCC
184CCC
0F9FFE
000000
000000
000000
ENDCHAR

STARTCHAR cns1_2272
ENCODING 8818
SWIDTH 960 0
DWIDTH 24 0
BBX 24 24 0 -2
BITMAP
000000
000000
700000
300000
300000
300000
300000
300000
300000
33EEEE
309776
310666
320666
360666
3A0666
330666
318666
318666
30C666
304666
7BEF6E
000000
000000
000000
ENDCHAR

STARTCHAR cns1_2273
ENCODING 8819
SWIDTH 960 0
DWIDTH 24 0
BBX 24 24 0 -2
BITMAP
000000
000000
79F806
304C0E
30CC0E
318C1E
310E36
320A36
360B26
340B66
3C0946
3C09C6
3608C6
330886
330886
318806
318806
30C806
30C806
304806
79F81E
000000
000000
000000
ENDCHAR

STARTCHAR cns1_2274
ENCODING 8820
SWIDTH 960 0
DWIDTH 24 0
BBX 24 24 0 -2
BITMAP
000000
000078
00008C
00018C
000088
000030
000060
000084
799CFC
1EE600
18C600
18C600
18C600
18C600
18C600
18C600
18C600
18C600
18C600
18C600
3DEF00
000000
000000
000000
ENDCHAR

STARTCHAR cns1_2275
ENCODING 8821
SWIDTH 960 0
DWIDTH 24 0
BBX 24 24 0 -2
BITMAP
000000
000000
000000
000000
000000
000000
000000
000000
7661E6
3BB336
33361C
333618
333618
333618
333370
3331C0
3331C0
333370
33363E
333606
7B7E06
00030C
0001F8
000000
ENDCHAR

STARTCHAR cns1_2276
ENCODING 8822
SWIDTH 960 0
DWIDTH 24 0
BBX 24 24 0 -2
BITMAP
000000
000000
700000
300000
300000
300000
300000
300000
3003E6
31F636
304C1C
308C18
310C18
330C18
350630
3983E0
30C380
30C6F0
306C3E
302C06
79FC06
00060C
0003F8
000000
ENDCHAR

STARTCHAR cns1_2277
ENCODING 8823
SWIDTH 960 0
DWIDTH 24 0
BBX 24 24 0 -2
BITMAP
000000
000000
000000
000000
000000
000000
000000
0FC1F8
18630C
30760E
30F61E
606C08
600C00
600C00
600C00
600C00
600C00
300600
301602
182304
0FC1F8
000000
000000
000000
ENDCHAR

STARTCHAR cns1_2278
ENCODING 8824
SWIDTH 960 0
DWIDTH 24 0
BBX 24 24 0 -2
BITMAP
000000
1E0000
210000
210000
210000
210000
1E0000
000000
000000
000000
000000
000000
000000
000000
000000
000000
000000
000000
000000
000000
000000
000000
000000
000000
ENDCHAR

STARTCHAR cns1_2279
ENCODING 8825
SWIDTH 960 0
DWIDTH 24 0
BBX 24 24 0 -2
BITMAP
000000
070070
060060
063060
7FF860
060060
060060
46206C
7FF7FE
607060
606060
606060
606060
7FE060
6D8060
0D8060
0D8060
198064
198064
118004
318006
21FFFE
40FFFC
000000
ENDCHAR

STARTCHAR cns1_227A
ENCODING 8826
SWIDTH 960 0
DWIDTH 24 0
BBX 24 24 0 -2
BITMAP
000000
070000
060008
06301C
7FF870
0603E0
060060
462060
7FF060
60706C
6067FE
606060
606060
7FE060
6D8060
0D8060
0D8060
198064
198064
118064
318006
21FFFE
40FFFC
000000
ENDCHAR

STARTCHAR cns1_227B
ENCODING 8827
SWIDTH 960 0
DWIDTH 24 0
BBX 24 24 0 -2
BITMAP
000000
070018
0600FC
0667C0
7FF0C0
0600D8
0600FC
4627C0
7FF0C0
6070C0
6060CC
6060FE
606FC0
7FE0C0
6D80C4
0D80C6
0D80FE
19807C
198000
118004
318004
21FFFE
40FFFC
000000
ENDCHAR

STARTCHAR cns1_227C
ENCODING 8828
SWIDTH 960 0
DWIDTH 24 0
BBX 24 24 0 -2
BITMAP
000000
070180
0601D0
066190
7FF198
060308
06030C
462606
7FFC04
607008
6067FC
60619C
606198
7FE198
6D8118
0D8318
0D8618
1998F8
198034
118004
318006
21FFFE
40FFFC
000000
ENDCHAR

STARTCHAR cns1_227D
ENCODING 8829
SWIDTH 960 0
DWIDTH 24 0
BBX 24 24 0 -2
BITMAP
000000
070018
060FFC
0660C0
7FF0C0
060180
060508
2627FC
3FF61C
307618
306618
306618
3067F8
3FE618
0D8618
0D8618
0D8618
0D8618
1987F8
198604
198004
31FFFE
40FFFC
000000
ENDCHAR

STARTCHAR cns1_227E
ENCODING 8830
SWIDTH 960 0
DWIDTH 24 0
BBX 24 24 0 -2
BITMAP
000000
07180C
061FFE
065800
7FFB04
061BFE
061B6C
365B6C
3FFBFC
30DB6C
30DB6C
30DBFC
30DB6C
3FD860
1B1868
1B1BFC
1B1860
1B3064
1B37FE
336002
334006
23FFFE
41FFFC
000000
ENDCHAR

STARTCHAR cns1_2321
ENCODING 8993
SWIDTH 960 0
DWIDTH 24 0
BBX 24 24 0 -2
BITMAP
000000
0E0000
0C2408
7FF7FC
0C761C
0C6618
186618
186618
30E618
27C7F8
41B818
007600
00E380
0380F0
0EFF3E
70000C
0FFFF8
0C6318
0C6318
0FFFF8
0C6318
0C6378
0C0030
000000
ENDCHAR

STARTCHAR cns1_2322
ENCODING 8994
SWIDTH 960 0
DWIDTH 24 0
BBX 24 24 0 -2
BITMAP
000000
006008
7FF03C
0C00F0
0C03C0
0C0EC0
0C20C0
0FF0C0
1860C0
1860CC
1C6FFE
1B60C0
1B60C0
1960C0
1860C0
1860C0
3060C0
31E0C4
3360C4
7C60C4
307006
003FFE
001FFC
000000
ENDCHAR

STARTCHAR cns1_2323
ENCODING 8995
SWIDTH 960 0
DWIDTH 24 0
BBX 24 24 0 -2
BITMAP
000000
0E200C
0C3FFE
4CF000
4CB404
6DB7FE
2D364E
0C364C
7FB64C
0C37FC
0C364C
1E364C
1D364C
1DB7FC
3CB64C
2C3040
6C3048
4C27FC
0C2040
0C6040
0C4044
0C4FFE
0C8000
000000
ENDCHAR

STARTCHAR cns1_2324
ENCODING 8996
SWIDTH 960 0
DWIDTH 24 0
BBX 24 24 0 -2
BITMAP
000000
000000
000000
000000
000000
000000
000000
000000
000000
000000
000000
000000
000000
000000
000000
000000
000000
000000
000000
000000
7FFFFE
7FFFFE
7FFFFE
000000
ENDCHAR

STARTCHAR cns1_2325
ENCODING 8997
SWIDTH 960 0
DWIDTH 24 0
BBX 24 24 0 -2
BITMAP
000000
000000
000000
000000
000000
000000
000000
000000
000000
000000
000000
000000
000000
000000
000000
000000
000000
7FFFFE
7FFFFE
7FFFFE
7FFFFE
7FFFFE
7FFFFE
000000
ENDCHAR

STARTCHAR cns1_2326
ENCODING 8998
SWIDTH 960 0
DWIDTH 24 0
BBX 24 24 0 -2
BITMAP
000000
000000
000000
000000
000000
000000
000000
000000
000000
000000
000000
000000
000000
000000
7FFFFE
7FFFFE
7FFFFE
7FFFFE
7FFFFE
7FFFFE
7FFFFE
7FFFFE
7FFFFE
000000
ENDCHAR

STARTCHAR cns1_2327
ENCODING 8999
SWIDTH 960 0
DWIDTH 24 0
BBX 24 24 0 -2
BITMAP
000000
000000
000000
000000
000000
000000
000000
000000
000000
000000
000000
7FFFFE
7FFFFE
7FFFFE
7FFFFE
7FFFFE
7FFFFE
7FFFFE
7FFFFE
7FFFFE
7FFFFE
7FFFFE
7FFFFE
000000
ENDCHAR

STARTCHAR cns1_2328
ENCODING 9000
SWIDTH 960 0
DWIDTH 24 0
BBX 24 24 0 -2
BITMAP
000000
000000
000000
000000
000000
000000
000000
000000
7FFFFE
7FFFFE
7FFFFE
7FFFFE
7FFFFE
7FFFFE
7FFFFE
7FFFFE
7FFFFE
7FFFFE
7FFFFE
7FFFFE
7FFFFE
7FFFFE
7FFFFE
000000
ENDCHAR

STARTCHAR cns1_2329
ENCODING 9001
SWIDTH 960 0
DWIDTH 24 0
BBX 24 24 0 -2
BITMAP
000000
000000
000000
000000
000000
7FFFFE
7FFFFE
7FFFFE
7FFFFE
7FFFFE
7FFFFE
7FFFFE
7FFFFE
7FFFFE
7FFFFE
7FFFFE
7FFFFE
7FFFFE
7FFFFE
7FFFFE
7FFFFE
7FFFFE
7FFFFE
000000
ENDCHAR

STARTCHAR cns1_232A
ENCODING 9002
SWIDTH 960 0
DWIDTH 24 0
BBX 24 24 0 -2
BITMAP
000000
000000
7FFFFE
7FFFFE
7FFFFE
7FFFFE
7FFFFE
7FFFFE
7FFFFE
7FFFFE
7FFFFE
7FFFFE
7FFFFE
7FFFFE
7FFFFE
7FFFFE
7FFFFE
7FFFFE
7FFFFE
7FFFFE
7FFFFE
7FFFFE
7FFFFE
000000
ENDCHAR

STARTCHAR cns1_232B
ENCODING 9003
SWIDTH 960 0
DWIDTH 24 0
BBX 24 24 0 -2
BITMAP
000000
7FFFFE
7FFFFE
7FFFFE
7FFFFE
7FFFFE
7FFFFE
7FFFFE
7FFFFE
7FFFFE
7FFFFE
7FFFFE
7FFFFE
7FFFFE
7FFFFE
7FFFFE
7FFFFE
7FFFFE
7FFFFE
7FFFFE
7FFFFE
7FFFFE
7FFFFE
000000
ENDCHAR

STARTCHAR cns1_232C
ENCODING 9004
SWIDTH 960 0
DWIDTH 24 0
BBX 24 24 0 -2
BITMAP
000000
700000
700000
700000
700000
700000
700000
700000
700000
700000
700000
700000
700000
700000
700000
700000
700000
700000
700000
700000
700000
700000
700000
000000
ENDCHAR

STARTCHAR cns1_232D
ENCODING 9005
SWIDTH 960 0
DWIDTH 24 0
BBX 24 24 0 -2
BITMAP
000000
7E0000
7E0000
7E0000
7E0000
7E0000
7E0000
7E0000
7E0000
7E0000
7E0000
7E0000
7E0000
7E0000
7E0000
7E0000
7E0000
7E0000
7E0000
7E0000
7E0000
7E0000
7E0000
000000
ENDCHAR

STARTCHAR cns1_232E
ENCODING 9006
SWIDTH 960 0
DWIDTH 24 0
BBX 24 24 0 -2
BITMAP
000000
7FC000
7FC000
7FC000
7FC000
7FC000
7FC000
7FC000
7FC000
7FC000
7FC000
7FC000
7FC000
7FC000
7FC000
7FC000
7FC000
7FC000
7FC000
7FC000
7FC000
7FC000
7FC000
000000
ENDCHAR

STARTCHAR cns1_232F
ENCODING 9007
SWIDTH 960 0
DWIDTH 24 0
BBX 24 24 0 -2
BITMAP
000000
7FF800
7FF800
7FF800
7FF800
7FF800
7FF800
7FF800
7FF800
7FF800
7FF800
7FF800
7FF800
7FF800
7FF800
7FF800
7FF800
7FF800
7FF800
7FF800
7FF800
7FF800
7FF800
000000
ENDCHAR

STARTCHAR cns1_2330
ENCODING 9008
SWIDTH 960 0
DWIDTH 24 0
BBX 24 24 0 -2
BITMAP
000000
7FFF00
7FFF00
7FFF00
7FFF00
7FFF00
7FFF00
7FFF00
7FFF00
7FFF00
7FFF00
7FFF00
7FFF00
7FFF00
7FFF00
7FFF00
7FFF00
7FFF00
7FFF00
7FFF00
7FFF00
7FFF00
7FFF00
000000
ENDCHAR

STARTCHAR cns1_2331
ENCODING 9009
SWIDTH 960 0
DWIDTH 24 0
BBX 24 24 0 -2
BITMAP
000000
7FFFE0
7FFFE0
7FFFE0
7FFFE0
7FFFE0
7FFFE0
7FFFE0
7FFFE0
7FFFE0
7FFFE0
7FFFE0
7FFFE0
7FFFE0
7FFFE0
7FFFE0
7FFFE0
7FFFE0
7FFFE0
7FFFE0
7FFFE0
7FFFE0
7FFFE0
000000
ENDCHAR

STARTCHAR cns1_2332
ENCODING 9010
SWIDTH 960 0
DWIDTH 24 0
BBX 24 24 0 -2
BITMAP
000000
7FFFFC
7FFFFC
7FFFFC
7FFFFC
7FFFFC
7FFFFC
7FFFFC
7FFFFC
7FFFFC
7FFFFC
7FFFFC
7FFFFC
7FFFFC
7FFFFC
7FFFFC
7FFFFC
7FFFFC
7FFFFC
7FFFFC
7FFFFC
7FFFFC
7FFFFC
000000
ENDCHAR

STARTCHAR cns1_2333
ENCODING 9011
SWIDTH 960 0
DWIDTH 24 0
BBX 24 24 0 -2
BITMAP
001800
001800
001800
001800
001800
001800
001800
001800
001800
001800
001800
FFFFFF
FFFFFF
001800
001800
001800
001800
001800
001800
001800
001800
001800
001800
001800
ENDCHAR

STARTCHAR cns1_2334
ENCODING 9012
SWIDTH 960 0
DWIDTH 24 0
BBX 24 24 0 -2
BITMAP
001800
001800
001800
001800
001800
001800
001800
001800
001800
001800
001800
FFFFFF
FFFFFF
000000
000000
000000
000000
000000
000000
000000
000000
000000
000000
000000
ENDCHAR

STARTCHAR cns1_2335
ENCODING 9013
SWIDTH 960 0
DWIDTH 24 0
BBX 24 24 0 -2
BITMAP
000000
000000
000000
000000
000000
000000
000000
000000
000000
000000
000000
FFFFFF
FFFFFF
001800
001800
001800
001800
001800
001800
001800
001800
001800
001800
001800
ENDCHAR

STARTCHAR cns1_2336
ENCODING 9014
SWIDTH 960 0
DWIDTH 24 0
BBX 24 24 0 -2
BITMAP
001800
001800
001800
001800
001800
001800
001800
001800
001800
001800
001800
FFF800
FFF800
001800
001800
001800
001800
001800
001800
001800
001800
001800
001800
001800
ENDCHAR

STARTCHAR cns1_2337
ENCODING 9015
SWIDTH 960 0
DWIDTH 24 0
BBX 24 24 0 -2
BITMAP
001800
001800
001800
001800
001800
001800
001800
001800
001800
001800
001800
001FFF
001FFF
001800
001800
001800
001800
001800
001800
001800
001800
001800
001800
001800
ENDCHAR

STARTCHAR cns1_2338
ENCODING 9016
SWIDTH 960 0
DWIDTH 24 0
BBX 24 24 0 -2
BITMAP
000000
7FFFFE
7FFFFE
7FFFFE
000000
000000
000000
000000
000000
000000
000000
000000
000000
000000
000000
000000
000000
000000
000000
000000
000000
000000
000000
000000
ENDCHAR

STARTCHAR cns1_2339
ENCODING 9017
SWIDTH 960 0
DWIDTH 24 0
BBX 24 24 0 -2
BITMAP
000000
000000
000000
000000
000000
000000
000000
000000
000000
000000
000000
FFFFFF
FFFFFF
000000
000000
000000
000000
000000
000000
000000
000000
000000
000000
000000
ENDCHAR

STARTCHAR cns1_233A
ENCODING 9018
SWIDTH 960 0
DWIDTH 24 0
BBX 24 24 0 -2
BITMAP
001800
001800
001800
001800
001800
001800
001800
001800
001800
001800
001800
001800
001800
001800
001800
001800
001800
001800
001800
001800
001800
001800
001800
001800
ENDCHAR

STARTCHAR cns1_233B
ENCODING 9019
SWIDTH 960 0
DWIDTH 24 0
BBX 24 24 0 -2
BITMAP
000000
00000E
00000E
00000E
00000E
00000E
00000E
00000E
00000E
00000E
00000E
00000E
00000E
00000E
00000E
00000E
00000E
00000E
00000E
00000E
00000E
00000E
00000E
000000
ENDCHAR

STARTCHAR cns1_233C
ENCODING 9020
SWIDTH 960 0
DWIDTH 24 0
BBX 24 24 0 -2
BITMAP
000000
000000
000000
000000
000000
000000
000000
000000
000000
000000
000000
001FFF
001FFF
001800
001800
001800
001800
001800
001800
001800
001800
001800
001800
001800
ENDCHAR

STARTCHAR cns1_233D
ENCODING 9021
SWIDTH 960 0
DWIDTH 24 0
BBX 24 24 0 -2
BITMAP
000000
000000
000000
000000
000000
000000
000000
000000
000000
000000
000000
FFF800
FFF800
001800
001800
001800
001800
001800
001800
001800
001800
001800
001800
001800
ENDCHAR

STARTCHAR cns1_233E
ENCODING 9022
SWIDTH 960 0
DWIDTH 24 0
BBX 24 24 0 -2
BITMAP
001800
001800
001800
001800
001800
001800
001800
001800
001800
001800
001800
001FFF
001FFF
000000
000000
000000
000000
000000
000000
000000
000000
000000
000000
000000
ENDCHAR

STARTCHAR cns1_233F
ENCODING 9023
SWIDTH 960 0
DWIDTH 24 0
BBX 24 24 0 -2
BITMAP
001800
001800
001800
001800
001800
001800
001800
001800
001800
001800
001800
FFF800
FFF800
000000
000000
000000
000000
000000
000000
000000
000000
000000
000000
000000
ENDCHAR

STARTCHAR cns1_2340
ENCODING 9024
SWIDTH 960 0
DWIDTH 24 0
BBX 24 24 0 -2
BITMAP
000000
000000
000000
000000
000000
000000
000000
000000
000000
000000
000000
000000
000002
00000E
00003C
000070
0000C0
0001C0
000380
000300
000700
000600
000C00
000000
ENDCHAR

STARTCHAR cns1_2341
ENCODING 9025
SWIDTH 960 0
DWIDTH 24 0
BBX 24 24 0 -2
BITMAP
000000
000000
000000
000000
000000
000000
000000
000000
000000
000000
000000
000000
400000
700000
3C0000
0E0000
070000
038000
01C000
00C000
00E000
006000
003000
000000
ENDCHAR

STARTCHAR cns1_2342
ENCODING 9026
SWIDTH 960 0
DWIDTH 24 0
BBX 24 24 0 -2
BITMAP
000000
000C00
000600
000600
000300
000300
0001C0
0000E0
000078
00001C
00000E
000002
000000
000000
000000
000000
000000
000000
000000
000000
000000
000000
000000
000000
ENDCHAR

STARTCHAR cns1_2343
ENCODING 9027
SWIDTH 960 0
DWIDTH 24 0
BBX 24 24 0 -2
BITMAP
000000
003000
006000
006000
00C000
01C000
018000
070000
1E0000
380000
700000
400000
000000
000000
000000
000000
000000
000000
000000
000000
000000
000000
000000
000000
ENDCHAR

STARTCHAR cns1_2344
ENCODING 9028
SWIDTH 960 0
DWIDTH 24 0
BBX 24 24 0 -2
BITMAP
000000
000000
000000
000000
000000
000000
7FFFFE
7FFFFE
000000
000000
000000
000000
000000
000000
000000
000000
7FFFFE
7FFFFE
000000
000000
000000
000000
000000
000000
ENDCHAR

STARTCHAR cns1_2345
ENCODING 9029
SWIDTH 960 0
DWIDTH 24 0
BBX 24 24 0 -2
BITMAP
000000
001800
001800
001800
001800
001800
001FFE
001FFE
001800
001800
001800
001800
001800
001800
001800
001800
001FFE
001FFE
001800
001800
001800
001800
001800
000000
ENDCHAR

STARTCHAR cns1_2346
ENCODING 9030
SWIDTH 960 0
DWIDTH 24 0
BBX 24 24 0 -2
BITMAP
000000
001800
001800
001800
001800
001800
7FFFFE
7FFFFE
001800
001800
001800
001800
001800
001800
001800
001800
7FFFFE
7FFFFE
001800
001800
001800
001800
001800
000000
ENDCHAR

STARTCHAR cns1_2347
ENCODING 9031
SWIDTH 960 0
DWIDTH 24 0
BBX 24 24 0 -2
BITMAP
000000
001800
001800
001800
001800
001800
7FF800
7FF800
001800
001800
001800
001800
001800
001800
001800
001800
7FF800
7FF800
001800
001800
001800
001800
001800
000000
ENDCHAR

STARTCHAR cns1_2348
ENCODING 9032
SWIDTH 960 0
DWIDTH 24 0
BBX 24 24 0 -2
BITMAP
000000
000002
000006
00000E
00001E
00003E
00007E
0000FE
0001FE
0003FE
0007FE
000FFE
001FFE
003FFE
007FFE
00FFFE
01FFFE
03FFFE
07FFFE
0FFFFE
1FFFFE
3FFFFE
7FFFFE
000000
ENDCHAR

STARTCHAR cns1_2349
ENCODING 9033
SWIDTH 960 0
DWIDTH 24 0
BBX 24 24 0 -2
BITMAP
000000
400000
600000
700000
780000
7C0000
7E0000
7F0000
7F8000
7FC000
7FE000
7FF000
7FF800
7FFC00
7FFE00
7FFF00
7FFF80
7FFFC0
7FFFE0
7FFFF0
7FFFF8
7FFFFC
7FFFFE
000000
ENDCHAR

STARTCHAR cns1_234A
ENCODING 9034
SWIDTH 960 0
DWIDTH 24 0
BBX 24 24 0 -2
BITMAP
000000
7FFFFE
3FFFFE
1FFFFE
0FFFFE
07FFFE
03FFFE
01FFFE
00FFFE
007FFE
003FFE
001FFE
000FFE
0007FE
0003FE
0001FE
0000FE
00007E
00003E
00001E
00000E
000006
000002
000000
ENDCHAR

STARTCHAR cns1_234B
ENCODING 9035
SWIDTH 960 0
DWIDTH 24 0
BBX 24 24 0 -2
BITMAP
000000
7FFFFE
7FFFFC
7FFFF8
7FFFF0
7FFFE0
7FFFC0
7FFF80
7FFF00
7FFE00
7FFC00
7FF800
7FF000
7FE000
7FC000
7F8000
7F0000
7E0000
7C0000
780000
700000
600000
400000
000000
ENDCHAR

STARTCHAR cns1_234C
ENCODING 9036
SWIDTH 960 0
DWIDTH 24 0
BBX 24 24 0 -2
BITMAP
000000
000006
00000C
000018
000030
000060
0000C0
000180
000300
000600
000C00
001800
003000
006000
00C000
018000
030000
060000
0C0000
180000
300000
600000
400000
000000
ENDCHAR

STARTCHAR cns1_234D
ENCODING 9037
SWIDTH 960 0
DWIDTH 24 0
BBX 24 24 0 -2
BITMAP
000000
400000
600000
300000
180000
0C0000
060000
030000
018000
00C000
006000
003000
001800
000C00
000600
000300
000180
0000C0
000060
000030
000018
00000C
000006
000000
ENDCHAR

STARTCHAR cns1_234E
ENCODING 9038
SWIDTH 960 0
DWIDTH 24 0
BBX 24 24 0 -2
BITMAP
000000
600002
300006
18000C
0C0018
060030
030060
0180C0
00C180
006300
003600
001C00
001C00
003600
006300
00C180
0180C0
030060
060030
0C0018
18000C
300006
600002
000000
ENDCHAR

STARTCHAR cns1_234F
ENCODING 9039
SWIDTH 960 0
DWIDTH 24 0
BBX 24 24 0 -2
BITMAP
000000
000000
200004
000000
000000
000000
000000
000000
000000
000000
000000
000000
000000
000000
000000
000000
000000
000000
000000
000000
000000
200004
000000
000000
ENDCHAR

STARTCHAR cns1_2421
ENCODING 9249
SWIDTH 960 0
DWIDTH 24 0
BBX 24 24 0 -2
BITMAP
000000
000000
000000
003C00
007E00
00E700
01C380
01C380
018180
018180
018180
018180
018180
018180
018180
018180
01C380
01C380
00E700
007E00
003C00
000000
000000
000000
ENDCHAR

STARTCHAR cns1_2422
ENCODING 9250
SWIDTH 960 0
DWIDTH 24 0
BBX 24 24 0 -2
BITMAP
000000
000000
000C00
001C00
01FC00
01FC00
001C00
001C00
001C00
001C00
001C00
001C00
001C00
001C00
001C00
001C00
001C00
001C00
001C00
00FF80
00FF80
000000
000000
000000
ENDCHAR

STARTCHAR cns1_2423
ENCODING 9251
SWIDTH 960 0
DWIDTH 24 0
BBX 24 24 0 -2
BITMAP
000000
000000
000000
003E00
00FF00
01C380
01C180
01E180
01C180
008180
000380
000700
000E00
001C00
003800
007000
00E000
01C040
0180C0
01FFC0
01FF80
000000
000000
000000
ENDCHAR

STARTCHAR cns1_2424
ENCODING 9252
SWIDTH 960 0
DWIDTH 24 0
BBX 24 24 0 -2
BITMAP
000000
000000
000000
007E00
00FF00
01C380
01C380
008380
000300
000700
003E00
003C00
000700
000380
0001C0
0001C0
0081C0
01C1C0
01E380
00FF00
007E00
000000
000000
000000
ENDCHAR

STARTCHAR cns1_2425
ENCODING 9253
SWIDTH 960 0
DWIDTH 24 0
BBX 24 24 0 -2
BITMAP
000000
000000
000000
000C00
000C00
001C00
001C00
003C00
002C00
006C00
004C00
00CC00
008C00
018C00
030C00
03FF80
03FF80
000C00
000C00
003F00
003F00
000000
000000
000000
ENDCHAR

STARTCHAR cns1_2426
ENCODING 9254
SWIDTH 960 0
DWIDTH 24 0
BBX 24 24 0 -2
BITMAP
000000
000000
000000
01FF00
01FF00
018000
018000
018000
018000
018000
01FE00
01E700
018380
000180
000180
000180
008180
01C380
01C700
00FE00
007C00
000000
000000
000000
ENDCHAR

STARTCHAR cns1_2427
ENCODING 9255
SWIDTH 960 0
DWIDTH 24 0
BBX 24 24 0 -2
BITMAP
000000
000000
000000
003E00
007F00
00E380
01C380
018000
018000
018000
01BE00
01FF00
01C380
018180
018180
018180
018180
018180
01C380
00FF00
007E00
000000
000000
000000
ENDCHAR

STARTCHAR cns1_2428
ENCODING 9256
SWIDTH 960 0
DWIDTH 24 0
BBX 24 24 0 -2
BITMAP
000000
000000
000000
00FFC0
00FFC0
01C0C0
018180
030300
000300
000600
000600
000C00
000C00
001800
001800
001800
001800
003800
003800
003800
001000
000000
000000
000000
ENDCHAR

STARTCHAR cns1_2429
ENCODING 9257
SWIDTH 960 0
DWIDTH 24 0
BBX 24 24 0 -2
BITMAP
000000
000000
000000
003C00
00FF00
01C380
018180
018180
018180
01C300
00F600
003E00
007F00
00C380
0181C0
0180C0
0180C0
0181C0
01C380
00FF00
003C00
000000
000000
000000
ENDCHAR

STARTCHAR cns1_242A
ENCODING 9258
SWIDTH 960 0
DWIDTH 24 0
BBX 24 24 0 -2
BITMAP
000000
000000
000000
003E00
007F00
00E380
01C180
01C180
01C0C0
01C0C0
01C1C0
01C1C0
00E3C0
007FC0
0001C0
000180
000180
018180
01C300
00E700
003E00
000000
000000
000000
ENDCHAR

STARTCHAR cns1_242B
ENCODING 9259
SWIDTH 960 0
DWIDTH 24 0
BBX 24 24 0 -2
BITMAP
000000
000000
01FF80
001800
001800
001800
001800
001800
001800
001800
001800
001800
001800
001800
001800
001800
001800
001800
001800
001800
01FF80
000000
000000
000000
ENDCHAR

STARTCHAR cns1_242C
ENCODING 9260
SWIDTH 960 0
DWIDTH 24 0
BBX 24 24 0 -2
BITMAP
000000
000000
03FFE0
006300
006300
006300
006300
006300
006300
006300
006300
006300
006300
006300
006300
006300
006300
006300
006300
006300
03FFE0
000000
000000
000000
ENDCHAR

STARTCHAR cns1_242D
ENCODING 9261
SWIDTH 960 0
DWIDTH 24 0
BBX 24 24 0 -2
BITMAP
000000
000000
07FFE0
019980
019980
019980
019980
019980
019980
019980
019980
019980
019980
019980
019980
019980
019980
019980
019980
019980
07FFE0
000000
000000
000000
ENDCHAR

STARTCHAR cns1_242E
ENCODING 9262
SWIDTH 960 0
DWIDTH 24 0
BBX 24 24 0 -2
BITMAP
000000
000000
7FF01E
18600C
18600C
18600C
18600C
183018
183018
183018
183018
181830
181830
181830
180C60
180C60
180C60
1806C0
1806C0
180380
7F0100
000000
000000
000000
ENDCHAR

STARTCHAR cns1_242F
ENCODING 9263
SWIDTH 960 0
DWIDTH 24 0
BBX 24 24 0 -2
BITMAP
000000
000000
3F007E
0C0018
0C0018
0C0018
060030
060030
060030
030060
030060
0180C0
0180C0
00C180
00C180
006300
006300
003600
003600
001C00
000800
000000
000000
000000
ENDCHAR

STARTCHAR cns1_2430
ENCODING 9264
SWIDTH 960 0
DWIDTH 24 0
BBX 24 24 0 -2
BITMAP
000000
000000
780FFE
300630
300630
300630
300630
180C30
180C30
180C30
180C30
0C1830
0C1830
0C1830
063030
063030
063030
036030
036030
01C030
0081FE
000000
000000
000000
ENDCHAR

STARTCHAR cns1_2431
ENCODING 9265
SWIDTH 960 0
DWIDTH 24 0
BBX 24 24 0 -2
BITMAP
000000
000000
780FFE
3006CC
3006CC
3006CC
3006CC
180CCC
180CCC
180CCC
180CCC
0C18CC
0C18CC
0C18CC
0630CC
0630CC
0630CC
0360CC
0360CC
01C0CC
0081FE
000000
000000
000000
ENDCHAR

STARTCHAR cns1_2432
ENCODING 9266
SWIDTH 960 0
DWIDTH 24 0
BBX 24 24 0 -2
BITMAP
000000
000000
783FFE
301B6C
301B6C
301B6C
301B6C
301B6C
301B6C
18336C
18336C
18336C
18336C
18336C
0C636C
0C636C
0C636C
06C36C
06C36C
03836C
0107FE
000000
000000
000000
ENDCHAR

STARTCHAR cns1_2433
ENCODING 9267
SWIDTH 960 0
DWIDTH 24 0
BBX 24 24 0 -2
BITMAP
000000
000000
7FF01E
18600C
18600C
183018
183018
181830
181830
180C60
1806C0
180380
1806C0
180C60
181830
181830
183018
183018
18600C
18600C
7FF01E
000000
000000
000000
ENDCHAR

STARTCHAR cns1_2434
ENCODING 9268
SWIDTH 960 0
DWIDTH 24 0
BBX 24 24 0 -2
BITMAP
000000
000000
7C003E
180018
0C0030
060060
0300C0
018180
00C300
006600
003C00
001800
003C00
006600
00C300
018180
0300C0
060060
0C0030
180018
7C003E
000000
000000
000000
ENDCHAR

STARTCHAR cns1_2435
ENCODING 9269
SWIDTH 960 0
DWIDTH 24 0
BBX 24 24 0 -2
BITMAP
000000
000000
002000
003000
003000
003000
003000
003000
003000
003000
003000
003000
003000
003000
003000
003000
003000
003000
003000
003000
003000
001000
000000
000000
ENDCHAR

STARTCHAR cns1_2436
ENCODING 9270
SWIDTH 960 0
DWIDTH 24 0
BBX 24 24 0 -2
BITMAP
000000
000000
000200
000600
000600
008600
018600
018600
018600
018600
018600
018600
018600
018600
018600
018600
018600
018600
008600
000600
000600
000200
000000
000000
ENDCHAR

STARTCHAR cns1_2437
ENCODING 9271
SWIDTH 960 0
DWIDTH 24 0
BBX 24 24 0 -2
BITMAP
000000
000000
000040
0000C0
0000C0
0300C0
0300C0
0318C0
0318C0
0318C0
0318C0
0318C0
0318C0
0318C0
0318C0
0318C0
0318C0
0300C0
0300C0
0000C0
0000C0
000040
000000
000000
ENDCHAR

STARTCHAR cns1_2438
ENCODING 9272
SWIDTH 960 0
DWIDTH 24 0
BBX 24 24 0 -2
BITMAP
000000
000000
000000
180030
0C0030
060030
030070
0180E0
00C1C0
006380
003700
001E00
001C00
001C00
003600
006300
00C180
0180C0
030060
060038
1C001C
000000
000000
000000
ENDCHAR

STARTCHAR cns1_2439
ENCODING 9273
SWIDTH 960 0
DWIDTH 24 0
BBX 24 24 0 -2
BITMAP
000000
000000
000000
0018C0
003980
003180
006300
006300
006E00
003C00
001E00
003300
006300
00C180
00C180
018180
018180
018180
018180
00C300
00C600
006C00
003800
000000
ENDCHAR

STARTCHAR cns1_243A
ENCODING 9274
SWIDTH 960 0
DWIDTH 24 0
BBX 24 24 0 -2
BITMAP
000000
000000
000000
000000
000000
003800
003800
003000
003000
003000
003000
003030
1FFFF8
0FFFF0
000000
000000
000000
000000
000000
000000
000000
000000
000000
000000
ENDCHAR

STARTCHAR cns1_243B
ENCODING 9275
SWIDTH 960 0
DWIDTH 24 0
BBX 24 24 0 -2
BITMAP
000000
000000
000000
000000
003000
003800
003800
003000
003000
003040
3FFFE0
1FFFF0
000000
000000
000080
0FFFC0
07FFE0
000000
000000
000000
000000
000000
000000
000000
ENDCHAR

STARTCHAR cns1_243C
ENCODING 9276
SWIDTH 960 0
DWIDTH 24 0
BBX 24 24 0 -2
BITMAP
000000
000000
000000
003000
003800
003800
003000
003000
003040
1FFFE0
0FFFF0
000000
000000
000100
03FF80
01FFC0
000000
000000
000030
3FFFF8
1FFFFC
000000
000000
000000
ENDCHAR

STARTCHAR cns1_243D
ENCODING 9277
SWIDTH 960 0
DWIDTH 24 0
BBX 24 24 0 -2
BITMAP
000000
000000
003000
006000
00C000
018000
03FFF0
07FFF0
000030
060060
0600C0
030180
018300
00C600
006C00
003800
003C00
006600
00C380
0181C0
0700FC
1E0038
000000
000000
ENDCHAR

STARTCHAR cns1_243E
ENCODING 9278
SWIDTH 960 0
DWIDTH 24 0
BBX 24 24 0 -2
BITMAP
000000
000000
001000
001800
001800
001800
001800
001800
001800
001818
0FFFFC
1FFFF8
001800
001800
001800
001800
001800
001800
001800
001800
001800
001800
000000
000000
ENDCHAR

STARTCHAR cns1_243F
ENCODING 9279
SWIDTH 960 0
DWIDTH 24 0
BBX 24 24 0 -2
BITMAP
000000
000000
00C200
00E380
00E380
00C300
00C300
00C300
00C300
00C330
3FFFF8
1FFFFC
00C300
00C300
00C300
00C300
00C300
00C300
00C300
000000
000000
000000
000000
000000
ENDCHAR

STARTCHAR cns1_2440
ENCODING 9280
SWIDTH 960 0
DWIDTH 24 0
BBX 24 24 0 -2
BITMAP
000000
000000
000000
0318C0
0318C0
0318C0
0318C0
0318C0
0318C0
031CD8
3FFFFC
1FFFFC
0318C0
0318C0
0318C0
0318C0
0318C0
0318C0
0318C0
0318C0
0318C0
000000
000000
000000
ENDCHAR

STARTCHAR cns1_2441
ENCODING 9281
SWIDTH 960 0
DWIDTH 24 0
BBX 24 24 0 -2
BITMAP
000000
000000
001800
001800
003C00
002C00
002E00
006600
006600
004700
00C300
00C300
01FF80
018180
0181C0
0301C0
0300E0
0600E0
060070
0F81F8
000000
000000
000000
000000
ENDCHAR

STARTCHAR cns1_2442
ENCODING 9282
SWIDTH 960 0
DWIDTH 24 0
BBX 24 24 0 -2
BITMAP
000000
000000
0FFE00
01C380
0181C0
0180E0
0180E0
0180E0
0180E0
0181C0
01FF00
0183C0
0180E0
018070
018070
018070
018070
0180E0
01C0C0
0FFF80
000000
000000
000000
000000
ENDCHAR

STARTCHAR cns1_2443
ENCODING 9283
SWIDTH 960 0
DWIDTH 24 0
BBX 24 24 0 -2
BITMAP
000000
000000
003E40
00E3C0
0180C0
0300C0
070040
070040
0E0000
0E0000
0E0000
0E0000
0E0000
0E0000
070000
070020
038040
0180C0
00E180
007F00
000000
000000
000000
000000
ENDCHAR

STARTCHAR cns1_2444
ENCODING 9284
SWIDTH 960 0
DWIDTH 24 0
BBX 24 24 0 -2
BITMAP
000000
000000
0FFC00
038700
0181C0
0180E0
0180E0
018070
018070
018070
018070
018070
018070
018070
018070
0180E0
0180E0
0181C0
018380
0FFF00
000000
000000
000000
000000
ENDCHAR

STARTCHAR cns1_2445
ENCODING 9285
SWIDTH 960 0
DWIDTH 24 0
BBX 24 24 0 -2
BITMAP
000000
000000
0FFFE0
0381E0
0180E0
018060
018020
018200
018600
018E00
01FE00
018E00
018600
018200
018000
018020
018060
0180E0
0381E0
0FFFE0
000000
000000
000000
000000
ENDCHAR

STARTCHAR cns1_2446
ENCODING 9286
SWIDTH 960 0
DWIDTH 24 0
BBX 24 24 0 -2
BITMAP
000000
000000
000000
0FFFF0
01C070
01C030
01C010
01C000
01C100
01C300
01FF00
01C700
01C300
01C100
01C000
01C000
01C000
01C000
01C000
0FF800
000000
000000
000000
000000
ENDCHAR

STARTCHAR cns1_2447
ENCODING 9287
SWIDTH 960 0
DWIDTH 24 0
BBX 24 24 0 -2
BITMAP
000000
000000
007E40
01C3C0
0380C0
0300C0
070040
060000
0E0000
0E0000
0E0000
0E0000
0E07F8
0E01E0
0600C0
0700C0
0300C0
0381C0
01C7C0
007CC0
0000C0
000000
000000
000000
ENDCHAR

STARTCHAR cns1_2448
ENCODING 9288
SWIDTH 960 0
DWIDTH 24 0
BBX 24 24 0 -2
BITMAP
000000
000000
0FC3F0
0781E0
0300C0
0300C0
0300C0
0300C0
0300C0
0300C0
03FFC0
0300C0
0300C0
0300C0
0300C0
0300C0
0300C0
0300C0
0781E0
0FC3F0
000000
000000
000000
000000
ENDCHAR

STARTCHAR cns1_2449
ENCODING 9289
SWIDTH 960 0
DWIDTH 24 0
BBX 24 24 0 -2
BITMAP
000000
000000
00FF00
003C00
001800
001800
001800
001800
001800
001800
001800
001800
001800
001800
001800
001800
001800
001800
003C00
00FF00
000000
000000
000000
000000
ENDCHAR

STARTCHAR cns1_244A
ENCODING 9290
SWIDTH 960 0
DWIDTH 24 0
BBX 24 24 0 -2
BITMAP
000000
000000
003F80
000E00
000600
000600
000600
000600
000600
000600
000600
000600
000600
000600
030600
038600
038600
030600
018C00
00F800
000000
000000
000000
000000
ENDCHAR

STARTCHAR cns1_244B
ENCODING 9291
SWIDTH 960 0
DWIDTH 24 0
BBX 24 24 0 -2
BITMAP
000000
000000
0FC7F0
0781E0
030380
030600
030C00
031800
033000
037000
03F800
039C00
030C00
030E00
030700
030300
030380
0301C0
0381E0
0FE3F8
000000
000000
000000
000000
ENDCHAR

STARTCHAR cns1_244C
ENCODING 9292
SWIDTH 960 0
DWIDTH 24 0
BBX 24 24 0 -2
BITMAP
000000
000000
03F000
01E000
00C000
00C000
00C000
00C000
00C000
00C000
00C000
00C000
00C000
00C000
00C000
00C010
00C010
00C030
01E070
07FFF0
000000
000000
000000
000000
ENDCHAR

STARTCHAR cns1_244D
ENCODING 9293
SWIDTH 960 0
DWIDTH 24 0
BBX 24 24 0 -2
BITMAP
000000
000000
1F007C
0F0078
0780F0
0580B0
05C0B0
05C1B0
04C130
04E130
04E330
046230
047230
047630
043430
043C30
043C30
041830
0C1838
1F18FC
000000
000000
000000
000000
ENDCHAR

STARTCHAR cns1_244E
ENCODING 9294
SWIDTH 960 0
DWIDTH 24 0
BBX 24 24 0 -2
BITMAP
000000
000000
000000
0781F0
03C0E0
01E040
01E040
017040
013840
013840
011C40
011C40
010E40
010740
010740
0103C0
0103C0
0101C0
0380C0
07C0C0
000000
000000
000000
000000
ENDCHAR

STARTCHAR cns1_244F
ENCODING 9295
SWIDTH 960 0
DWIDTH 24 0
BBX 24 24 0 -2
BITMAP
000000
000000
007E00
01C380
0381C0
0300C0
0700E0
0E00E0
0E0070
0E0070
0E0070
0E0070
0E0070
0E0070
060060
0700E0
0300C0
018180
00E700
003C00
000000
000000
000000
000000
ENDCHAR

STARTCHAR cns1_2450
ENCODING 9296
SWIDTH 960 0
DWIDTH 24 0
BBX 24 24 0 -2
BITMAP
000000
000000
000000
07FF80
00C1E0
00C0E0
00C070
00C070
00C070
00C0F0
00C1E0
00FF80
00C000
00C000
00C000
00C000
00C000
00C000
01E000
03F800
000000
000000
000000
000000
ENDCHAR

STARTCHAR cns1_2451
ENCODING 9297
SWIDTH 960 0
DWIDTH 24 0
BBX 24 24 0 -2
BITMAP
000000
000000
007C00
01C700
038380
0701C0
0701C0
0E00E0
0E00E0
0E00E0
0E00E0
0E00E0
0E00E0
0E00E0
0E38E0
0764C0
0745C0
034780
01C700
00FF00
003B90
0003E0
0001C0
000000
ENDCHAR

STARTCHAR cns1_2452
ENCODING 9298
SWIDTH 960 0
DWIDTH 24 0
BBX 24 24 0 -2
BITMAP
000000
000000
000000
07FF00
0181C0
0180E0
0180E0
0180E0
0180E0
0181C0
01FF00
018E00
018700
018300
018380
018380
0181C0
0181C8
03C1C8
07F0F0
000000
000000
000000
000000
ENDCHAR

STARTCHAR cns1_2453
ENCODING 9299
SWIDTH 960 0
DWIDTH 24 0
BBX 24 24 0 -2
BITMAP
000000
000000
007C80
01C780
018380
030180
030080
030000
038000
01E000
00FC00
003F80
000F80
0201C0
0200C0
0300C0
0300C0
038080
02E380
027F00
000000
000000
000000
000000
ENDCHAR

STARTCHAR cns1_2454
ENCODING 9300
SWIDTH 960 0
DWIDTH 24 0
BBX 24 24 0 -2
BITMAP
000000
000000
000000
0FFFF0
0E3C70
0C1830
081810
001800
001800
001800
001800
001800
001800
001800
001800
001800
001800
001800
003C00
00FF00
000000
000000
000000
000000
ENDCHAR

STARTCHAR cns1_2455
ENCODING 9301
SWIDTH 960 0
DWIDTH 24 0
BBX 24 24 0 -2
BITMAP
000000
000000
0FC3E0
0781C0
030080
030080
030080
030080
030080
030080
030080
030080
030080
030080
030080
030080
038180
018100
01C300
007E00
000000
000000
000000
000000
ENDCHAR

STARTCHAR cns1_2456
ENCODING 9302
SWIDTH 960 0
DWIDTH 24 0
BBX 24 24 0 -2
BITMAP
000000
000000
0FE3F8
0780F0
030060
0380C0
0180C0
01C080
01C180
00C100
00C100
00E300
006200
006200
007600
003400
003C00
003800
001800
001800
000000
000000
000000
000000
ENDCHAR

STARTCHAR cns1_2457
ENCODING 9303
SWIDTH 960 0
DWIDTH 24 0
BBX 24 24 0 -2
BITMAP
000000
000000
7E7E3E
383C1C
181818
181810
181810
0C2C30
0C2C20
0C2C20
062620
062620
066660
034340
034340
03C3C0
01C1C0
018180
018180
008080
000000
000000
000000
000000
ENDCHAR

STARTCHAR cns1_2458
ENCODING 9304
SWIDTH 960 0
DWIDTH 24 0
BBX 24 24 0 -2
BITMAP
000000
000000
000000
1F80F8
070070
030020
018040
00C080
00C100
006200
003400
001800
001C00
002600
004600
008300
010180
020180
0400C0
0E00E0
1F01F8
000000
000000
000000
ENDCHAR

STARTCHAR cns1_2459
ENCODING 9305
SWIDTH 960 0
DWIDTH 24 0
BBX 24 24 0 -2
BITMAP
000000
000000
0FC0F8
030060
0380C0
01C080
00C180
006300
007200
001E00
001C00
000C00
000C00
000C00
000C00
000C00
000C00
000C00
001E00
007F80
000000
000000
000000
000000
ENDCHAR

STARTCHAR cns1_245A
ENCODING 9306
SWIDTH 960 0
DWIDTH 24 0
BBX 24 24 0 -2
BITMAP
000000
000000
03FFE0
0380E0
0301C0
020380
020700
000700
000E00
000E00
001C00
003800
007000
00E000
01C000
01C020
038020
070060
0E00E0
0FFFE0
000000
000000
000000
000000
ENDCHAR

STARTCHAR cns1_245B
ENCODING 9307
SWIDTH 960 0
DWIDTH 24 0
BBX 24 24 0 -2
BITMAP
000000
000000
000000
000000
000000
000000
000000
000000
000000
007C00
00E600
00C300
000300
003F00
00E300
018300
018300
018300
018500
00F980
000000
000000
000000
000000
ENDCHAR

STARTCHAR cns1_245C
ENCODING 9308
SWIDTH 960 0
DWIDTH 24 0
BBX 24 24 0 -2
BITMAP
000000
000000
01C000
00C000
00C000
00C000
00C000
00C000
00C000
00C000
00DE00
00E100
00C180
00C180
00C180
00C180
00C180
00C180
00E300
009C00
000000
000000
000000
000000
ENDCHAR

STARTCHAR cns1_245D
ENCODING 9309
SWIDTH 960 0
DWIDTH 24 0
BBX 24 24 0 -2
BITMAP
000000
000000
000000
000000
000000
000000
000000
000000
000000
003C00
006200
00C700
018600
018000
018000
018000
018100
00C100
006200
003C00
000000
000000
000000
000000
ENDCHAR

STARTCHAR cns1_245E
ENCODING 9310
SWIDTH 960 0
DWIDTH 24 0
BBX 24 24 0 -2
BITMAP
000000
000000
000780
000180
000180
000180
000180
000180
000180
003980
007D80
00C380
018180
018180
018180
018180
018180
00C380
006780
0039C0
000000
000000
000000
000000
ENDCHAR

STARTCHAR cns1_245F
ENCODING 9311
SWIDTH 960 0
DWIDTH 24 0
BBX 24 24 0 -2
BITMAP
000000
000000
000000
000000
000000
000000
000000
000000
000000
003C00
004200
00C100
018180
01FF80
018000
018000
018000
00C080
006100
003E00
000000
000000
000000
000000
ENDCHAR

STARTCHAR cns1_2460
ENCODING 9312
SWIDTH 960 0
DWIDTH 24 0
BBX 24 24 0 -2
BITMAP
000000
000000
000C00
001E00
003600
003000
003000
003000
003000
003000
00FE00
003000
003000
003000
003000
003000
003000
003000
003000
00FE00
000000
000000
000000
000000
ENDCHAR

STARTCHAR cns1_2461
ENCODING 9313
SWIDTH 960 0
DWIDTH 24 0
BBX 24 24 0 -2
BITMAP
000000
000000
000000
000000
000000
000000
000000
000000
003CC0
00E7C0
018100
018180
018180
00C300
006E00
00F800
018000
00FC00
00FF00
018380
018080
01C180
00FF00
000000
ENDCHAR

STARTCHAR cns1_2462
ENCODING 9314
SWIDTH 960 0
DWIDTH 24 0
BBX 24 24 0 -2
BITMAP
000000
000000
018000
00C000
00C000
00C000
00C000
00C000
00C000
00C000
00DE00
00E300
00C180
00C180
00C180
00C180
00C180
00C180
00C180
01E3C0
000000
000000
000000
000000
ENDCHAR

STARTCHAR cns1_2463
ENCODING 9315
SWIDTH 960 0
DWIDTH 24 0
BBX 24 24 0 -2
BITMAP
000000
000000
000000
001000
003800
001000
000000
000000
000000
003800
001800
001800
001800
001800
001800
001800
001800
001800
001800
003C00
000000
000000
000000
000000
ENDCHAR

STARTCHAR cns1_2464
ENCODING 9316
SWIDTH 960 0
DWIDTH 24 0
BBX 24 24 0 -2
BITMAP
000000
000000
000000
001000
003800
001000
000000
000000
000000
000000
003800
001800
001800
001800
001800
001800
001800
001800
001800
011800
039800
019800
00F000
000000
ENDCHAR

STARTCHAR cns1_2465
ENCODING 9317
SWIDTH 960 0
DWIDTH 24 0
BBX 24 24 0 -2
BITMAP
000000
000000
00C000
01C000
00C000
00C000
00C000
00C000
00C000
00C000
00C780
00C600
00C800
00D000
00F800
00CC00
00C600
00C300
00C180
01F3C0
000000
000000
000000
000000
ENDCHAR

STARTCHAR cns1_2466
ENCODING 9318
SWIDTH 960 0
DWIDTH 24 0
BBX 24 24 0 -2
BITMAP
000000
000000
003800
001800
001800
001800
001800
001800
001800
001800
001800
001800
001800
001800
001800
001800
001800
001800
001800
003C00
000000
000000
000000
000000
ENDCHAR

STARTCHAR cns1_2467
ENCODING 9319
SWIDTH 960 0
DWIDTH 24 0
BBX 24 24 0 -2
BITMAP
000000
000000
000000
000000
000000
000000
000000
000000
000000
0E6180
06F7C0
0738E0
061860
061860
061860
061860
061860
061860
061860
061860
0F3CF0
000000
000000
000000
ENDCHAR

STARTCHAR cns1_2468
ENCODING 9320
SWIDTH 960 0
DWIDTH 24 0
BBX 24 24 0 -2
BITMAP
000000
000000
000000
000000
000000
000000
000000
000000
000000
000C00
019E00
00A300
00C300
00C300
00C300
00C300
00C300
00C300
00C300
00C300
01E780
000000
000000
000000
ENDCHAR

STARTCHAR cns1_2469
ENCODING 9321
SWIDTH 960 0
DWIDTH 24 0
BBX 24 24 0 -2
BITMAP
000000
000000
000000
000000
000000
000000
000000
000000
000000
003800
006400
00C200
018300
018300
018300
018300
018300
018300
00C600
007C00
000000
000000
000000
000000
ENDCHAR

STARTCHAR cns1_246A
ENCODING 9322
SWIDTH 960 0
DWIDTH 24 0
BBX 24 24 0 -2
BITMAP
000000
000000
000000
000000
000000
000000
000000
000000
000000
019E00
00A300
00C180
00C180
00C180
00C180
00C180
00C100
00E300
00DE00
00C000
00C000
00C000
01E000
000000
ENDCHAR

STARTCHAR cns1_246B
ENCODING 9323
SWIDTH 960 0
DWIDTH 24 0
BBX 24 24 0 -2
BITMAP
000000
000000
000000
000000
000000
000000
000000
003800
006580
00C700
018300
018300
018300
018300
018300
018300
018300
00C700
003B00
000300
000300
000300
000F80
000000
ENDCHAR

STARTCHAR cns1_246C
ENCODING 9324
SWIDTH 960 0
DWIDTH 24 0
BBX 24 24 0 -2
BITMAP
000000
000000
000000
000000
000000
000000
000000
000000
000000
01CE00
005700
006700
006600
006000
006000
006000
006000
006000
006000
01F800
000000
000000
000000
000000
ENDCHAR

STARTCHAR cns1_246D
ENCODING 9325
SWIDTH 960 0
DWIDTH 24 0
BBX 24 24 0 -2
BITMAP
000000
000000
000000
000000
000000
000000
000000
000000
000000
003800
006600
00C200
00C200
007000
001C00
000E00
008300
00C300
00E700
00BE00
000000
000000
000000
000000
ENDCHAR

STARTCHAR cns1_246E
ENCODING 9326
SWIDTH 960 0
DWIDTH 24 0
BBX 24 24 0 -2
BITMAP
000000
000000
000000
000000
000000
001000
001000
003000
003000
00FE00
003000
003000
003000
003000
003000
003000
003000
003200
003C00
001800
000000
000000
000000
000000
ENDCHAR

STARTCHAR cns1_246F
ENCODING 9327
SWIDTH 960 0
DWIDTH 24 0
BBX 24 24 0 -2
BITMAP
000000
000000
000000
000000
000000
000000
000000
000000
000000
03CF00
01C700
00C300
00C300
00C300
00C300
00C300
00C300
00C300
006700
003B80
000000
000000
000000
000000
ENDCHAR

STARTCHAR cns1_2470
ENCODING 9328
SWIDTH 960 0
DWIDTH 24 0
BBX 24 24 0 -2
BITMAP
000000
000000
000000
000000
000000
000000
000000
000000
000000
000000
03C780
018300
00C200
00C200
006400
006400
003400
003800
001800
001800
000000
000000
000000
000000
ENDCHAR

STARTCHAR cns1_2471
ENCODING 9329
SWIDTH 960 0
DWIDTH 24 0
BBX 24 24 0 -2
BITMAP
000000
000000
000000
000000
000000
000000
000000
000000
000000
000000
0FBEF0
031C60
031C40
031C40
01A680
01A680
01A680
00C300
00C300
00C300
000000
000000
000000
000000
ENDCHAR

STARTCHAR cns1_2472
ENCODING 9330
SWIDTH 960 0
DWIDTH 24 0
BBX 24 24 0 -2
BITMAP
000000
000000
000000
000000
000000
000000
000000
000000
000000
000000
03E7C0
00C300
006400
002800
001800
001400
002600
004300
00C380
03E7C0
000000
000000
000000
000000
ENDCHAR

STARTCHAR cns1_2473
ENCODING 9331
SWIDTH 960 0
DWIDTH 24 0
BBX 24 24 0 -2
BITMAP
000000
000000
000000
000000
000000
000000
000000
000000
000000
000000
01E3C0
00C180
006100
003100
003200
001A00
000C00
000C00
000800
000800
001000
01B000
01E000
000000
ENDCHAR

STARTCHAR cns1_2474
ENCODING 9332
SWIDTH 960 0
DWIDTH 24 0
BBX 24 24 0 -2
BITMAP
000000
000000
000000
000000
000000
000000
000000
000000
000000
000000
01FF00
018700
010E00
001800
003800
003000
006100
00E100
01C300
01FF00
000000
000000
000000
000000
ENDCHAR

STARTCHAR cns1_2475
ENCODING 9333
SWIDTH 960 0
DWIDTH 24 0
BBX 24 24 0 -2
BITMAP
000000
000000
001800
003C00
002C00
006600
004600
004600
00C300
008300
018180
010180
010180
0300C0
03FFC0
0600E0
040060
040060
0C0030
080030
080030
3E00FC
000000
000000
ENDCHAR

STARTCHAR cns1_2476
ENCODING 9334
SWIDTH 960 0
DWIDTH 24 0
BBX 24 24 0 -2
BITMAP
000000
000000
0FFE00
030380
0300C0
030060
030060
030060
030060
0300C0
030180
03FF00
0301C0
030060
030030
030018
030018
030018
030018
030030
0300E0
0FFF80
000000
000000
ENDCHAR

STARTCHAR cns1_2477
ENCODING 9335
SWIDTH 960 0
DWIDTH 24 0
BBX 24 24 0 -2
BITMAP
000000
000000
0FFFF0
030070
030030
030010
030010
030000
030000
030000
030000
030000
030000
030000
030000
030000
030000
030000
030000
030000
030000
0FC000
000000
000000
ENDCHAR

STARTCHAR cns1_2478
ENCODING 9336
SWIDTH 960 0
DWIDTH 24 0
BBX 24 24 0 -2
BITMAP
000000
000000
001800
003C00
002C00
006E00
004600
00C700
008300
018380
010180
0301C0
0200C0
0600E0
040060
0C0070
080030
180038
100018
30001C
3FFFFC
3FFFFC
000000
000000
ENDCHAR

STARTCHAR cns1_2479
ENCODING 9337
SWIDTH 960 0
DWIDTH 24 0
BBX 24 24 0 -2
BITMAP
000000
000000
0FFFE0
0300E0
030060
030020
030020
030000
030200
030200
030600
03FE00
030600
030200
030200
030000
030000
030020
030020
030060
0300E0
0FFFE0
000000
000000
ENDCHAR

STARTCHAR cns1_247A
ENCODING 9338
SWIDTH 960 0
DWIDTH 24 0
BBX 24 24 0 -2
BITMAP
000000
000000
0FFFF0
0E0070
0C00E0
0800C0
0801C0
000380
000700
000600
000E00
001C00
003800
007000
00E000
01C000
018000
030008
070008
0E0018
1C0038
1FFFF8
000000
000000
ENDCHAR

STARTCHAR cns1_247B
ENCODING 9339
SWIDTH 960 0
DWIDTH 24 0
BBX 24 24 0 -2
BITMAP
000000
000000
1F81F8
060060
060060
060060
060060
060060
060060
060060
060060
07FFE0
060060
060060
060060
060060
060060
060060
060060
060060
060060
1F81F8
000000
000000
ENDCHAR

STARTCHAR cns1_247C
ENCODING 9340
SWIDTH 960 0
DWIDTH 24 0
BBX 24 24 0 -2
BITMAP
000000
000000
00FE00
038380
0600C0
0C0060
0C0060
0C0060
1C0070
180030
188230
18FE30
18FE30
188230
180030
1C0070
0C0060
0C0060
0C0060
0600C0
038380
00FE00
000000
000000
ENDCHAR

STARTCHAR cns1_247D
ENCODING 9341
SWIDTH 960 0
DWIDTH 24 0
BBX 24 24 0 -2
BITMAP
000000
000000
00FF00
001800
001800
001800
001800
001800
001800
001800
001800
001800
001800
001800
001800
001800
001800
001800
001800
001800
001800
00FF00
000000
000000
ENDCHAR

STARTCHAR cns1_247E
ENCODING 9342
SWIDTH 960 0
DWIDTH 24 0
BBX 24 24 0 -2
BITMAP
000000
000000
1F83F0
0600C0
060180
060300
060600
060C00
061800
063000
067000
06F800
079800
070C00
060600
060600
060300
060180
060180
0600C0
0600E0
1F83F8
000000
000000
ENDCHAR

STARTCHAR cns1_2521
ENCODING 9505
SWIDTH 960 0
DWIDTH 24 0
BBX 24 24 0 -2
BITMAP
000000
000000
001800
003C00
003C00
006600
004600
004600
00C300
008300
018180
010180
010180
0300C0
0200C0
060060
040060
040060
0C0030
080030
080030
3E00FC
000000
000000
ENDCHAR

STARTCHAR cns1_2522
ENCODING 9506
SWIDTH 960 0
DWIDTH 24 0
BBX 24 24 0 -2
BITMAP
000000
000000
7C003E
1E0038
160058
130058
1300D8
118098
118098
118198
10C118
10C118
10C318
106218
106218
106618
103418
103C18
101818
101818
100018
7C007E
000000
000000
ENDCHAR

STARTCHAR cns1_2523
ENCODING 9507
SWIDTH 960 0
DWIDTH 24 0
BBX 24 24 0 -2
BITMAP
000000
000000
1F00F8
078020
058020
05C020
04E020
046020
047020
043020
041820
041C20
040E20
040620
040720
040320
0401A0
0401E0
0400E0
040060
040060
1F0020
000000
000000
ENDCHAR

STARTCHAR cns1_2524
ENCODING 9508
SWIDTH 960 0
DWIDTH 24 0
BBX 24 24 0 -2
BITMAP
000000
000000
03FFF8
07FFF0
040010
080020
000000
000000
000000
010020
01FFE0
03FFC0
020040
000000
000000
000000
000000
000000
040008
080010
0FFFF0
1FFFE0
000000
000000
ENDCHAR

STARTCHAR cns1_2525
ENCODING 9509
SWIDTH 960 0
DWIDTH 24 0
BBX 24 24 0 -2
BITMAP
000000
000000
00FF00
0381C0
060060
0C0030
0C0030
0C0030
1C0038
180018
180018
180018
180018
180018
180018
1C0038
0C0030
0C0030
0C0030
060060
0381C0
00FF00
000000
000000
ENDCHAR

STARTCHAR cns1_2526
ENCODING 9510
SWIDTH 960 0
DWIDTH 24 0
BBX 24 24 0 -2
BITMAP
000000
000000
1FFFF8
060060
060060
060060
060060
060060
060060
060060
060060
060060
060060
060060
060060
060060
060060
060060
060060
060060
060060
1F81F8
000000
000000
ENDCHAR

STARTCHAR cns1_2527
ENCODING 9511
SWIDTH 960 0
DWIDTH 24 0
BBX 24 24 0 -2
BITMAP
000000
000000
0FFF00
0301C0
030060
030030
030030
030030
030030
030030
030060
0301C0
03FF00
030000
030000
030000
030000
030000
030000
030000
030000
0FC000
000000
000000
ENDCHAR

STARTCHAR cns1_2528
ENCODING 9512
SWIDTH 960 0
DWIDTH 24 0
BBX 24 24 0 -2
BITMAP
000000
000000
07FFF0
070030
038018
018008
01C000
00E000
007000
003800
001C00
000E00
000C00
001800
003000
006000
00C000
018008
018008
030018
07FFF0
0FFFF0
000000
000000
ENDCHAR

STARTCHAR cns1_2529
ENCODING 9513
SWIDTH 960 0
DWIDTH 24 0
BBX 24 24 0 -2
BITMAP
000000
000000
0FFFF0
0E1870
0C1830
081810
081810
001800
001800
001800
001800
001800
001800
001800
001800
001800
001800
001800
001800
001800
001800
007E00
000000
000000
ENDCHAR

STARTCHAR cns1_252A
ENCODING 9514
SWIDTH 960 0
DWIDTH 24 0
BBX 24 24 0 -2
BITMAP
000000
000000
03C3C0
07E7E0
0C3C30
181818
101808
101808
001800
001800
001800
001800
001800
001800
001800
001800
001800
001800
001800
001800
001800
007E00
000000
000000
ENDCHAR

STARTCHAR cns1_252B
ENCODING 9515
SWIDTH 960 0
DWIDTH 24 0
BBX 24 24 0 -2
BITMAP
000000
000000
007E00
001800
001800
00FF00
0799E0
0C1830
181818
181818
30180C
30180C
30180C
30180C
181818
181818
0C1830
0799E0
00FF00
001800
001800
007E00
000000
000000
ENDCHAR

STARTCHAR cns1_252C
ENCODING 9516
SWIDTH 960 0
DWIDTH 24 0
BBX 24 24 0 -2
BITMAP
000000
000000
1F80FC
070030
030020
038060
01C0C0
00C180
00E100
007300
003600
003C00
001800
003C00
006E00
00C700
018380
030180
0601C0
0C00E0
0C0070
3F01FC
000000
000000
ENDCHAR

STARTCHAR cns1_252D
ENCODING 9517
SWIDTH 960 0
DWIDTH 24 0
BBX 24 24 0 -2
BITMAP
000000
000000
1C3C38
3E187C
6318C6
0318C0
0318C0
0318C0
0318C0
019980
019980
019980
019980
00DB00
00DB00
00DB00
007E00
001800
001800
001800
001800
007E00
000000
000000
ENDCHAR

STARTCHAR cns1_252E
ENCODING 9518
SWIDTH 960 0
DWIDTH 24 0
BBX 24 24 0 -2
BITMAP
000000
000000
007E00
01C380
0300C0
0300C0
0700E0
060060
0E0070
0E0070
0E0070
060060
0700E0
0300C0
0300C0
018180
00C300
002400
082410
082410
0FE7F0
0FE7F0
000000
000000
ENDCHAR

STARTCHAR cns1_252F
ENCODING 9519
SWIDTH 960 0
DWIDTH 24 0
BBX 24 24 0 -2
BITMAP
000000
000000
000000
000000
000000
000000
000000
000000
000000
003C30
00E660
018360
030140
0301C0
060180
060180
060180
060380
060280
0306C0
030CC0
01F870
000000
000000
ENDCHAR

STARTCHAR cns1_2530
ENCODING 9520
SWIDTH 960 0
DWIDTH 24 0
BBX 24 24 0 -2
BITMAP
000000
000000
000F80
0018C0
003060
006060
006030
00C060
00C060
018EC0
018F80
018180
0300C0
0300C0
030060
060060
0600C0
0700C0
0FC180
0C7F00
0C0000
180000
180000
000000
ENDCHAR

STARTCHAR cns1_2531
ENCODING 9521
SWIDTH 960 0
DWIDTH 24 0
BBX 24 24 0 -2
BITMAP
000000
000000
000000
000000
000000
000000
000000
000000
000000
01E180
03F180
061300
041B00
040E00
000E00
000C00
000C00
001800
001800
003000
003000
006000
000000
000000
ENDCHAR

STARTCHAR cns1_2532
ENCODING 9522
SWIDTH 960 0
DWIDTH 24 0
BBX 24 24 0 -2
BITMAP
000000
000000
003E00
006180
0060C0
003060
001860
000E00
000300
003F00
006180
00C180
0180C0
0180C0
0300C0
0300C0
0300C0
030180
030180
018300
018600
00FC00
000000
000000
ENDCHAR

STARTCHAR cns1_2533
ENCODING 9523
SWIDTH 960 0
DWIDTH 24 0
BBX 24 24 0 -2
BITMAP
000000
000000
000000
000000
000000
000000
000000
000000
000000
007F00
00C1C0
018040
018000
018000
00FE00
019C00
030000
030000
030040
01C0C0
00FF80
003E00
000000
000000
ENDCHAR

STARTCHAR cns1_2534
ENCODING 9524
SWIDTH 960 0
DWIDTH 24 0
BBX 24 24 0 -2
BITMAP
000000
000000
003000
00C000
018300
018700
00EE00
003800
002000
004000
00C000
008000
018000
018000
030000
030000
030000
01F000
00FC00
000E00
000300
018300
00FE00
000000
ENDCHAR

STARTCHAR cns1_2535
ENCODING 9525
SWIDTH 960 0
DWIDTH 24 0
BBX 24 24 0 -2
BITMAP
000000
000000
000000
000000
000000
000000
000000
000000
038F00
04B980
00E0C0
00C0C0
00C0C0
0180C0
018180
018180
018180
030180
030180
030300
030300
000300
000300
000000
ENDCHAR

STARTCHAR cns1_2536
ENCODING 9526
SWIDTH 960 0
DWIDTH 24 0
BBX 24 24 0 -2
BITMAP
000000
000000
001E00
007380
00C180
0181C0
0180C0
0300C0
0300C0
0300C0
0300C0
07FFC0
0601C0
060180
060180
060180
060180
060300
070300
030600
039C00
00F000
000000
000000
ENDCHAR

STARTCHAR cns1_2537
ENCODING 9527
SWIDTH 960 0
DWIDTH 24 0
BBX 24 24 0 -2
BITMAP
000000
000000
000000
000000
000000
000000
000000
000000
000000
001800
003800
003000
006000
006000
00C000
00C000
00C000
018000
018200
018200
01FC00
00F000
000000
000000
ENDCHAR

STARTCHAR cns1_2538
ENCODING 9528
SWIDTH 960 0
DWIDTH 24 0
BBX 24 24 0 -2
BITMAP
000000
000000
000000
000000
000000
000000
000000
000000
000000
03C180
04C380
00C600
018C00
019800
01B800
036800
034C00
03CC00
038C20
070C20
0607C0
060380
000000
000000
ENDCHAR

STARTCHAR cns1_2539
ENCODING 9529
SWIDTH 960 0
DWIDTH 24 0
BBX 24 24 0 -2
BITMAP
000000
000000
006000
007000
001800
001800
000800
000C00
000400
000400
000C00
001400
003400
002600
006600
004200
00C300
00C300
018180
018180
0380F0
030070
000000
000000
ENDCHAR

STARTCHAR cns1_253A
ENCODING 9530
SWIDTH 960 0
DWIDTH 24 0
BBX 24 24 0 -2
BITMAP
000000
000000
000000
000000
000000
000000
000000
000000
004040
00C0C0
00C0C0
00C0C0
01C1C0
018180
018180
018300
030300
030300
038320
02CFA0
0678C0
060000
060000
000000
ENDCHAR

STARTCHAR cns1_253B
ENCODING 9531
SWIDTH 960 0
DWIDTH 24 0
BBX 24 24 0 -2
BITMAP
000000
000000
000000
000000
000000
000000
000000
000000
000000
018040
01C040
00C040
00E0C0
006080
006080
006180
004100
004300
00C600
009C00
00F800
01E000
000000
000000
ENDCHAR

STARTCHAR cns1_253C
ENCODING 9532
SWIDTH 960 0
DWIDTH 24 0
BBX 24 24 0 -2
BITMAP
000000
000E00
001000
003000
003FC0
006380
00C000
00C000
00C000
007000
003FC0
004380
00C000
018000
018000
030000
038000
01F000
007E00
000F00
000180
006180
007F00
000000
ENDCHAR

STARTCHAR cns1_253D
ENCODING 9533
SWIDTH 960 0
DWIDTH 24 0
BBX 24 24 0 -2
BITMAP
000000
000000
000000
000000
000000
000000
000000
000000
000000
003F00
006180
00C180
0180C0
0180C0
0300C0
0300C0
0300C0
030180
030180
018300
018600
00FC00
000000
000000
ENDCHAR

STARTCHAR cns1_253E
ENCODING 9534
SWIDTH 960 0
DWIDTH 24 0
BBX 24 24 0 -2
BITMAP
000000
000000
000000
000000
000000
000000
000000
000000
000020
01FFC0
03FF80
044300
004300
00C300
008600
008600
018600
018C00
038C00
030C40
070F80
060700
000000
000000
ENDCHAR

STARTCHAR cns1_253F
ENCODING 9535
SWIDTH 960 0
DWIDTH 24 0
BBX 24 24 0 -2
BITMAP
000000
000000
000000
000000
000000
000000
000000
000000
003F00
006180
00C1C0
00C0C0
0180C0
0180C0
0180C0
0380C0
038180
03C180
034300
067E00
060000
060000
060000
000000
ENDCHAR

STARTCHAR cns1_2540
ENCODING 9536
SWIDTH 960 0
DWIDTH 24 0
BBX 24 24 0 -2
BITMAP
000000
000000
000000
000000
000000
000000
000000
000000
000008
007EF8
00C370
018100
030180
030180
060180
060180
060180
060300
060300
030600
030C00
01F800
000000
000000
ENDCHAR

STARTCHAR cns1_2541
ENCODING 9537
SWIDTH 960 0
DWIDTH 24 0
BBX 24 24 0 -2
BITMAP
000000
000000
000000
000000
000000
000000
000000
000000
000080
01FF00
03FE00
043000
007000
006000
00E000
00C000
00C000
018000
018200
018200
01FC00
00F000
000000
000000
ENDCHAR

STARTCHAR cns1_2542
ENCODING 9538
SWIDTH 960 0
DWIDTH 24 0
BBX 24 24 0 -2
BITMAP
000000
000000
000000
000000
000000
000000
000000
000000
000000
018180
01C080
00C0C0
00C0C0
00C0C0
0080C0
0181C0
010180
010180
010100
018300
00C600
007C00
000000
000000
ENDCHAR

STARTCHAR cns1_2543
ENCODING 9539
SWIDTH 960 0
DWIDTH 24 0
BBX 24 24 0 -2
BITMAP
000000
000300
000300
000600
000600
000600
000C00
003F00
00ED80
018CC0
030CC0
030860
061860
061860
0618C0
0310C0
033180
01B700
00FC00
006000
006000
00C000
00C000
000000
ENDCHAR

STARTCHAR cns1_2544
ENCODING 9540
SWIDTH 960 0
DWIDTH 24 0
BBX 24 24 0 -2
BITMAP
000000
000000
000000
000000
000000
000000
000000
000000
00C060
01E0E0
0220C0
003180
001100
001900
000A00
000C00
001400
006400
00C400
018600
030610
0703E0
0601C0
000000
ENDCHAR

STARTCHAR cns1_2545
ENCODING 9541
SWIDTH 960 0
DWIDTH 24 0
BBX 24 24 0 -2
BITMAP
000000
000300
000300
000700
000600
000600
000600
000400
00CC40
018CE0
030C60
030860
061860
061860
0618C0
0610C0
033180
033180
01B300
00FE00
006000
00E000
00C000
000000
ENDCHAR

STARTCHAR cns1_2546
ENCODING 9542
SWIDTH 960 0
DWIDTH 24 0
BBX 24 24 0 -2
BITMAP
000000
000000
000000
000000
000000
000000
000000
000000
000000
00E020
018010
030010
060418
060C18
0C0C18
0C1C18
0C1818
0C1830
060830
061860
0334C0
01E700
000000
000000
ENDCHAR

STARTCHAR cns1_2547
ENCODING 9543
SWIDTH 960 0
DWIDTH 24 0
BBX 24 24 0 -2
BITMAP
000000
000000
00C000
00E000
00C000
018000
018000
030020
07FFF0
060070
000060
000060
000060
000060
0000C0
0000C0
0000C0
000180
000F80
000300
000000
000000
000000
000000
ENDCHAR

STARTCHAR cns1_2548
ENCODING 9544
SWIDTH 960 0
DWIDTH 24 0
BBX 24 24 0 -2
BITMAP
000000
000000
00C000
00C000
018000
018000
030040
0FFFE0
0400C0
020180
010180
008300
00C600
006C00
003800
006C00
00C700
0183C0
0600F8
180030
000000
000000
000000
000000
ENDCHAR

STARTCHAR cns1_2549
ENCODING 9545
SWIDTH 960 0
DWIDTH 24 0
BBX 24 24 0 -2
BITMAP
000000
000000
040020
07FFF0
060070
060060
060060
060060
060060
060060
060060
060060
060060
060060
060060
060060
060060
060060
060060
060060
000000
000000
000000
000000
ENDCHAR

STARTCHAR cns1_254A
ENCODING 9546
SWIDTH 960 0
DWIDTH 24 0
BBX 24 24 0 -2
BITMAP
000000
000000
000060
0FFFF0
060000
060000
060000
060000
060000
060000
060000
060000
060000
060000
060000
060000
060000
07FFF0
03FFE0
000000
000000
000000
000000
000000
ENDCHAR

STARTCHAR cns1_254B
ENCODING 9547
SWIDTH 960 0
DWIDTH 24 0
BBX 24 24 0 -2
BITMAP
000000
000000
01C000
018000
030000
030000
060020
0FFFF0
0C3070
003060
003060
003060
003060
006060
006060
00C060
00C060
0180C0
0307C0
0C0180
000000
000000
000000
000000
ENDCHAR

STARTCHAR cns1_254C
ENCODING 9548
SWIDTH 960 0
DWIDTH 24 0
BBX 24 24 0 -2
BITMAP
000000
000000
001800
001C00
001800
001800
001820
0FFFF0
003000
003000
003000
002000
006000
006000
00C100
00C0C0
018060
0183E0
07FC30
038030
000000
000000
000000
000000
ENDCHAR

STARTCHAR cns1_254D
ENCODING 9549
SWIDTH 960 0
DWIDTH 24 0
BBX 24 24 0 -2
BITMAP
000000
000000
000080
07FFC0
0001C0
000300
000600
000C00
001820
003FF0
003070
000060
000060
000060
000060
000060
0000C0
0000C0
000F80
000300
000000
000000
000000
000000
ENDCHAR

STARTCHAR cns1_254E
ENCODING 9550
SWIDTH 960 0
DWIDTH 24 0
BBX 24 24 0 -2
BITMAP
000000
000000
039C00
031800
031800
061800
061820
0FFFF0
0C1870
003060
003060
003060
003060
006060
006060
00C060
00C060
0180C0
0307C0
0C0180
000000
000000
000000
000000
ENDCHAR

STARTCHAR cns1_254F
ENCODING 9551
SWIDTH 960 0
DWIDTH 24 0
BBX 24 24 0 -2
BITMAP
000000
000000
000000
00C0C0
00E0E0
00C0C0
018180
018180
030300
060600
0C0C00
060600
030300
018180
018180
00C0C0
00C0C0
006060
006060
000000
000000
000000
000000
000000
ENDCHAR

STARTCHAR cns1_2550
ENCODING 9552
SWIDTH 960 0
DWIDTH 24 0
BBX 24 24 0 -2
BITMAP
000000
000000
000060
0FFFF0
001800
001800
003000
006000
006000
00C020
01FFF0
018070
000060
000060
0000C0
0000C0
000180
000380
001F00
000600
000000
000000
000000
000000
ENDCHAR

STARTCHAR cns1_2551
ENCODING 9553
SWIDTH 960 0
DWIDTH 24 0
BBX 24 24 0 -2
BITMAP
000000
000000
020060
03FFF0
030000
030000
030000
030000
030000
030000
030000
030000
030000
020000
060000
060000
040000
080000
100000
000000
000000
000000
000000
000000
ENDCHAR

STARTCHAR cns1_2552
ENCODING 9554
SWIDTH 960 0
DWIDTH 24 0
BBX 24 24 0 -2
BITMAP
000000
000000
000070
038060
030060
030060
030060
030060
030060
030060
030060
030060
031FE0
07F860
038060
000060
000060
000060
000060
000060
000000
000000
000000
000000
ENDCHAR

STARTCHAR cns1_2553
ENCODING 9555
SWIDTH 960 0
DWIDTH 24 0
BBX 24 24 0 -2
BITMAP
000000
000000
000000
000300
000380
000600
000C00
001800
003000
006000
00C000
01C000
00C000
006000
003000
001800
000C00
000600
000300
000180
000000
000000
000000
000000
ENDCHAR

STARTCHAR cns1_2554
ENCODING 9556
SWIDTH 960 0
DWIDTH 24 0
BBX 24 24 0 -2
BITMAP
000000
000000
000060
0FFFF0
001800
001800
001800
001800
001800
001800
001800
001800
001800
001800
001800
001800
001800
001800
001800
000000
000000
000000
000000
000000
ENDCHAR

STARTCHAR cns1_2555
ENCODING 9557
SWIDTH 960 0
DWIDTH 24 0
BBX 24 24 0 -2
BITMAP
000000
000000
001C00
001800
071870
061860
061860
061860
061860
061860
061860
07FFE0
061860
001800
001800
001800
001800
001860
0FFFF0
000000
000000
000000
000000
000000
ENDCHAR

STARTCHAR cns1_2556
ENCODING 9558
SWIDTH 960 0
DWIDTH 24 0
BBX 24 24 0 -2
BITMAP
000000
000000
000200
000700
001C00
007000
038040
0001E0
000380
000E00
003800
00F800
039800
0C1800
001800
001800
001800
001800
001800
001800
000000
000000
000000
000000
ENDCHAR

STARTCHAR cns1_2557
ENCODING 9559
SWIDTH 960 0
DWIDTH 24 0
BBX 24 24 0 -2
BITMAP
000000
000000
000020
07FFF0
000070
000060
000060
000060
000060
010060
01FFE0
018060
018000
018000
018000
030000
030000
060000
040000
080000
000000
000000
000000
000000
ENDCHAR

STARTCHAR cns1_2558
ENCODING 9560
SWIDTH 960 0
DWIDTH 24 0
BBX 24 24 0 -2
BITMAP
000000
000000
040020
07FFF0
060070
060060
060060
060060
064060
063060
061860
061C60
060C60
060060
060060
060060
060060
060060
07FFE0
060060
000000
000000
000000
000000
ENDCHAR

STARTCHAR cns1_2559
ENCODING 9561
SWIDTH 960 0
DWIDTH 24 0
BBX 24 24 0 -2
BITMAP
000000
000000
000020
0FFFF0
006070
006060
006060
006060
006060
006060
006060
006060
0063E0
0060C0
006000
006000
006000
006000
006000
006000
000000
000000
000000
000000
ENDCHAR

STARTCHAR cns1_255A
ENCODING 9562
SWIDTH 960 0
DWIDTH 24 0
BBX 24 24 0 -2
BITMAP
000000
000000
001C00
001800
001800
003000
003020
0FFFF0
003000
006000
006000
00C040
01FFE0
008060
0000C0
0000C0
000180
000180
000300
000600
000000
000000
000000
000000
ENDCHAR

STARTCHAR cns1_255B
ENCODING 9563
SWIDTH 960 0
DWIDTH 24 0
BBX 24 24 0 -2
BITMAP
000000
000000
001800
001C00
001800
003000
003000
006000
006000
006000
00C000
00C000
018000
018080
030040
030060
070FE0
0FF830
070030
000000
000000
000000
000000
000000
ENDCHAR

STARTCHAR cns1_255C
ENCODING 9564
SWIDTH 960 0
DWIDTH 24 0
BBX 24 24 0 -2
BITMAP
000000
000000
0C0030
0C0030
060060
0300C0
018180
00C300
006600
003C00
001800
001800
001800
001800
001800
001800
001800
001800
001800
001800
000000
000000
000000
000000
ENDCHAR

STARTCHAR cns1_255D
ENCODING 9565
SWIDTH 960 0
DWIDTH 24 0
BBX 24 24 0 -2
BITMAP
000000
000000
000020
0FFFF0
001800
001800
001800
001800
001800
007800
01F800
030000
060000
060000
060000
060030
030060
0180C0
00FF80
003E00
000000
000000
000000
000000
ENDCHAR

STARTCHAR cns1_255E
ENCODING 9566
SWIDTH 960 0
DWIDTH 24 0
BBX 24 24 0 -2
BITMAP
000000
000000
001C00
001800
001800
001860
0FFFF0
001800
001800
001800
01F800
07F800
0E0800
0C0000
0C0000
0C0000
0C0030
0600E0
03FFC0
00FF00
000000
000000
000000
000000
ENDCHAR

STARTCHAR cns1_255F
ENCODING 9567
SWIDTH 960 0
DWIDTH 24 0
BBX 24 24 0 -2
BITMAP
000000
000000
01C700
018600
018600
018600
018660
1FFFF0
018600
018600
018600
018600
018600
018000
018000
018000
018000
01FFF0
00FFE0
000000
000000
000000
000000
000000
ENDCHAR

STARTCHAR cns1_2560
ENCODING 9568
SWIDTH 960 0
DWIDTH 24 0
BBX 24 24 0 -2
BITMAP
000000
000000
000060
0FFFF0
030C00
030C00
030C00
061820
07FFF0
061870
003060
003060
003060
0060C0
0060C0
00C180
018180
030300
060600
000000
000000
000000
000000
000000
ENDCHAR

STARTCHAR cns1_2561
ENCODING 9569
SWIDTH 960 0
DWIDTH 24 0
BBX 24 24 0 -2
BITMAP
000000
000000
000800
001C00
003E00
006600
01C600
0F0300
000300
000300
000180
000180
000180
0000C0
0000C0
000060
000060
000030
000030
000018
000000
000000
000000
000000
ENDCHAR

STARTCHAR cns1_2562
ENCODING 9570
SWIDTH 960 0
DWIDTH 24 0
BBX 24 24 0 -2
BITMAP
000000
000000
001800
003800
003000
006040
00C0E0
0980C0
070180
030300
018600
00CC00
007800
003000
006080
00C040
018060
0307E0
0FF830
038030
000000
000000
000000
000000
ENDCHAR

STARTCHAR cns1_2563
ENCODING 9571
SWIDTH 960 0
DWIDTH 24 0
BBX 24 24 0 -2
BITMAP
000000
000000
000040
0FFFE0
0000E0
0000C0
010180
018180
00C180
00C300
006300
003600
001E00
001C00
001E00
003300
006180
00C0C0
0180E0
060060
000000
000000
000000
000000
ENDCHAR

STARTCHAR cns1_2564
ENCODING 9572
SWIDTH 960 0
DWIDTH 24 0
BBX 24 24 0 -2
BITMAP
000000
000000
000080
0FFFC0
0181C0
018180
018180
030300
030320
07FFF0
000070
000060
000060
0000C0
0000C0
000180
000180
000300
000600
000C00
000000
000000
000000
000000
ENDCHAR

STARTCHAR cns1_2565
ENCODING 9573
SWIDTH 960 0
DWIDTH 24 0
BBX 24 24 0 -2
BITMAP
000000
000000
007000
006000
006000
00C000
00C000
018000
018000
030020
060FF0
0FF870
070060
000060
0000C0
0000C0
000180
000180
000300
000600
000000
000000
000000
000000
ENDCHAR

STARTCHAR cns1_2566
ENCODING 9574
SWIDTH 960 0
DWIDTH 24 0
BBX 24 24 0 -2
BITMAP
000000
000000
001C00
001800
001800
001800
001860
0FFFF0
001C00
001C00
001C00
003600
003600
003600
006600
006600
00C600
018600
0307F0
0C03E0
000000
000000
000000
000000
ENDCHAR

STARTCHAR cns1_2567
ENCODING 9575
SWIDTH 960 0
DWIDTH 24 0
BBX 24 24 0 -2
BITMAP
000000
000000
003000
003800
003000
003000
003000
006000
006000
006000
00C000
00C000
018000
018000
030000
0607E0
0FFFF0
07F800
000000
000000
000000
000000
000000
000000
ENDCHAR

STARTCHAR cns1_2568
ENCODING 9576
SWIDTH 960 0
DWIDTH 24 0
BBX 24 24 0 -2
BITMAP
000000
000000
01C700
018600
018600
018600
018600
018600
018600
018600
018600
018600
018600
030600
030600
030600
060600
060600
0C07F0
1003E0
000000
000000
000000
000000
ENDCHAR

STARTCHAR cns1_2569
ENCODING 9577
SWIDTH 960 0
DWIDTH 24 0
BBX 24 24 0 -2
BITMAP
000000
000000
000000
000000
000000
000000
000000
000000
000000
000060
0FFFF0
0FFFF0
000000
000000
000000
000000
000000
000000
000000
000000
000000
000000
000000
000000
ENDCHAR

STARTCHAR cns1_256A
ENCODING 9578
SWIDTH 960 0
DWIDTH 24 0
BBX 24 24 0 -2
BITMAP
000000
000000
000080
0001C0
000180
0C0180
030300
018300
00C600
006600
003C00
003800
003C00
006600
00C300
018180
0300C0
0600E0
080060
000000
000000
000000
000000
000000
ENDCHAR

STARTCHAR cns1_256B
ENCODING 9579
SWIDTH 960 0
DWIDTH 24 0
BBX 24 24 0 -2
BITMAP
000000
000000
000000
070070
060060
060060
060060
060060
060060
060060
060060
060060
060060
060060
060060
060060
060060
060060
07FFE0
060060
000000
000000
000000
000000
ENDCHAR

STARTCHAR cns1_256C
ENCODING 9580
SWIDTH 960 0
DWIDTH 24 0
BBX 24 24 0 -2
BITMAP
000000
000000
000000
000000
000000
000000
001800
003C00
003C00
001800
000000
000000
000000
000000
000000
000000
000000
000000
000000
000000
000000
000000
000000
000000
ENDCHAR

STARTCHAR cns1_256D
ENCODING 9581
SWIDTH 960 0
DWIDTH 24 0
BBX 24 24 0 -2
BITMAP
000000
000000
000000
000000
000000
000000
000000
000000
000000
000000
000000
000000
000000
000000
000000
000000
000000
000000
000000
000000
000000
000000
000000
000000
ENDCHAR

STARTCHAR cns1_256E
ENCODING 9582
SWIDTH 960 0
DWIDTH 24 0
BBX 24 24 0 -2
BITMAP
000000
000000
000000
000000
000000
000000
000010
000060
0000C0
000180
000700
000E00
001C00
003800
007000
00E000
03C000
078000
070000
000000
000000
000000
000000
000000
ENDCHAR

STARTCHAR cns1_256F
ENCODING 9583
SWIDTH 960 0
DWIDTH 24 0
BBX 24 24 0 -2
BITMAP
000000
000000
000000
000000
000000
000000
000020
000020
000060
0000C0
0000C0
000180
000180
060300
070300
030600
018600
00CC00
007800
003000
000000
000000
000000
000000
ENDCHAR

STARTCHAR cns1_2570
ENCODING 9584
SWIDTH 960 0
DWIDTH 24 0
BBX 24 24 0 -2
BITMAP
000000
000000
000000
000000
000000
000000
000000
018000
01C000
01E000
00F000
007800
001C00
000600
000300
000180
000040
000000
000000
000000
000000
000000
000000
000000
ENDCHAR

STARTCHAR cns1_2621
ENCODING 9761
SWIDTH 960 0
DWIDTH 24 0
BBX 24 24 0 -2
BITMAP
000000
001000
01EF00
0200C0
0C0020
101818
10F808
201804
201802
401802
401802
401802
401802
401802
401802
401802
201804
201804
103C08
18E710
0C0020
0600C0
01C700
003800
ENDCHAR

STARTCHAR cns1_2622
ENCODING 9762
SWIDTH 960 0
DWIDTH 24 0
BBX 24 24 0 -2
BITMAP
000000
001000
01EF00
0200C0
0C0020
107C18
108608
218604
218302
408302
400602
400402
400802
401002
402002
404002
208104
208204
11FE08
180010
0C0020
0600C0
01C700
003800
ENDCHAR

STARTCHAR cns1_2623
ENCODING 9763
SWIDTH 960 0
DWIDTH 24 0
BBX 24 24 0 -2
BITMAP
000000
001000
01EF00
0200C0
0C0020
107C18
10C608
208604
208602
400602
400C02
403802
400C02
400602
400202
400302
218304
218204
10C408
187810
0C0020
0600C0
01C700
003800
ENDCHAR

STARTCHAR cns1_2624
ENCODING 9764
SWIDTH 960 0
DWIDTH 24 0
BBX 24 24 0 -2
BITMAP
000000
003C00
01C380
0600C0
080030
100418
200C08
201C04
401402
402402
404402
404402
408402
408402
410402
41FF02
200404
200404
100E08
183B10
0C0020
0300C0
00FF00
000000
ENDCHAR

STARTCHAR cns1_2625
ENCODING 9765
SWIDTH 960 0
DWIDTH 24 0
BBX 24 24 0 -2
BITMAP
000000
003C00
01C380
0600C0
080030
10FE18
208008
208004
408002
410002
417802
418602
400602
400302
400302
400302
218304
218604
118C08
187010
0C0020
0300C0
00FF00
000000
ENDCHAR

STARTCHAR cns1_2626
ENCODING 9766
SWIDTH 960 0
DWIDTH 24 0
BBX 24 24 0 -2
BITMAP
000000
003C00
01C380
0600C0
081C30
103618
204208
20C004
408002
418002
419C02
41E602
41C302
418302
418302
418302
218304
208304
10C608
187C10
0C1820
0300C0
00FF00
000000
ENDCHAR

STARTCHAR cns1_2627
ENCODING 9767
SWIDTH 960 0
DWIDTH 24 0
BBX 24 24 0 -2
BITMAP
000000
003C00
01C380
0600C0
080030
11FF18
218108
230204
420202
400402
400802
401002
401002
402002
402002
406002
206004
206004
106008
180010
0C0020
0300C0
00FF00
000000
ENDCHAR

STARTCHAR cns1_2628
ENCODING 9768
SWIDTH 960 0
DWIDTH 24 0
BBX 24 24 0 -2
BITMAP
000000
003C00
01C380
0600C0
080030
107C18
20C608
218304
418302
418202
40E402
407802
403E02
40C602
418302
418302
218304
218304
10C608
187C10
0C0020
0300C0
00FF00
000000
ENDCHAR

STARTCHAR cns1_2629
ENCODING 9769
SWIDTH 960 0
DWIDTH 24 0
BBX 24 24 0 -2
BITMAP
000000
003C00
01C380
0600C0
087830
10CC18
218608
230204
430302
430302
430302
430302
41C702
40FB02
400302
400202
200604
208404
11C408
18C810
0C3020
0300C0
00FF00
000000
ENDCHAR

STARTCHAR cns1_262A
ENCODING 9770
SWIDTH 960 0
DWIDTH 24 0
BBX 24 24 0 -2
BITMAP
000000
003C00
01C380
0600C0
0801B0
1082D8
278448
218424
418822
418822
418822
418822
418822
418822
418822
418822
218424
218464
17E2C8
180190
0C0020
0300C0
00FF00
000000
ENDCHAR

STARTCHAR cns1_262B
ENCODING 9771
SWIDTH 960 0
DWIDTH 24 0
BBX 24 24 0 -2
BITMAP
000000
000000
040040
080020
081810
10F810
101808
201808
201804
401804
401802
401802
401802
401802
401802
401804
601804
201808
201808
103C10
08E710
040020
000000
000000
ENDCHAR

STARTCHAR cns1_262C
ENCODING 9772
SWIDTH 960 0
DWIDTH 24 0
BBX 24 24 0 -2
BITMAP
000000
000000
040040
080020
107C10
108610
218308
218308
218304
400304
400604
400C06
400806
401006
402004
404004
204104
20810C
208308
11FE10
080010
040020
000000
000000
ENDCHAR

STARTCHAR cns1_262D
ENCODING 9773
SWIDTH 960 0
DWIDTH 24 0
BBX 24 24 0 -2
BITMAP
000000
000000
040000
080020
087C10
10C618
118208
208308
200204
400604
400C04
403806
401C06
400606
400304
400304
618304
21830C
218208
10C410
087810
040020
000000
000000
ENDCHAR

STARTCHAR cns1_262E
ENCODING 9774
SWIDTH 960 0
DWIDTH 24 0
BBX 24 24 0 -2
BITMAP
000000
000000
040000
080420
080C10
100C18
301408
201408
202404
402404
404404
404406
408406
408406
410404
41FF04
600404
20040C
200C08
103F10
080010
000020
000000
000000
ENDCHAR

STARTCHAR cns1_262F
ENCODING 9775
SWIDTH 960 0
DWIDTH 24 0
BBX 24 24 0 -2
BITMAP
000000
000000
040040
080020
08FE10
108018
308008
208008
210004
410004
417C04
418606
400206
400306
400304
400304
618304
21820C
218608
108C10
087010
040020
000000
000000
ENDCHAR

STARTCHAR cns1_2630
ENCODING 9776
SWIDTH 960 0
DWIDTH 24 0
BBX 24 24 0 -2
BITMAP
000000
000000
040040
080020
083C10
106610
304208
20C008
208004
418004
41BC04
41C606
418306
418306
418304
418304
218304
208308
108208
104410
083810
040020
000000
000000
ENDCHAR

STARTCHAR cns1_2631
ENCODING 9777
SWIDTH 960 0
DWIDTH 24 0
BBX 24 24 0 -2
BITMAP
000000
000000
040040
080020
11FF10
318318
210208
21060C
620604
400C04
400C04
401806
401806
403006
403004
406004
606004
206008
206008
106010
086010
040020
000000
000000
ENDCHAR

STARTCHAR cns1_2632
ENCODING 9778
SWIDTH 960 0
DWIDTH 24 0
BBX 24 24 0 -2
BITMAP
000000
000000
040000
080020
087C10
108618
108208
208208
208204
40C204
40E404
407806
403E06
40CE06
418304
418304
418104
21810C
218308
10C610
083C10
040020
000000
000000
ENDCHAR

STARTCHAR cns1_2633
ENCODING 9779
SWIDTH 960 0
DWIDTH 24 0
BBX 24 24 0 -2
BITMAP
000000
000000
040000
080020
087C10
108418
318608
218208
218304
418304
418304
418306
40C706
407B06
400304
400204
200204
20060C
200408
118810
087010
000020
000000
000000
ENDCHAR

STARTCHAR cns1_2634
ENCODING 9780
SWIDTH 960 0
DWIDTH 24 0
BBX 24 24 0 -2
BITMAP
000000
000000
040000
080020
084790
13CC58
30C868
20C828
20D824
40D024
40D034
40D036
40D036
40D036
40D034
40D024
60D824
20C82C
20CC48
11E450
0BE390
000020
000000
000000
ENDCHAR

STARTCHAR cns1_2635
ENCODING 9781
SWIDTH 960 0
DWIDTH 24 0
BBX 24 24 0 -2
BITMAP
000000
000000
000000
000000
001800
003C00
001800
000000
000000
001800
003800
001800
001800
001800
001800
001800
001800
001800
001800
003C00
007E00
000000
000000
000000
ENDCHAR

STARTCHAR cns1_2636
ENCODING 9782
SWIDTH 960 0
DWIDTH 24 0
BBX 24 24 0 -2
BITMAP
000000
000000
000000
000000
00C300
01E780
00C300
000000
000000
004100
01C700
00C300
00C300
00C300
00C300
00C300
00C300
00C300
00C300
00C300
01E780
000000
000000
000000
ENDCHAR

STARTCHAR cns1_2637
ENCODING 9783
SWIDTH 960 0
DWIDTH 24 0
BBX 24 24 0 -2
BITMAP
000000
000000
000000
000000
063180
0F7BC0
063180
000000
000000
021080
0E7380
063180
063180
063180
063180
063180
063180
063180
063180
063180
0F7BC0
000000
000000
000000
ENDCHAR

STARTCHAR cns1_2638
ENCODING 9784
SWIDTH 960 0
DWIDTH 24 0
BBX 24 24 0 -2
BITMAP
000000
000000
000000
000000
040000
0E0000
040000
000000
000000
02F8F0
0E3040
061040
061880
060880
060C80
060D00
060500
060500
060700
060200
0F0200
000000
000000
000000
ENDCHAR

STARTCHAR cns1_2639
ENCODING 9785
SWIDTH 960 0
DWIDTH 24 0
BBX 24 24 0 -2
BITMAP
000000
000000
000000
000000
000000
000000
000000
000000
000000
03E7C0
00C100
004100
004200
006200
002200
002400
003400
001400
001800
001800
000000
000000
000000
000000
ENDCHAR

STARTCHAR cns1_263A
ENCODING 9786
SWIDTH 960 0
DWIDTH 24 0
BBX 24 24 0 -2
BITMAP
000000
000000
000000
000000
000060
0000F0
000060
000000
000000
0F1E20
060CE0
020860
010860
011060
011060
009060
00A060
00E060
004060
004060
0000F0
000000
000000
000000
ENDCHAR

STARTCHAR cns1_263B
ENCODING 9787
SWIDTH 960 0
DWIDTH 24 0
BBX 24 24 0 -2
BITMAP
000000
000000
000000
000000
000630
000F78
000630
000000
000210
78EE70
304630
104630
088630
088630
088630
048630
050630
070630
020630
020630
000F78
000000
000000
000000
ENDCHAR

STARTCHAR cns1_263C
ENCODING 9788
SWIDTH 960 0
DWIDTH 24 0
BBX 24 24 0 -2
BITMAP
000000
000000
000000
000000
001110
003BB8
001110
000000
000000
79C898
30BBB8
109998
109998
091998
091998
091998
0E1998
0E1998
041998
041998
003FFC
000000
000000
000000
ENDCHAR

STARTCHAR cns1_263D
ENCODING 9789
SWIDTH 960 0
DWIDTH 24 0
BBX 24 24 0 -2
BITMAP
000000
000000
000000
000000
040000
0E0000
040000
000000
000000
0278F0
0E3040
061880
060D00
060600
060200
060700
060580
0608C0
0610C0
063060
0F78F0
000000
000000
000000
ENDCHAR

STARTCHAR cns1_263E
ENCODING 9790
SWIDTH 960 0
DWIDTH 24 0
BBX 24 24 0 -2
BITMAP
000000
000000
000000
000000
000000
000000
000000
000000
000000
03E780
00C200
004200
006400
003800
001000
001800
002800
004400
008200
018300
07C7C0
000000
000000
000000
ENDCHAR

STARTCHAR cns1_2721
ENCODING 10017
SWIDTH 960 0
DWIDTH 24 0
BBX 24 24 0 -2
BITMAP
000000
000000
000000
000000
000000
000000
000000
000000
000000
000000
000000
00000C
7FFFFE
000000
000000
000000
000000
000000
000000
000000
000000
000000
000000
000000
ENDCHAR

STARTCHAR cns1_2722
ENCODING 10018
SWIDTH 960 0
DWIDTH 24 0
BBX 24 24 0 -2
BITMAP
000000
003800
003000
003000
003000
003000
003000
003000
003000
003000
003000
003000
003000
003000
003000
003000
003000
003000
003000
003000
003000
003000
003000
000000
ENDCHAR

STARTCHAR cns1_2723
ENCODING 10019
SWIDTH 960 0
DWIDTH 24 0
BBX 24 24 0 -2
BITMAP
000000
000000
000000
000000
000000
000000
000000
000000
004000
006000
003000
001800
000C00
000C00
000600
000600
000000
000000
000000
000000
000000
000000
000000
000000
ENDCHAR

STARTCHAR cns1_2724
ENCODING 10020
SWIDTH 960 0
DWIDTH 24 0
BBX 24 24 0 -2
BITMAP
000000
001C00
001800
001800
001800
001800
001800
001800
001800
001800
001800
001800
001800
001800
001800
001800
003000
003000
003000
006000
006000
00C000
018000
000000
ENDCHAR

STARTCHAR cns1_2725
ENCODING 10021
SWIDTH 960 0
DWIDTH 24 0
BBX 24 24 0 -2
BITMAP
000000
000000
0000C0
1FFFE0
0000C0
000180
000300
000600
000C00
001800
003000
006000
00C000
018000
030000
060008
0C0008
180008
180008
10000C
1C001C
0FFFF8
000000
000000
ENDCHAR

STARTCHAR cns1_2726
ENCODING 10022
SWIDTH 960 0
DWIDTH 24 0
BBX 24 24 0 -2
BITMAP
000000
001C00
001800
001800
001800
001800
001800
001800
001800
001800
001800
001800
001800
001800
001800
001800
001800
001800
001800
001800
001800
01F800
007000
000000
ENDCHAR

STARTCHAR cns1_2727
ENCODING 10023
SWIDTH 960 0
DWIDTH 24 0
BBX 24 24 0 -2
BITMAP
000000
000000
000000
000000
000000
000030
1FFFF8
000000
000000
000000
000000
000000
000000
000000
000000
000000
000000
000000
00000C
7FFFFE
000000
000000
000000
000000
ENDCHAR

STARTCHAR cns1_2728
ENCODING 10024
SWIDTH 960 0
DWIDTH 24 0
BBX 24 24 0 -2
BITMAP
000000
000000
000000
000000
001C00
001800
001800
00180C
7FFFFE
000000
000000
000000
000000
000000
000000
000000
000000
000000
000000
000000
000000
000000
000000
000000
ENDCHAR

STARTCHAR cns1_2729
ENCODING 10025
SWIDTH 960 0
DWIDTH 24 0
BBX 24 24 0 -2
BITMAP
000000
001C00
001800
001800
001800
001800
001800
001800
001800
003800
003800
003C00
006C00
006600
006600
00C300
00C180
0181C0
0300E0
060078
0C003E
180018
700000
000000
ENDCHAR

STARTCHAR cns1_272A
ENCODING 10026
SWIDTH 960 0
DWIDTH 24 0
BBX 24 24 0 -2
BITMAP
000000
01C1C0
018180
018180
018180
018180
018180
018180
018180
018180
018180
018180
030180
030180
030180
030180
060184
060184
0C0184
0C0184
180186
3001CE
6000FC
000000
ENDCHAR

STARTCHAR cns1_272B
ENCODING 10027
SWIDTH 960 0
DWIDTH 24 0
BBX 24 24 0 -2
BITMAP
000000
000000
000C00
03FE00
000C00
000C00
000C00
000C00
001C00
001C00
001C00
003600
003600
006300
006300
00C180
00C180
0180C0
0300E0
060070
0C003C
18001E
70000C
000000
ENDCHAR

STARTCHAR cns1_272C
ENCODING 10028
SWIDTH 960 0
DWIDTH 24 0
BBX 24 24 0 -2
BITMAP
000000
000300
001F80
018300
01C300
018300
018300
018300
018300
018300
030180
030180
030180
0300C0
0600C0
0600C0
060060
0C0060
0C0030
180038
18001E
30000C
600000
000000
ENDCHAR

STARTCHAR cns1_272D
ENCODING 10029
SWIDTH 960 0
DWIDTH 24 0
BBX 24 24 0 -2
BITMAP
000000
000000
20000C
3FFFFE
30000C
30000C
30000C
30000C
30000C
30000C
30000C
30000C
30000C
30000C
30000C
30000C
30000C
30000C
30000C
30000C
30000C
3001FC
300038
000000
ENDCHAR

STARTCHAR cns1_272E
ENCODING 10030
SWIDTH 960 0
DWIDTH 24 0
BBX 24 24 0 -2
BITMAP
000000
000000
000000
000000
10000C
1FFFFE
18000C
30000C
600008
000000
000000
000000
000000
000000
000000
000000
000000
000000
000000
000000
000000
000000
000000
000000
ENDCHAR

STARTCHAR cns1_272F
ENCODING 10031
SWIDTH 960 0
DWIDTH 24 0
BBX 24 24 0 -2
BITMAP
000000
000000
00C000
006000
006000
003000
003000
000600
000600
000C00
000C00
001800
001800
001800
003000
00F000
007000
003000
003000
003000
003800
003800
003000
000000
ENDCHAR

STARTCHAR cns1_2730
ENCODING 10032
SWIDTH 960 0
DWIDTH 24 0
BBX 24 24 0 -2
BITMAP
000000
000000
010180
01FFC0
018180
018180
018180
018180
018180
018180
018180
018180
030180
030180
030180
030180
060180
060184
0C0184
0C0184
180186
3001C6
6000FC
000000
ENDCHAR

STARTCHAR cns1_2731
ENCODING 10033
SWIDTH 960 0
DWIDTH 24 0
BBX 24 24 0 -2
BITMAP
000000
38000E
30000C
30000C
30000C
30000C
30000C
30000C
30000C
30000C
30000C
30000C
30000C
30000C
30000C
30000C
30000C
30000C
30000C
30000C
3FFFFC
30000C
30000C
000000
ENDCHAR

STARTCHAR cns1_2732
ENCODING 10034
SWIDTH 960 0
DWIDTH 24 0
BBX 24 24 0 -2
BITMAP
000000
000000
000018
1FFFFC
003018
003018
003018
003018
003018
006018
006018
006018
006018
00C018
00C018
018018
018018
030018
030030
060030
0C0070
180FE0
6001C0
000000
ENDCHAR

STARTCHAR cns1_2733
ENCODING 10035
SWIDTH 960 0
DWIDTH 24 0
BBX 24 24 0 -2
BITMAP
000000
003800
003000
003000
003000
003000
003018
1FFFFC
006018
006018
006018
006018
006018
006018
00C018
00C018
018018
018030
030030
060030
0C0060
180FE0
3001C0
000000
ENDCHAR

STARTCHAR cns1_2734
ENCODING 10036
SWIDTH 960 0
DWIDTH 24 0
BBX 24 24 0 -2
BITMAP
000000
038000
030000
030000
06000C
07FFFE
0C000C
0C000C
18000C
18000C
30000C
60000C
00000C
00000C
00000C
000018
000018
000018
000018
000030
000070
000FE0
0001C0
000000
ENDCHAR

STARTCHAR cns1_2735
ENCODING 10037
SWIDTH 960 0
DWIDTH 24 0
BBX 24 24 0 -2
BITMAP
000000
070000
060000
060000
060000
060060
0600F0
0601C0
060300
060600
061C00
067000
07C000
060000
060000
060004
060004
060004
060004
060004
060006
07000E
03FFFC
000000
ENDCHAR

STARTCHAR cns1_2736
ENCODING 10038
SWIDTH 960 0
DWIDTH 24 0
BBX 24 24 0 -2
BITMAP
000000
000000
400018
7FFFFC
600000
600000
600000
600000
600000
600000
600000
600000
600000
600000
600000
600000
600000
600000
600000
600000
60000C
7FFFFE
600000
000000
ENDCHAR

STARTCHAR cns1_2737
ENCODING 10039
SWIDTH 960 0
DWIDTH 24 0
BBX 24 24 0 -2
BITMAP
000000
000000
000000
000000
000000
100030
1FFFF8
180000
180000
180000
180000
180000
180000
180000
180000
180000
180000
180018
1FFFFC
180000
000000
000000
000000
000000
ENDCHAR

STARTCHAR cns1_2738
ENCODING 10040
SWIDTH 960 0
DWIDTH 24 0
BBX 24 24 0 -2
BITMAP
000000
001C00
001800
001800
001800
001800
001800
001800
001800
001800
00180C
7FFFFE
001800
001800
001800
001800
001800
001800
001800
001800
001800
001800
001800
000000
ENDCHAR

STARTCHAR cns1_2739
ENCODING 10041
SWIDTH 960 0
DWIDTH 24 0
BBX 24 24 0 -2
BITMAP
000000
007000
006000
006000
006000
006000
006000
006000
006000
006000
007C00
006700
0061C0
006070
006038
006018
006000
006000
006000
006000
006000
006000
006000
000000
ENDCHAR

STARTCHAR cns1_273A
ENCODING 10042
SWIDTH 960 0
DWIDTH 24 0
BBX 24 24 0 -2
BITMAP
000000
010180
01FFC0
018180
018180
018180
018180
018180
018180
018180
018180
018180
018180
018180
018180
018180
019F80
018700
018000
018000
018000
018000
018000
000000
ENDCHAR

STARTCHAR cns1_273B
ENCODING 10043
SWIDTH 960 0
DWIDTH 24 0
BBX 24 24 0 -2
BITMAP
000000
000000
10000C
1FFFFE
180000
180000
180000
180000
180000
180000
180000
180000
180000
180000
180000
180000
180000
300000
300000
300000
300000
600000
600000
000000
ENDCHAR

STARTCHAR cns1_273C
ENCODING 10044
SWIDTH 960 0
DWIDTH 24 0
BBX 24 24 0 -2
BITMAP
000000
000000
000000
000000
007000
006000
006000
00C000
00C000
00C000
018000
018000
018180
0300C0
030060
060030
0601F8
0C7F18
3FC018
180018
000000
000000
000000
000000
ENDCHAR

STARTCHAR cns1_273D
ENCODING 10045
SWIDTH 960 0
DWIDTH 24 0
BBX 24 24 0 -2
BITMAP
000000
000000
000030
3FFFF8
030030
030030
030060
030060
0180C0
0180C0
00C180
00C180
006300
006600
003C00
001800
003C00
006700
00C1C0
0380F0
0E003E
780018
000000
000000
ENDCHAR

STARTCHAR cns1_273E
ENCODING 10046
SWIDTH 960 0
DWIDTH 24 0
BBX 24 24 0 -2
BITMAP
000000
000000
000000
000000
000000
020180
03FFC0
030180
030180
030180
030180
030180
030180
030180
030180
030180
03FF80
030180
030180
000000
000000
000000
000000
000000
ENDCHAR

STARTCHAR cns1_273F
ENCODING 10047
SWIDTH 960 0
DWIDTH 24 0
BBX 24 24 0 -2
BITMAP
000000
000000
100030
1FFFF8
180030
180030
180030
180030
180030
180030
180030
180030
180030
180030
180030
180030
180030
180030
180030
180030
1FFFF0
180030
000000
000000
ENDCHAR

STARTCHAR cns1_2740
ENCODING 10048
SWIDTH 960 0
DWIDTH 24 0
BBX 24 24 0 -2
BITMAP
000000
001C00
001800
001800
001800
001800
001800
001800
001800
001830
1FFFF8
001800
001800
001800
001800
001800
001800
001800
001800
001800
001800
00180C
7FFFFE
000000
ENDCHAR

STARTCHAR cns1_2741
ENCODING 10049
SWIDTH 960 0
DWIDTH 24 0
BBX 24 24 0 -2
BITMAP
000000
001C00
001800
001800
001800
001800
001800
001800
001800
00180C
7FFFFE
001800
001800
001800
001800
001800
001800
001800
001800
001800
001830
1FFFF8
000000
000000
ENDCHAR

STARTCHAR cns1_2742
ENCODING 10050
SWIDTH 960 0
DWIDTH 24 0
BBX 24 24 0 -2
BITMAP
000000
018000
01C000
018000
018000
018030
03FFF8
0300C0
0300C0
0300C0
078180
0D8180
18C300
00C300
006600
006600
003C00
003C00
003E00
006700
01C3FE
0F00FC
1C0038
000000
ENDCHAR

STARTCHAR cns1_2743
ENCODING 10051
SWIDTH 960 0
DWIDTH 24 0
BBX 24 24 0 -2
BITMAP
000000
006000
007000
006000
006030
007FF8
00C030
00C030
018060
018060
036060
0630C0
0C30C0
381980
001980
000300
000600
000C00
001800
007000
01C000
070000
3C0000
000000
ENDCHAR

STARTCHAR cns1_2744
ENCODING 10052
SWIDTH 960 0
DWIDTH 24 0
BBX 24 24 0 -2
BITMAP
000000
001C00
001800
001800
001800
001800
001800
00180C
3FFFFE
001800
003800
003C00
003C00
003600
006600
006300
00C300
00C180
0181C0
0300E0
060078
0C003E
38001C
000000
ENDCHAR

STARTCHAR cns1_2745
ENCODING 10053
SWIDTH 960 0
DWIDTH 24 0
BBX 24 24 0 -2
BITMAP
000000
007000
006000
006000
006000
006000
00600C
7FFFFE
00C180
00C180
00C180
018180
018180
030300
030300
07C600
0C7E00
000F00
0019C0
007060
01C038
0F001C
78000C
000000
ENDCHAR

STARTCHAR cns1_2746
ENCODING 10054
SWIDTH 960 0
DWIDTH 24 0
BBX 24 24 0 -2
BITMAP
000000
000000
000060
07FFF0
0000C0
000180
000700
001C00
001800
001800
00180C
7FFFFE
001800
001800
001800
001800
001800
001800
001800
001800
001800
03F800
007000
000000
ENDCHAR

STARTCHAR cns1_2747
ENCODING 10055
SWIDTH 960 0
DWIDTH 24 0
BBX 24 24 0 -2
BITMAP
000000
001C00
001800
001800
20180C
3FFFFE
30000C
30000C
600008
000000
000000
000000
000000
000000
000000
000000
000000
000000
000000
000000
000000
000000
000000
000000
ENDCHAR

STARTCHAR cns1_2748
ENCODING 10056
SWIDTH 960 0
DWIDTH 24 0
BBX 24 24 0 -2
BITMAP
000000
0001C0
000180
000180
000180
000180
000180
00018C
7FFFFE
000180
000180
060180
030180
018180
00C180
00C180
000180
000180
000180
000180
000180
003F80
000700
000000
ENDCHAR

STARTCHAR cns1_2749
ENCODING 10057
SWIDTH 960 0
DWIDTH 24 0
BBX 24 24 0 -2
BITMAP
000000
000E00
000C00
000C00
000C00
000C00
000C00
030C00
030CC0
030C60
060C30
060C18
060C18
0C0C0C
0C0C0C
180C06
180C06
300C06
600C00
000C00
000C00
03FC00
003800
000000
ENDCHAR

STARTCHAR cns1_274A
ENCODING 10058
SWIDTH 960 0
DWIDTH 24 0
BBX 24 24 0 -2
BITMAP
000000
001C00
001800
001800
001800
001800
00180C
3FFFFE
001800
001F00
001E00
003600
003600
003600
006600
006600
00C604
00C604
018604
030604
060606
0C070E
3803FC
000000
ENDCHAR

STARTCHAR cns1_274B
ENCODING 10059
SWIDTH 960 0
DWIDTH 24 0
BBX 24 24 0 -2
BITMAP
000000
04000C
07FFFE
06000C
06000C
06000C
06000C
06000C
07FFFC
06000C
060000
060000
060000
0C0000
0C0000
0C0000
0C0000
180000
180000
180000
300000
300000
600000
000000
ENDCHAR

STARTCHAR cns1_274C
ENCODING 10060
SWIDTH 960 0
DWIDTH 24 0
BBX 24 24 0 -2
BITMAP
000000
001C00
001800
001800
1C181C
181818
181818
181818
181818
181818
181818
181818
181818
1FFFF8
181818
181818
001800
001800
001800
001800
001800
001800
001800
000000
ENDCHAR

STARTCHAR cns1_274D
ENCODING 10061
SWIDTH 960 0
DWIDTH 24 0
BBX 24 24 0 -2
BITMAP
000000
001C00
001800
001800
001800
001800
38181C
301818
301818
301818
301818
301818
301818
301818
301818
301818
301818
301818
301818
301818
3FFFF8
300018
300018
000000
ENDCHAR

STARTCHAR cns1_274E
ENCODING 10062
SWIDTH 960 0
DWIDTH 24 0
BBX 24 24 0 -2
BITMAP
000000
038E38
030C30
030C30
031860
061860
063060
0630C0
0C60C0
0C6180
186180
18C300
186380
0C60C0
0C30C0
063060
061860
061830
030C30
030C18
030C18
030C18
000000
000000
ENDCHAR

STARTCHAR cns1_274F
ENCODING 10063
SWIDTH 960 0
DWIDTH 24 0
BBX 24 24 0 -2
BITMAP
000000
000000
000000
000000
000018
1FFFFC
001800
001800
001800
001800
001800
001800
001800
001800
001800
001800
001800
001800
001800
001800
00180C
7FFFFE
000000
000000
ENDCHAR

STARTCHAR cns1_2750
ENCODING 10064
SWIDTH 960 0
DWIDTH 24 0
BBX 24 24 0 -2
BITMAP
000000
000030
3FFFF8
000030
000030
000030
000030
000030
000030
100030
1FFFF0
180030
180030
180000
180000
180000
180008
180008
180008
180008
18000C
1C001C
0FFFF8
000000
ENDCHAR

STARTCHAR cns1_2751
ENCODING 10065
SWIDTH 960 0
DWIDTH 24 0
BBX 24 24 0 -2
BITMAP
000000
001C00
001800
001800
001800
101818
1FFFFC
181818
181818
181818
181818
181818
181818
181818
181818
181818
181818
181818
1819F8
181830
001800
001800
001800
000000
ENDCHAR

STARTCHAR cns1_2752
ENCODING 10066
SWIDTH 960 0
DWIDTH 24 0
BBX 24 24 0 -2
BITMAP
000000
000000
000030
1FFFF8
001800
001800
001800
001800
001800
001800
00180C
7FFFFE
001800
001800
001800
001800
001800
001800
001800
001800
001800
001800
001800
000000
ENDCHAR

STARTCHAR cns1_2753
ENCODING 10067
SWIDTH 960 0
DWIDTH 24 0
BBX 24 24 0 -2
BITMAP
000000
001800
001800
003000
003000
006000
006000
00C180
1D8180
070300
030300
018600
00C600
00CC00
006C00
007800
003060
006030
00C018
018018
033FFC
3FE00C
18000C
000000
ENDCHAR

STARTCHAR cns1_2754
ENCODING 10068
SWIDTH 960 0
DWIDTH 24 0
BBX 24 24 0 -2
BITMAP
000000
000E00
000C00
000C00
100C0C
1FFFFE
180000
180000
180000
180000
180000
180000
180000
180000
180000
180000
180000
180000
300000
300000
300000
600000
600000
000000
ENDCHAR

STARTCHAR cns1_2755
ENCODING 10069
SWIDTH 960 0
DWIDTH 24 0
BBX 24 24 0 -2
BITMAP
000000
030000
3F8000
030000
030000
030000
030000
060000
06C000
07E000
0CC000
00C000
30C000
318000
398000
6D8000
670000
070000
070000
05C000
0C7000
181FFE
7003F8
000000
ENDCHAR

STARTCHAR cns1_2756
ENCODING 10070
SWIDTH 960 0
DWIDTH 24 0
BBX 24 24 0 -2
BITMAP
000000
01C1C0
018180
018180
018180
018180
018180
018180
018180
01818C
7FFFFE
018180
018180
018180
018180
030180
030180
030180
060180
060180
0C0180
180180
700180
000000
ENDCHAR

STARTCHAR cns1_2757
ENCODING 10071
SWIDTH 960 0
DWIDTH 24 0
BBX 24 24 0 -2
BITMAP
000000
007000
006300
0061C0
0060C0
00600C
00607E
007FC0
7FE000
003000
003000
003000
003000
003000
001800
001800
000C00
000C04
000604
000304
000184
0000EC
00003C
000000
ENDCHAR

STARTCHAR cns1_2758
ENCODING 10072
SWIDTH 960 0
DWIDTH 24 0
BBX 24 24 0 -2
BITMAP
000000
000030
1FFFF8
000030
000030
000030
080030
0FFFF0
0C0030
0C0000
0C0000
180030
1FFFF8
180030
300030
000030
000030
000030
000060
000060
0000E0
001FC0
000380
000000
ENDCHAR

STARTCHAR cns1_2759
ENCODING 10073
SWIDTH 960 0
DWIDTH 24 0
BBX 24 24 0 -2
BITMAP
000000
000000
000000
000000
000000
000000
000060
03FFF0
000060
000060
000060
000060
03FFC0
0000C0
0000C0
0000C0
0000C0
0000CC
7FFFFE
000000
000000
000000
000000
000000
ENDCHAR

STARTCHAR cns1_275A
ENCODING 10074
SWIDTH 960 0
DWIDTH 24 0
BBX 24 24 0 -2
BITMAP
000000
000000
000300
000600
000C00
001800
003000
00E0C0
038180
000300
000600
000C00
001800
007000
01C060
0700C0
000180
000300
000600
001C00
007000
01C000
070000
000000
ENDCHAR

STARTCHAR cns1_275B
ENCODING 10075
SWIDTH 960 0
DWIDTH 24 0
BBX 24 24 0 -2
BITMAP
000000
000060
000060
0000C0
000180
000700
001C30
007030
01C060
0700C0
000180
000700
001C00
007C00
01CC00
0F0C00
000C00
000C00
000C00
000C00
000C00
000C00
000C00
000000
ENDCHAR

STARTCHAR cns1_275C
ENCODING 10076
SWIDTH 960 0
DWIDTH 24 0
BBX 24 24 0 -2
BITMAP
000000
000000
003000
001800
000C00
000C00
000000
01C000
018000
018030
098018
098018
19800C
19800C
318006
318006
618020
618020
018020
018020
018030
01C070
00FFE0
000000
ENDCHAR

STARTCHAR cns1_275D
ENCODING 10077
SWIDTH 960 0
DWIDTH 24 0
BBX 24 24 0 -2
BITMAP
000000
003800
003180
0030C0
003060
00300C
0030FE
003F80
7FF000
003000
003070
001860
0018C0
001980
000F00
000E00
000E02
001F02
007302
00C182
0380C6
0E0076
78001E
000000
ENDCHAR

STARTCHAR cns1_275E
ENCODING 10078
SWIDTH 960 0
DWIDTH 24 0
BBX 24 24 0 -2
BITMAP
000000
000030
0001FC
043F00
07E000
060000
060018
07FFFC
060018
060018
060018
060018
060018
07FFF8
060018
060000
0C0000
0C0000
0C0000
180000
180000
300000
600000
000000
ENDCHAR

STARTCHAR cns1_275F
ENCODING 10079
SWIDTH 960 0
DWIDTH 24 0
BBX 24 24 0 -2
BITMAP
000000
000030
0001F8
003F00
1FF800
001800
001800
001818
1FFFFC
001800
001800
001800
001800
00180C
7FFFFE
001800
001800
001800
001800
001800
001800
03F800
007000
000000
ENDCHAR

STARTCHAR cns1_2760
ENCODING 10080
SWIDTH 960 0
DWIDTH 24 0
BBX 24 24 0 -2
BITMAP
000000
001C00
001800
001800
00180C
7FFFFE
001800
001800
001800
001800
0018C0
1FFFE0
00C180
00C180
006300
006300
003600
001C00
003C00
00E700
0381E0
0E007E
780018
000000
ENDCHAR

STARTCHAR cns1_2761
ENCODING 10081
SWIDTH 960 0
DWIDTH 24 0
BBX 24 24 0 -2
BITMAP
000000
007000
006000
006000
006000
006030
007FF8
006000
006000
006000
0060C0
1FFFE0
018180
00C180
00C300
006600
003C00
001800
003C00
00E700
0383E0
0E01FE
7800E0
000000
ENDCHAR

STARTCHAR cns1_2762
ENCODING 10082
SWIDTH 960 0
DWIDTH 24 0
BBX 24 24 0 -2
BITMAP
000000
001C00
001800
001800
001800
00180C
3FFFFE
0180C0
0180C0
00C180
00C180
00C300
006300
006600
003600
003C00
001800
003C00
006600
00C380
0381E0
0E00FE
780070
000000
ENDCHAR

STARTCHAR cns1_2763
ENCODING 10083
SWIDTH 960 0
DWIDTH 24 0
BBX 24 24 0 -2
BITMAP
000000
000380
000300
000300
018300
00C300
006300
006300
000300
060300
030300
018300
00C304
00C30E
0003F8
007F80
0FC300
780300
000300
000300
000300
000300
000300
000000
ENDCHAR

STARTCHAR cns1_2764
ENCODING 10084
SWIDTH 960 0
DWIDTH 24 0
BBX 24 24 0 -2
BITMAP
000000
000060
0001F0
081F00
0FF000
0C0000
0C0000
0C0000
0C000C
0FFFFE
0C0600
0C0600
0C0600
0C0600
0C0600
0C0600
0C0600
180600
180600
180600
300600
300600
600600
000000
ENDCHAR

STARTCHAR cns1_2765
ENCODING 10085
SWIDTH 960 0
DWIDTH 24 0
BBX 24 24 0 -2
BITMAP
000000
001C00
001800
001800
00180C
3FFFFE
003000
003000
003000
003000
003030
003FF8
006030
006030
006030
00C030
00C030
018030
018030
030060
0600E0
1C1FC0
700780
000000
ENDCHAR

STARTCHAR cns1_2766
ENCODING 10086
SWIDTH 960 0
DWIDTH 24 0
BBX 24 24 0 -2
BITMAP
000000
000000
000030
0FFFF8
001800
001800
001800
001800
001800
00180C
7FFFFE
001800
003E00
003C00
003C00
006C00
006C04
00CC04
018C04
030C04
060C06
1C0E0E
7007FC
000000
ENDCHAR

STARTCHAR cns1_2767
ENCODING 10087
SWIDTH 960 0
DWIDTH 24 0
BBX 24 24 0 -2
BITMAP
000000
040060
07FFF0
060060
060060
060060
060060
060060
060060
060060
060060
07FFE0
060060
060060
060060
060060
060060
060060
060060
060060
07FFE0
060060
060060
000000
ENDCHAR

STARTCHAR cns1_2768
ENCODING 10088
SWIDTH 960 0
DWIDTH 24 0
BBX 24 24 0 -2
BITMAP
000000
000000
000000
40000C
7FFFFE
60000C
60000C
60000C
60000C
60000C
60000C
60000C
7FFFFC
60000C
60000C
60000C
60000C
60000C
60000C
60000C
7FFFFC
60000C
000000
000000
ENDCHAR

STARTCHAR cns1_2769
ENCODING 10089
SWIDTH 960 0
DWIDTH 24 0
BBX 24 24 0 -2
BITMAP
000000
020030
03FFF8
030030
030030
030030
030030
030030
03FFF0
030030
030030
030030
030030
030030
03FFF0
060030
060030
060030
060030
0C0030
0C0030
1807F0
3000E0
000000
ENDCHAR

STARTCHAR cns1_276A
ENCODING 10090
SWIDTH 960 0
DWIDTH 24 0
BBX 24 24 0 -2
BITMAP
000000
001C00
001800
001800
001800
001800
00180C
7FFFFE
003800
003C00
007C00
007E00
00DE00
00DB00
0199C0
0318E0
061878
0C183E
181818
301800
001800
001800
001800
000000
ENDCHAR

STARTCHAR cns1_276B
ENCODING 10091
SWIDTH 960 0
DWIDTH 24 0
BBX 24 24 0 -2
BITMAP
000000
00E000
00C000
00C000
018000
018018
01FFFC
031818
031818
061830
061830
0C1860
183800
003C00
003C00
003600
006600
006300
00C380
0181C0
0300F0
06007C
1C0038
000000
ENDCHAR

STARTCHAR cns1_276C
ENCODING 10092
SWIDTH 960 0
DWIDTH 24 0
BBX 24 24 0 -2
BITMAP
000000
000E00
000C00
000C00
000C00
000C00
000C00
038C00
030C00
030C30
030FF8
030C00
030C00
030C00
030C00
030C00
030C00
030C00
030C00
030C00
030C0C
7FFFFE
000000
000000
ENDCHAR

STARTCHAR cns1_276D
ENCODING 10093
SWIDTH 960 0
DWIDTH 24 0
BBX 24 24 0 -2
BITMAP
000000
000000
00000C
7FFFFE
006000
006000
006000
006030
00FFF8
00C030
018030
018060
036060
0630C0
0C18C0
181980
000300
000600
000C00
001800
007000
01C000
0F0000
000000
ENDCHAR

STARTCHAR cns1_276E
ENCODING 10094
SWIDTH 960 0
DWIDTH 24 0
BBX 24 24 0 -2
BITMAP
000000
020300
03FF80
030300
030300
030304
060304
060304
0C038C
1801FC
300000
0000C0
3FFFE0
0300C0
018180
00C300
006600
003C00
001C00
007700
01C1E0
0F007E
780018
000000
ENDCHAR

STARTCHAR cns1_276F
ENCODING 10095
SWIDTH 960 0
DWIDTH 24 0
BBX 24 24 0 -2
BITMAP
000000
000000
040060
07FFF0
061860
061860
061860
061860
061860
061860
06186C
7FFFFE
0C1860
0C1860
0C1860
0C3060
0C3060
18306C
1FFFFE
1860C0
30C0C0
319FC0
030380
000000
ENDCHAR

STARTCHAR cns1_2770
ENCODING 10096
SWIDTH 960 0
DWIDTH 24 0
BBX 24 24 0 -2
BITMAP
000000
0E0700
0C0600
0C0600
0C0600
0C0600
0C0606
0C060C
0C6638
0FF6E0
0C0780
0C0600
0C0600
0C0600
0C0600
0C0600
0C0600
0C0604
0C0604
0C7604
0FC606
7E070E
3003FC
000000
ENDCHAR

STARTCHAR cns1_2771
ENCODING 10097
SWIDTH 960 0
DWIDTH 24 0
BBX 24 24 0 -2
BITMAP
000000
0000C0
0003E0
001E00
00F000
07B000
7C3000
003030
0031F8
03FF00
3E3000
003000
00300C
0030FE
03FF80
7E3000
003000
003004
003004
003004
003006
00380E
001FFC
000000
ENDCHAR

STARTCHAR cns1_2772
ENCODING 10098
SWIDTH 960 0
DWIDTH 24 0
BBX 24 24 0 -2
BITMAP
000000
000030
0003F8
081E00
0FFC00
0C0C00
0C0C00
0C0C00
0C0C00
0C0C0C
0FFFFE
0C0600
0C0600
0C0600
0C0300
0C0300
0C0180
0C0182
0C78C2
0DC062
0F0032
78001E
20000E
000000
ENDCHAR

STARTCHAR cns1_2773
ENCODING 10099
SWIDTH 960 0
DWIDTH 24 0
BBX 24 24 0 -2
BITMAP
000000
060000
070000
060018
0FFFFC
0C0000
1800C0
37FFE0
600000
0000C0
3FFFE0
0000C0
0000C0
0000C0
0000C0
0000C0
000060
000062
000062
000032
000032
00001E
00000E
000000
ENDCHAR

STARTCHAR cns1_2774
ENCODING 10100
SWIDTH 960 0
DWIDTH 24 0
BBX 24 24 0 -2
BITMAP
000000
001C00
001800
001800
001800
001800
001800
001838
019860
3FD8C0
019B80
019E00
031C00
031E00
031B00
061980
0618E0
0C1878
18183E
701818
001800
01F800
007000
000000
ENDCHAR

STARTCHAR cns1_2775
ENCODING 10101
SWIDTH 960 0
DWIDTH 24 0
BBX 24 24 0 -2
BITMAP
000000
001C00
001800
001800
001800
001800
021830
021870
061860
0618C0
0C3980
0C3B00
183E00
183C00
006600
006600
00C300
00C180
0180C0
030060
060038
1C001E
70000C
000000
ENDCHAR

STARTCHAR cns1_2776
ENCODING 10102
SWIDTH 960 0
DWIDTH 24 0
BBX 24 24 0 -2
BITMAP
000000
000000
000038
0407FC
07FC60
061860
061860
061860
061860
061860
061860
061860
061830
061830
061830
0C1830
0C1830
0C1818
181818
18180C
30180C
301806
601806
000000
ENDCHAR

STARTCHAR cns1_2777
ENCODING 10103
SWIDTH 960 0
DWIDTH 24 0
BBX 24 24 0 -2
BITMAP
000000
000000
018180
03C0C0
030060
060030
0C0018
1980D8
3180C0
618180
00C180
00C300
00C300
006600
006C00
003800
003800
007C00
00C600
018380
0301E0
0E00FC
780070
000000
ENDCHAR

STARTCHAR cns1_2778
ENCODING 10104
SWIDTH 960 0
DWIDTH 24 0
BBX 24 24 0 -2
BITMAP
000000
000060
0000C0
070180
01F300
001E00
007380
01C0F0
0F0030
000000
00C0C0
00C0C0
006180
006180
003300
003300
001E00
000C00
001E00
003300
00E1C0
0380FC
1E0070
000000
ENDCHAR

STARTCHAR cns1_2779
ENCODING 10105
SWIDTH 960 0
DWIDTH 24 0
BBX 24 24 0 -2
BITMAP
000000
007070
006060
006060
006060
006060
006060
006060
007FE0
006060
000060
000060
000060
0FFFE0
003060
003060
003060
006060
006060
00C060
018060
030060
060060
000000
ENDCHAR

STARTCHAR cns1_277A
ENCODING 10106
SWIDTH 960 0
DWIDTH 24 0
BBX 24 24 0 -2
BITMAP
000000
000380
070300
060300
060300
060300
060300
06030C
07FFFE
060000
060000
060000
060180
07FFC0
0C0180
0C0180
0C0180
0C0180
180180
180180
180180
300180
600180
000000
ENDCHAR

STARTCHAR cns1_277B
ENCODING 10107
SWIDTH 960 0
DWIDTH 24 0
BBX 24 24 0 -2
BITMAP
000000
000000
000030
1FFFF8
000300
038300
030300
030300
030300
060300
06030C
0FFFFE
0C0F00
0C0F00
001B00
003300
006300
00C300
018300
070300
1C0300
707F00
000E00
000000
ENDCHAR

STARTCHAR cns1_277C
ENCODING 10108
SWIDTH 960 0
DWIDTH 24 0
BBX 24 24 0 -2
BITMAP
000000
001C00
001800
071800
061800
061800
0C1830
0FFFF8
0C1800
181800
181800
301800
601800
00180C
7FFFFE
001800
001800
001800
001800
001800
001800
001800
001800
000000
ENDCHAR

STARTCHAR cns1_277D
ENCODING 10109
SWIDTH 960 0
DWIDTH 24 0
BBX 24 24 0 -2
BITMAP
000000
001C00
001800
001800
0018C0
001860
001830
00180C
7FFFFE
003800
003800
003C00
003C00
006600
006600
00C300
00C300
018180
0300C0
060060
0C0038
18001E
70000C
000000
ENDCHAR

STARTCHAR cns1_277E
ENCODING 10110
SWIDTH 960 0
DWIDTH 24 0
BBX 24 24 0 -2
BITMAP
000000
001C00
001800
001800
00180C
3FFFFE
003000
003000
0060C0
0060C0
00C180
0F8180
038300
00C300
004600
002C00
0018C0
003060
006030
00C018
038FFC
7FF80C
30000C
000000
ENDCHAR

STARTCHAR cns1_2821
ENCODING 10273
SWIDTH 960 0
DWIDTH 24 0
BBX 24 24 0 -2
BITMAP
000000
000000
000030
1FFFF8
001800
001800
001800
001800
001800
001800
001860
0FFFF0
001800
001800
0018C0
001860
001860
001830
001830
001800
00180C
7FFFFE
000000
000000
ENDCHAR

STARTCHAR cns1_2822
ENCODING 10274
SWIDTH 960 0
DWIDTH 24 0
BBX 24 24 0 -2
BITMAP
000000
000030
0003F8
043E60
07F860
061860
061860
061860
061860
061860
061860
061860
061830
061830
061830
0C1830
0C1B18
0C1998
0C1B98
181ECC
183CCC
33E006
608006
000000
ENDCHAR

STARTCHAR cns1_2823
ENCODING 10275
SWIDTH 960 0
DWIDTH 24 0
BBX 24 24 0 -2
BITMAP
000000
00000C
7FFFFE
018000
018000
018000
018000
018300
01FF80
018300
030300
030300
036300
033300
031B00
031B00
030300
030304
030704
037F04
07C306
7C038E
3001FC
000000
ENDCHAR

STARTCHAR cns1_2824
ENCODING 10276
SWIDTH 960 0
DWIDTH 24 0
BBX 24 24 0 -2
BITMAP
000000
0380E0
0300C0
0300C0
0300C0
0300C0
0300CC
7FFFFE
0300C0
0300C0
0300C0
0300C0
0300C0
03FFC0
0300C0
0300C0
0300C0
0300C0
0300C0
0300C0
03FFC0
0300C0
0300C0
000000
ENDCHAR

STARTCHAR cns1_2825
ENCODING 10277
SWIDTH 960 0
DWIDTH 24 0
BBX 24 24 0 -2
BITMAP
000000
001C00
061800
071800
061800
061800
0C1830
0FFFF8
0C1800
181800
181800
301800
601800
001860
0FFFF0
001800
001800
001800
001800
001800
001800
00180C
7FFFFE
000000
ENDCHAR

STARTCHAR cns1_2826
ENCODING 10278
SWIDTH 960 0
DWIDTH 24 0
BBX 24 24 0 -2
BITMAP
000000
08000C
0FFFFE
0C0C0C
0C0C0C
0C0C0C
0C0C0C
0C0C0C
0FFFFC
0C0C0C
0C0C0C
0C0C0C
0C0C0C
0C0C0C
0FFFFC
0C0C0C
0C0C0C
180C0C
180C0C
180C0C
300C0C
300CFC
600C18
000000
ENDCHAR

STARTCHAR cns1_2827
ENCODING 10279
SWIDTH 960 0
DWIDTH 24 0
BBX 24 24 0 -2
BITMAP
000000
20000C
3FFFFE
30180C
30180C
30180C
30180C
30180C
30180C
30180C
30180C
3FFFFC
30180C
30180C
30180C
30180C
30180C
30180C
30180C
30180C
3FFFFC
30000C
30000C
000000
ENDCHAR

STARTCHAR cns1_2828
ENCODING 10280
SWIDTH 960 0
DWIDTH 24 0
BBX 24 24 0 -2
BITMAP
000000
000000
00000C
7FFFFE
000818
000830
000860
000800
070800
060800
060830
060FF8
060800
060800
060800
0F0800
0D8800
0CE800
183800
181C00
3007FE
6001FC
000000
000000
ENDCHAR

STARTCHAR cns1_2829
ENCODING 10281
SWIDTH 960 0
DWIDTH 24 0
BBX 24 24 0 -2
BITMAP
000000
000E00
080C0C
0FFFFE
0C0000
0C0000
0C0000
6C0000
3C0000
3C0000
0C0000
0C0000
0C0000
3C0000
3C0000
6C0000
0C0000
180000
180000
180000
300000
300000
600000
000000
ENDCHAR

STARTCHAR cns1_282A
ENCODING 10282
SWIDTH 960 0
DWIDTH 24 0
BBX 24 24 0 -2
BITMAP
000000
000000
0030C0
1FF8D8
003198
0C7B30
06CE60
0186C0
070380
1C01FE
7000E0
000000
000000
000000
000000
000000
000000
000000
000000
000000
000000
000000
000000
000000
ENDCHAR

STARTCHAR cns1_282B
ENCODING 10283
SWIDTH 960 0
DWIDTH 24 0
BBX 24 24 0 -2
BITMAP
000000
003800
003000
003000
003000
106018
1FFFFC
180018
180018
180018
180018
180018
180018
1FFFF8
180018
180018
180018
180018
180018
180018
180018
1FFFF8
180018
000000
ENDCHAR

STARTCHAR cns1_282C
ENCODING 10284
SWIDTH 960 0
DWIDTH 24 0
BBX 24 24 0 -2
BITMAP
000000
000E00
000C00
000C00
040C0C
07FFFE
060C0C
060C18
060C00
060C00
060C60
07FFF0
06C060
0660C0
0660C0
063180
0C1980
0C0F00
0C0700
180F80
1838F0
30E03E
63800C
000000
ENDCHAR

STARTCHAR cns1_282D
ENCODING 10285
SWIDTH 960 0
DWIDTH 24 0
BBX 24 24 0 -2
BITMAP
000000
000000
000000
200030
3FFFF8
318630
318630
318630
318630
318630
318630
318630
318630
318630
318630
318630
318630
318630
318630
318634
7FFFFE
000000
000000
000000
ENDCHAR

STARTCHAR cns1_282E
ENCODING 10286
SWIDTH 960 0
DWIDTH 24 0
BBX 24 24 0 -2
BITMAP
000000
080030
0FFFF8
0C0030
0C0030
0C0030
0C0030
0C0030
0FFFF0
0C0030
0C0030
0C0030
0C0030
0C0030
0C0030
0FFFF0
0C0030
0C0030
0C0030
0C0030
0C0030
0FFFF0
0C0030
000000
ENDCHAR

STARTCHAR cns1_282F
ENCODING 10287
SWIDTH 960 0
DWIDTH 24 0
BBX 24 24 0 -2
BITMAP
000000
0000C0
03FFE0
0000C0
000180
006180
003300
001E00
001C00
000C0C
7FFFFE
003C18
003C30
006C60
006C00
00CC00
018C00
030C00
060C00
1C0C00
700C00
00FC00
003800
000000
ENDCHAR

STARTCHAR cns1_2830
ENCODING 10288
SWIDTH 960 0
DWIDTH 24 0
BBX 24 24 0 -2
BITMAP
000000
018000
01C000
018000
018060
03FFF0
031800
061800
0C1800
181800
301800
001818
3FFFFC
001800
003C00
003C00
006600
006300
00C180
0180C0
030070
06003E
3C0018
000000
ENDCHAR

STARTCHAR cns1_2831
ENCODING 10289
SWIDTH 960 0
DWIDTH 24 0
BBX 24 24 0 -2
BITMAP
000000
000000
00000C
7FFFFE
00C000
00C000
00C000
018000
018000
018000
030030
03FFF8
070030
070030
0F0030
1B0030
330030
630030
030030
030030
03FFF0
030030
030030
000000
ENDCHAR

STARTCHAR cns1_2832
ENCODING 10290
SWIDTH 960 0
DWIDTH 24 0
BBX 24 24 0 -2
BITMAP
000000
000000
000000
000060
0FFFF0
000000
000000
000000
00000C
7FFFFE
001800
001800
001800
031980
0318C0
0618C0
061860
0C1860
181830
301830
601830
01F800
007000
000000
ENDCHAR

STARTCHAR cns1_2833
ENCODING 10291
SWIDTH 960 0
DWIDTH 24 0
BBX 24 24 0 -2
BITMAP
000000
003800
003000
003000
003000
40300C
7FFFFE
60600C
60600C
60600C
60C60C
60C30C
60C78C
61BCCC
67E0CC
63000C
60000C
60000C
60000C
60000C
60000C
6001FC
600038
000000
ENDCHAR

STARTCHAR cns1_2834
ENCODING 10292
SWIDTH 960 0
DWIDTH 24 0
BBX 24 24 0 -2
BITMAP
000000
0000C0
0003E0
000F00
00F800
1F9800
001800
001800
00180C
7FFFFE
003C00
007E00
007E00
00DB00
00D980
0199C0
0318E0
06187E
1C1838
701800
001800
001800
001800
000000
ENDCHAR

STARTCHAR cns1_2835
ENCODING 10293
SWIDTH 960 0
DWIDTH 24 0
BBX 24 24 0 -2
BITMAP
000000
001C00
001800
001800
20180C
3FFFFE
30000C
300018
600000
00C300
00EF80
00C300
00C300
00C300
018300
018180
030180
0300C0
0600C0
0C0060
180038
30001E
60000C
000000
ENDCHAR

STARTCHAR cns1_2836
ENCODING 10294
SWIDTH 960 0
DWIDTH 24 0
BBX 24 24 0 -2
BITMAP
000000
001C00
001800
001800
001800
001818
3FFFFC
000000
000060
030060
0300C0
0180C0
0180C0
0180C0
018180
00C180
00C180
00C180
00C300
000300
00030C
7FFFFE
000000
000000
ENDCHAR

STARTCHAR cns1_2837
ENCODING 10295
SWIDTH 960 0
DWIDTH 24 0
BBX 24 24 0 -2
BITMAP
000000
0701C0
060180
060180
060180
060180
0C330C
0FFBFE
0D8630
198630
198C30
318C30
619830
018030
018030
018030
018030
018030
018030
018030
018030
0183F0
018060
000000
ENDCHAR

STARTCHAR cns1_2838
ENCODING 10296
SWIDTH 960 0
DWIDTH 24 0
BBX 24 24 0 -2
BITMAP
000000
001C00
001800
001830
0C1830
061860
061860
0318C0
031980
00180C
7FFFFE
003800
007C00
007E00
00DB00
019980
0318C0
061870
0C183E
381818
001800
001800
001800
000000
ENDCHAR

STARTCHAR cns1_2839
ENCODING 10297
SWIDTH 960 0
DWIDTH 24 0
BBX 24 24 0 -2
BITMAP
000000
001800
001800
003000
003000
006180
07C180
018300
00C300
006660
003C30
001818
0071FC
7FFF0C
38180C
001800
019980
0198C0
031860
061830
0C1818
18180C
30180C
000000
ENDCHAR

STARTCHAR cns1_283A
ENCODING 10298
SWIDTH 960 0
DWIDTH 24 0
BBX 24 24 0 -2
BITMAP
000000
030000
038000
030000
060030
07FFF8
0C1800
181800
301800
601800
00180C
7FFFFE
001800
001800
0E1838
0C1830
0C1830
0C1830
0C1830
0C1830
0C1830
0FFFF0
0C0030
000000
ENDCHAR

STARTCHAR cns1_283B
ENCODING 10299
SWIDTH 960 0
DWIDTH 24 0
BBX 24 24 0 -2
BITMAP
000000
40000C
7FFFFE
60000C
60000C
60606C
60606C
60606C
6C78CC
66CCCC
63C6CC
61838C
61818C
63C3CC
6366CC
666C6C
6C186C
60300C
60000C
60000C
60000C
6000FC
600018
000000
ENDCHAR

STARTCHAR cns1_283C
ENCODING 10300
SWIDTH 960 0
DWIDTH 24 0
BBX 24 24 0 -2
BITMAP
000000
0300C0
010180
018180
00C300
00C318
3FFFFC
001800
001800
001830
0FFFF8
001800
001800
001800
00180C
7FFFFE
001800
001800
001800
001800
001800
001800
001800
000000
ENDCHAR

STARTCHAR cns1_283D
ENCODING 10301
SWIDTH 960 0
DWIDTH 24 0
BBX 24 24 0 -2
BITMAP
000000
000000
00600C
7FF7FE
00600C
00600C
18660C
0C630C
0E638C
0661CC
0760CC
0360CC
00600C
00600C
0660CC
0C618C
3C638C
38670C
30660C
00640C
00600C
0FE1FC
01C038
000000
ENDCHAR

STARTCHAR cns1_283E
ENCODING 10302
SWIDTH 960 0
DWIDTH 24 0
BBX 24 24 0 -2
BITMAP
000000
003800
00301C
003018
003330
0FFFB0
003060
0030C0
003180
00330C
7FFFFE
000C00
003830
006078
01E3C0
076E00
1C7804
706004
006004
006004
006006
00700E
003FFC
000000
ENDCHAR

STARTCHAR cns1_283F
ENCODING 10303
SWIDTH 960 0
DWIDTH 24 0
BBX 24 24 0 -2
BITMAP
000000
000000
00000C
7FFFFE
003000
003000
003000
106018
1FFFFC
18C318
18C318
18C318
18C318
18C318
18C318
18C318
18C318
18C318
18C318
18C318
18C318
18C3F8
180030
000000
ENDCHAR

STARTCHAR cns1_2840
ENCODING 10304
SWIDTH 960 0
DWIDTH 24 0
BBX 24 24 0 -2
BITMAP
000000
001C00
001860
001BF0
007E00
1FD800
001800
001830
1FFFF8
001800
001800
00180C
7FFFFE
003C00
007E00
007B00
00D980
0198C0
031870
06183E
1C1818
701800
001800
000000
ENDCHAR

STARTCHAR cns1_2841
ENCODING 10305
SWIDTH 960 0
DWIDTH 24 0
BBX 24 24 0 -2
BITMAP
000000
000000
00000C
7FFFFE
0300C0
0300C0
0300C0
0300C0
03FFC0
0300C0
0300C0
0300C0
03FFC0
0300C0
0300C0
0300C0
0300CC
0303FE
03FFC0
7F00C0
3800C0
0000C0
0000C0
000000
ENDCHAR

STARTCHAR cns1_2842
ENCODING 10306
SWIDTH 960 0
DWIDTH 24 0
BBX 24 24 0 -2
BITMAP
000000
001C00
001800
001818
0FFFFC
001818
001818
7FFFFE
001818
001818
0FFFF8
001818
001800
001860
0FFFF0
001800
001800
00180C
7FFFFE
001800
001800
001800
001800
000000
ENDCHAR

STARTCHAR cns1_2843
ENCODING 10307
SWIDTH 960 0
DWIDTH 24 0
BBX 24 24 0 -2
BITMAP
000000
001800
01FC00
001800
001800
20180C
3FFFFE
301C0C
30360C
30330C
30618C
30D8CC
319C6C
33186C
36300C
303C0C
30660C
30630C
31C18C
37018C
30000C
3000FC
300038
000000
ENDCHAR

STARTCHAR cns1_2844
ENCODING 10308
SWIDTH 960 0
DWIDTH 24 0
BBX 24 24 0 -2
BITMAP
000000
100018
1FFFFC
181800
181800
181800
181800
181830
1FFFF8
180030
180030
180030
180030
180030
1FFFF0
181830
181800
181800
181800
181800
18180C
1FFFFE
180000
000000
ENDCHAR

STARTCHAR cns1_2845
ENCODING 10309
SWIDTH 960 0
DWIDTH 24 0
BBX 24 24 0 -2
BITMAP
000000
001800
001800
003000
086030
0FFFF8
0C0030
0C0030
0C0030
0C0030
0FFFF0
0C0030
0C0030
0C0030
0C0030
0FFFF0
0C0030
0C0030
0C0030
0C0030
0C0030
0FFFF0
0C0030
000000
ENDCHAR

STARTCHAR cns1_2846
ENCODING 10310
SWIDTH 960 0
DWIDTH 24 0
BBX 24 24 0 -2
BITMAP
000000
000000
000018
3FFFFC
006000
006000
00C180
00C0C0
018060
1FFFF0
0C1830
001830
001800
001800
001860
0FFFF0
001800
001800
001800
001800
00180C
7FFFFE
000000
000000
ENDCHAR

STARTCHAR cns1_2847
ENCODING 10311
SWIDTH 960 0
DWIDTH 24 0
BBX 24 24 0 -2
BITMAP
000000
000000
00E000
01C00C
2703FE
3C000C
30000C
30000C
30000C
30000C
30000C
30600C
3FF3FC
30000C
30000C
30000C
30000C
30000C
30000C
30000C
3FFFFC
30000C
000000
000000
ENDCHAR

STARTCHAR cns1_2848
ENCODING 10312
SWIDTH 960 0
DWIDTH 24 0
BBX 24 24 0 -2
BITMAP
000000
000070
0007F8
00FC00
3F9800
001800
001800
001800
00180C
3FFFFE
001800
001800
001800
041860
07FFF0
060060
060060
060060
060060
060060
060060
07FFE0
060060
000000
ENDCHAR

STARTCHAR cns1_2849
ENCODING 10313
SWIDTH 960 0
DWIDTH 24 0
BBX 24 24 0 -2
BITMAP
000000
060070
070060
060060
060060
0C606C
0FFFFE
0C6060
186E60
186C60
30CC60
38CC60
6CCC60
678C60
038C6C
030FFE
060C60
060060
0C0060
0C0060
180060
300060
600060
000000
ENDCHAR

STARTCHAR cns1_284A
ENCODING 10314
SWIDTH 960 0
DWIDTH 24 0
BBX 24 24 0 -2
BITMAP
000000
001C00
001800
001800
043060
07FFF0
060060
063060
061860
060C60
060C60
06006C
7FFFFE
061860
061860
061860
061860
0C1860
0C1860
0C1860
181860
1807E0
3000C0
000000
ENDCHAR

STARTCHAR cns1_284B
ENCODING 10315
SWIDTH 960 0
DWIDTH 24 0
BBX 24 24 0 -2
BITMAP
000000
0400C0
07FFE0
0600C0
0600C0
0600C0
07FFC0
0600C0
0600C0
0600C0
07FFC0
0630C0
063000
061830
061860
060CC0
060780
060300
060180
061CC0
06F070
3F803C
1C0018
000000
ENDCHAR

STARTCHAR cns1_284C
ENCODING 10316
SWIDTH 960 0
DWIDTH 24 0
BBX 24 24 0 -2
BITMAP
000000
01C000
018300
03FF80
030300
060600
060600
0C0C30
1FFFF8
3C1830
6C1830
0C1830
0C1830
0C1830
0FFFF0
0C0030
0C0000
0C0004
0C0004
0C0004
0C0006
0E000E
07FFFC
000000
ENDCHAR

STARTCHAR cns1_284D
ENCODING 10317
SWIDTH 960 0
DWIDTH 24 0
BBX 24 24 0 -2
BITMAP
000000
0700E0
0600C0
0600C0
0600C0
766ECE
666CCC
666CCC
666CCC
666CCC
666CCC
666CCC
666CCC
666CCC
7FEFFC
666CCC
0600C0
0C00C0
0C00C0
1800C0
1800C0
3000C0
600080
000000
ENDCHAR

STARTCHAR cns1_284E
ENCODING 10318
SWIDTH 960 0
DWIDTH 24 0
BBX 24 24 0 -2
BITMAP
000000
003800
003030
003FF8
003000
10300C
1FFFFE
18000C
183808
183000
1837E0
1BFC00
19B010
183010
183018
303838
301FF0
300000
300000
300000
300000
600000
600000
000000
ENDCHAR

STARTCHAR cns1_284F
ENCODING 10319
SWIDTH 960 0
DWIDTH 24 0
BBX 24 24 0 -2
BITMAP
000000
001C00
001800
001800
001800
101818
1FFFFC
181818
181818
181818
181818
181818
181818
1FFFF8
181818
001800
001860
001830
001818
001FFC
01FC0C
7F0006
300006
000000
ENDCHAR

STARTCHAR cns1_2850
ENCODING 10320
SWIDTH 960 0
DWIDTH 24 0
BBX 24 24 0 -2
BITMAP
000000
003000
003000
006000
006000
20C030
3FFFF8
318630
318630
318630
318630
318630
318630
318630
318630
318630
318630
318630
318630
318630
318634
7FFFFE
000000
000000
ENDCHAR

STARTCHAR cns1_2851
ENCODING 10321
SWIDTH 960 0
DWIDTH 24 0
BBX 24 24 0 -2
BITMAP
000000
000000
060018
063FFC
0C0000
0C0000
198000
318000
03000C
037FFE
0600C0
0C00C0
1C00C0
3C00C0
6C00C0
0C00C0
0C00C0
0C00C0
0C00C0
0C00C0
0C00C0
0C1FC0
0C0380
000000
ENDCHAR

STARTCHAR cns1_2852
ENCODING 10322
SWIDTH 960 0
DWIDTH 24 0
BBX 24 24 0 -2
BITMAP
000000
001C00
001800
001800
001800
00180C
7FFFFE
003C00
006C00
006C30
00C630
018660
0386C0
078380
0D8300
198180
718180
0180C0
019CE0
01F078
01C03E
3F0018
1C0000
000000
ENDCHAR

STARTCHAR cns1_2853
ENCODING 10323
SWIDTH 960 0
DWIDTH 24 0
BBX 24 24 0 -2
BITMAP
000000
00000C
7FFFFE
00C300
00C300
00C300
00C300
20C30C
3FFFFE
30C30C
30C30C
30C30C
30C30C
30C30C
30FF0C
30C30C
30000C
30000C
30000C
30000C
30000C
30000C
30000C
000000
ENDCHAR

STARTCHAR cns1_2854
ENCODING 10324
SWIDTH 960 0
DWIDTH 24 0
BBX 24 24 0 -2
BITMAP
000000
020060
03FFF0
030060
030060
030060
03FFE0
030060
030060
030060
03FFE0
030060
030060
030060
03FFE0
006600
006600
00C604
00C604
018604
070606
1C070E
7003FC
000000
ENDCHAR

STARTCHAR cns1_2855
ENCODING 10325
SWIDTH 960 0
DWIDTH 24 0
BBX 24 24 0 -2
BITMAP
000000
00C000
00C300
01FF80
018300
030600
060C18
0FFFFC
1E0C18
760C18
060C18
060C18
07FFF8
060C18
060C18
060C18
07FFF8
0C0018
0C0018
180018
180018
3003F8
600070
000000
ENDCHAR

STARTCHAR cns1_2856
ENCODING 10326
SWIDTH 960 0
DWIDTH 24 0
BBX 24 24 0 -2
BITMAP
000000
006000
003000
003800
00180C
3FFFFE
000000
000000
000060
07FFF0
000000
000060
07FFF0
000000
000000
040060
07FFF0
060060
060060
060060
060060
07FFE0
060060
000000
ENDCHAR

STARTCHAR cns1_2857
ENCODING 10327
SWIDTH 960 0
DWIDTH 24 0
BBX 24 24 0 -2
BITMAP
000000
000000
018180
0300C0
061860
0C1830
383030
003400
006600
00C300
018180
0300E0
060070
0E00FE
7BFFFC
0300C0
0300C0
0300C0
0300C0
0300C0
0300C0
03FFC0
0300C0
000000
ENDCHAR

STARTCHAR cns1_2858
ENCODING 10328
SWIDTH 960 0
DWIDTH 24 0
BBX 24 24 0 -2
BITMAP
000000
000000
000018
3FFFFC
000000
000000
080060
0FFFF0
0C0060
0C0060
0C0060
0C0060
0C0060
0FFFE0
0C0060
030000
0181C0
018180
00C180
00C300
00030C
7FFFFE
000000
000000
ENDCHAR

STARTCHAR cns1_2859
ENCODING 10329
SWIDTH 960 0
DWIDTH 24 0
BBX 24 24 0 -2
BITMAP
000000
000000
00000C
7FFFFE
003600
006600
01E610
076638
1C3360
7073C0
00DB00
019980
031980
0E1D80
383CC0
006CC0
00CC60
038C70
0E0C38
780C1E
001C0C
03F800
007000
000000
ENDCHAR

STARTCHAR cns1_285A
ENCODING 10330
SWIDTH 960 0
DWIDTH 24 0
BBX 24 24 0 -2
BITMAP
000000
000C00
001E00
007000
01CC38
0F0670
00C0C0
006380
000E00
007C00
03C600
3E0700
000D80
003980
00E0C0
0783C0
3C06C0
001CC0
0070C0
03C0C0
1E01C0
003F80
000700
000000
ENDCHAR

STARTCHAR cns1_285B
ENCODING 10331
SWIDTH 960 0
DWIDTH 24 0
BBX 24 24 0 -2
BITMAP
000000
040060
07FFF0
060060
060060
060060
060060
07FFE0
060060
060060
060060
07FFE0
060060
060060
060060
060060
07FFE0
060060
00C300
00C180
0180C0
070070
3C0038
000000
ENDCHAR

STARTCHAR cns1_285C
ENCODING 10332
SWIDTH 960 0
DWIDTH 24 0
BBX 24 24 0 -2
BITMAP
000000
001C00
001800
001800
001830
0FFFF8
001800
001800
001800
00180C
7FFFFE
006600
066600
066660
0CC630
0CC618
18C618
19860C
31860C
630600
030600
067E00
1C1C00
000000
ENDCHAR

STARTCHAR cns1_285D
ENCODING 10333
SWIDTH 960 0
DWIDTH 24 0
BBX 24 24 0 -2
BITMAP
000000
001C00
001800
001800
001860
07FFF0
001800
001800
001800
00180C
3FFFFE
001800
071800
061860
061FF0
061800
071800
0D9800
0CD800
187800
183C00
3007FE
6000F8
000000
ENDCHAR

STARTCHAR cns1_285E
ENCODING 10334
SWIDTH 960 0
DWIDTH 24 0
BBX 24 24 0 -2
BITMAP
000000
080060
0FFFF0
0C0060
0C0060
0C0060
0C0060
0C0060
0C0060
0FFFE0
0C1860
001800
0E1800
0C1860
0C1FF0
0C1800
0C1800
0E1800
0F1800
199800
18F800
303FFE
600FFC
000000
ENDCHAR

STARTCHAR cns1_285F
ENCODING 10335
SWIDTH 960 0
DWIDTH 24 0
BBX 24 24 0 -2
BITMAP
000000
001C00
001800
0230C0
03FFE0
0300C0
0300C0
0300C0
03FFC0
0300C6
0300C6
03FFCC
0300D8
0301F0
033FE0
7FE1C0
3807C0
001CC0
0070C0
01C0C0
0700C0
3C0FC0
000180
000000
ENDCHAR

STARTCHAR cns1_2860
ENCODING 10336
SWIDTH 960 0
DWIDTH 24 0
BBX 24 24 0 -2
BITMAP
000000
001C00
001800
001800
001818
1FFFFC
001800
041860
07FFF0
061860
061860
061860
07FFE0
061860
061860
07FFE0
061860
00180C
7FFFFE
001800
001800
001800
001800
000000
ENDCHAR

STARTCHAR cns1_2861
ENCODING 10337
SWIDTH 960 0
DWIDTH 24 0
BBX 24 24 0 -2
BITMAP
000000
001C00
001800
001830
1FFFF8
000000
0300C0
0180C0
018180
00C180
00C30C
7FFFFE
001800
001800
001800
001830
1FFFF8
001800
001800
001800
001800
001800
001800
000000
ENDCHAR

STARTCHAR cns1_2862
ENCODING 10338
SWIDTH 960 0
DWIDTH 24 0
BBX 24 24 0 -2
BITMAP
000000
100018
1FFFFC
180000
180000
180000
180060
19FFF0
180000
180000
18000C
1FFFFE
186300
186308
18631C
1861B0
1861E0
1860C0
306EC0
307860
30E038
67C01E
63000C
000000
ENDCHAR

STARTCHAR cns1_2863
ENCODING 10339
SWIDTH 960 0
DWIDTH 24 0
BBX 24 24 0 -2
BITMAP
000000
003000
003600
006600
01CC00
0F1860
0070E0
01C380
0F0E00
003800
01E000
0F1C00
001800
001800
071800
061830
061FF8
061800
0E1800
0F1800
199800
30FFFE
601FF8
000000
ENDCHAR

STARTCHAR cns1_2864
ENCODING 10340
SWIDTH 960 0
DWIDTH 24 0
BBX 24 24 0 -2
BITMAP
000000
0400C0
07FFE0
0600C0
0600C0
0600C0
0600C0
07FFC0
0600C0
200030
3FFFF8
303030
303030
303030
303030
3FFFF0
300030
300004
300004
300004
300006
38000E
1FFFFC
000000
ENDCHAR

STARTCHAR cns1_2865
ENCODING 10341
SWIDTH 960 0
DWIDTH 24 0
BBX 24 24 0 -2
BITMAP
000000
00000C
7FFFFE
00CC00
00CC00
00CC00
20CC0C
3FFFFE
30CC0C
30CC4C
318C4C
318E6C
3307CC
36000C
30000C
30000C
3FFFFC
30000C
30000C
30000C
3FFFFC
30000C
30000C
000000
ENDCHAR

STARTCHAR cns1_2866
ENCODING 10342
SWIDTH 960 0
DWIDTH 24 0
BBX 24 24 0 -2
BITMAP
000000
0000F0
081FC0
0FF000
0C1030
0C1818
181818
18080C
30000C
601C00
001800
00180C
7FFFFE
007C00
007E00
00DB00
019980
0318E0
061878
0C183E
181818
701800
001800
000000
ENDCHAR

STARTCHAR cns1_2867
ENCODING 10343
SWIDTH 960 0
DWIDTH 24 0
BBX 24 24 0 -2
BITMAP
000000
000000
080030
0FFFF8
0C1830
0C1830
0C1830
0FFFF0
0C1830
0C1830
0C1830
0C1830
0FFFF0
0C1830
001800
001800
001830
1FFFF8
001800
001800
00180C
7FFFFE
000000
000000
ENDCHAR

STARTCHAR cns1_2868
ENCODING 10344
SWIDTH 960 0
DWIDTH 24 0
BBX 24 24 0 -2
BITMAP
000000
001800
001800
003C00
006600
00C300
018180
0300E0
060378
1DFFBE
701818
001800
001800
001830
1FFFF8
061800
031860
031860
0198C0
019980
019B00
00180C
7FFFFE
000000
ENDCHAR

STARTCHAR cns1_2869
ENCODING 10345
SWIDTH 960 0
DWIDTH 24 0
BBX 24 24 0 -2
BITMAP
000000
020060
03FFF0
030000
030000
0300C0
03FFE0
030000
0300C0
03FFE0
030000
030000
03000C
7FFFFE
031860
030C70
0306C0
030380
033980
0360C0
07C070
3E003E
180018
000000
ENDCHAR

STARTCHAR cns1_286A
ENCODING 10346
SWIDTH 960 0
DWIDTH 24 0
BBX 24 24 0 -2
BITMAP
000000
40C80C
7FEFFE
60CC0C
60CC0C
60CC0C
7FCFFC
60CC0C
60CC0C
60CC0C
7FCFFC
60CC0C
60000C
60000C
60000C
60000C
60000C
60000C
60000C
60000C
60000C
6001FC
600038
000000
ENDCHAR

STARTCHAR cns1_286B
ENCODING 10347
SWIDTH 960 0
DWIDTH 24 0
BBX 24 24 0 -2
BITMAP
000000
003800
003000
043060
07FFF0
060060
060060
060060
07FFE0
060060
060030
07FFF8
060030
060030
060030
07FFF0
001800
00180C
7FFFFE
001800
001800
001800
001800
000000
ENDCHAR

STARTCHAR cns1_286C
ENCODING 10348
SWIDTH 960 0
DWIDTH 24 0
BBX 24 24 0 -2
BITMAP
000000
001C00
001800
0018C0
07FFE0
0018C0
0018CC
3FFFFE
0018C0
0018C0
0018C0
07FFC0
001820
0C1870
061CC0
031F80
033B00
00F980
0398C0
3E1870
18183C
03F800
007000
000000
ENDCHAR

STARTCHAR cns1_286D
ENCODING 10349
SWIDTH 960 0
DWIDTH 24 0
BBX 24 24 0 -2
BITMAP
000000
030300
038380
030300
030600
060C18
0FFFFC
0E0C00
1E0C00
360C00
660C30
07FFF8
060C00
060C00
060C00
060C30
07FFF8
060C00
060C00
060C00
060C0C
07FFFE
060000
000000
ENDCHAR

STARTCHAR cns1_286E
ENCODING 10350
SWIDTH 960 0
DWIDTH 24 0
BBX 24 24 0 -2
BITMAP
000000
000000
00000C
7FFFFE
001800
001800
001800
20180C
3FFFFE
30180C
331B0C
31998C
30D8CC
30186C
30180C
361B0C
33198C
3198CC
30D86C
30180C
30180C
3019FC
301838
000000
ENDCHAR

STARTCHAR cns1_286F
ENCODING 10351
SWIDTH 960 0
DWIDTH 24 0
BBX 24 24 0 -2
BITMAP
000000
001C00
001818
3FFFFC
001800
001860
0FFFF0
001800
00180C
7FFFFE
000000
020060
03FFF0
030060
030060
03FFE0
030060
030060
03FFE0
030060
060060
0607E0
0C01C0
000000
ENDCHAR

STARTCHAR cns1_2870
ENCODING 10352
SWIDTH 960 0
DWIDTH 24 0
BBX 24 24 0 -2
BITMAP
000000
00E380
00C300
00C300
00C300
00C30C
7FC3FE
00C300
00C300
00C318
00C3FC
3FC300
00C300
00C300
00F300
01C30C
0F83FE
798300
318300
030300
060300
0C0300
380300
000000
ENDCHAR

STARTCHAR cns1_2871
ENCODING 10353
SWIDTH 960 0
DWIDTH 24 0
BBX 24 24 0 -2
BITMAP
000000
000000
00000C
7FFFFE
003000
003000
006000
40600C
7FFFFE
61830C
61830C
61830C
61FF0C
61830C
61830C
61830C
61FF0C
61830C
61830C
61830C
61830C
7FFFFC
60000C
000000
ENDCHAR

STARTCHAR cns1_2872
ENCODING 10354
SWIDTH 960 0
DWIDTH 24 0
BBX 24 24 0 -2
BITMAP
000000
01C1C0
018180
01818C
7FFFFE
018180
018180
018180
01FF80
019980
081830
0FFFF8
0C1830
0C1830
0C1830
0FFFF0
0C1830
00180C
7FFFFE
001800
001800
001800
001800
000000
ENDCHAR

STARTCHAR cns1_2873
ENCODING 10355
SWIDTH 960 0
DWIDTH 24 0
BBX 24 24 0 -2
BITMAP
000000
007000
006000
0060C0
0FFFE0
00C0C0
00C0CC
3FFFFE
000000
040060
07FFF0
060060
060060
07FFE0
060C60
000C00
1FFFF0
0C0C00
0C0C18
0FFFFC
180C00
000C00
000C00
000000
ENDCHAR

STARTCHAR cns1_2874
ENCODING 10356
SWIDTH 960 0
DWIDTH 24 0
BBX 24 24 0 -2
BITMAP
000000
00E700
00C600
00C600
00C600
00C60C
3FC7FE
00C600
00C600
00C600
00C618
3FC7FC
00C600
00C600
00C600
00C618
7FC7FC
00C600
00C600
00C600
00C60C
7FFFFE
000000
000000
ENDCHAR

STARTCHAR cns1_2875
ENCODING 10357
SWIDTH 960 0
DWIDTH 24 0
BBX 24 24 0 -2
BITMAP
000000
001C00
001800
001818
3FFFFC
0000C0
0000C0
018180
00C180
00C30C
7FFFFE
000000
040060
07FFF0
060060
060060
060060
07FFE0
060060
060060
060060
07FFE0
060060
000000
ENDCHAR

STARTCHAR cns1_2876
ENCODING 10358
SWIDTH 960 0
DWIDTH 24 0
BBX 24 24 0 -2
BITMAP
000000
00000C
7FFFFE
001800
001800
083030
0FFFF8
0C0030
0C0030
0C0030
0FFFF0
0C0030
0C0030
0C0030
0FFFF0
0C0030
0C0030
0C0030
0FFFF0
0DC330
038180
0E00E0
380038
000000
ENDCHAR

STARTCHAR cns1_2877
ENCODING 10359
SWIDTH 960 0
DWIDTH 24 0
BBX 24 24 0 -2
BITMAP
000000
100030
1FFFF8
180030
1807B0
181E30
18F830
1BB030
183030
1A3330
1BFFB0
1B3330
1B3330
1B3330
1B3330
1BFF30
1B3330
183032
30331A
303F9A
37F0CE
6300CE
600006
000000
ENDCHAR

STARTCHAR cns1_2878
ENCODING 10360
SWIDTH 960 0
DWIDTH 24 0
BBX 24 24 0 -2
BITMAP
000000
000000
000180
1FFFDC
0001B0
01DCE0
0718C0
3F186C
03187A
031832
0318DA
3FFFEE
0318C6
0318D8
0318F0
0318E0
0618CC
061878
061862
0C1832
0C181A
18180E
301806
000000
ENDCHAR

STARTCHAR cns1_2879
ENCODING 10361
SWIDTH 960 0
DWIDTH 24 0
BBX 24 24 0 -2
BITMAP
000000
001800
003C00
006600
00C300
018180
0306E0
067F78
0E003E
1BFFD8
7300C0
0300C0
03FFC0
0300C0
0300C0
03FFC0
030C38
030660
0303C0
031980
0370E0
03C07E
1E0030
000000
ENDCHAR

STARTCHAR cns1_287A
ENCODING 10362
SWIDTH 960 0
DWIDTH 24 0
BBX 24 24 0 -2
BITMAP
000000
030180
0181C0
00C300
00C60C
7FFFFE
003000
003000
046060
07FFF0
060060
060060
060060
07FFE0
060060
060060
060060
07FFE0
060060
060060
060060
07FFE0
060060
000000
ENDCHAR

STARTCHAR cns1_287B
ENCODING 10363
SWIDTH 960 0
DWIDTH 24 0
BBX 24 24 0 -2
BITMAP
000000
0000E0
000FF0
0FF800
001800
00180C
7FFFFE
007E00
00DB00
019980
0318E0
061838
1E18DE
73FFE0
0300C0
0300C0
0300C0
03FFC0
0300C0
0300C0
0300C0
03FFC0
0300C0
000000
ENDCHAR

STARTCHAR cns1_287C
ENCODING 10364
SWIDTH 960 0
DWIDTH 24 0
BBX 24 24 0 -2
BITMAP
000000
080030
0FFFF8
0C1800
0C1800
0C18C0
0FFFE0
0C1800
0C1800
0C18C0
0FFFE0
0C1800
0C1800
0C180C
0FFFFE
0C000C
00030C
13198C
118CCC
318CCC
30C61C
60C6F8
600030
000000
ENDCHAR

STARTCHAR cns1_287D
ENCODING 10365
SWIDTH 960 0
DWIDTH 24 0
BBX 24 24 0 -2
BITMAP
000000
020060
03FFF0
030060
031060
031FE0
031860
031860
23186C
3FFFFE
30000C
3200C8
63FFE0
0300C0
0300C0
03FFC0
0300C0
0300C0
03FFC0
0300C0
0300C0
0307C0
030180
000000
ENDCHAR

STARTCHAR cns1_287E
ENCODING 10366
SWIDTH 960 0
DWIDTH 24 0
BBX 24 24 0 -2
BITMAP
000000
001C00
001800
00180C
7FFFFE
000000
0200C0
03FFE0
0300C0
0300C0
03FFC0
0300C0
100018
1FFFFC
180018
188318
18FF98
18C318
18C318
18FF18
18C318
1800F8
180030
000000
ENDCHAR

STARTCHAR cns1_2921
ENCODING 10529
SWIDTH 960 0
DWIDTH 24 0
BBX 24 24 0 -2
BITMAP
000000
106000
1FF018
180030
180060
18C0C0
1FE180
180700
18DC0C
1FE018
180030
180060
1860C0
7FF380
0C0E06
0D800C
18C018
18C030
306060
33E0C0
7E6180
306700
001C00
000000
ENDCHAR

STARTCHAR cns1_2922
ENCODING 10530
SWIDTH 960 0
DWIDTH 24 0
BBX 24 24 0 -2
BITMAP
000000
70000E
60202C
6FF7FC
61818C
61818C
67E7EC
61818C
61A1AC
6FF7FC
60000C
60000C
60000C
60000C
60000C
60000C
60000C
60000C
60000C
60000C
60000C
6000FC
600038
000000
ENDCHAR

STARTCHAR cns1_2923
ENCODING 10531
SWIDTH 960 0
DWIDTH 24 0
BBX 24 24 0 -2
BITMAP
000000
000000
70318E
63198C
61830C
60E60C
663CCC
631C6C
60770C
61D9CC
6F0CCC
60000C
7FFFFC
60000C
0E0000
0C01E0
0C0F00
0CF804
0F8004
0C0004
0C0006
0E000E
07FFFC
000000
ENDCHAR

STARTCHAR cns1_2924
ENCODING 10532
SWIDTH 960 0
DWIDTH 24 0
BBX 24 24 0 -2
BITMAP
000000
000000
00000C
7FFFFE
000000
0200C0
03FFE0
0300C0
0300C0
03FFC0
0300C0
20000C
3FFFFE
30C30C
30C30C
30660C
303C0C
31FFCC
30180C
30180C
30180C
3018FC
301838
000000
ENDCHAR

STARTCHAR cns1_2925
ENCODING 10533
SWIDTH 960 0
DWIDTH 24 0
BBX 24 24 0 -2
BITMAP
000000
003800
003000
083030
0FFFF8
0C1830
0C1830
0C1830
0FFFF0
0C1830
0C1830
0C1830
0FFFF0
0CCC30
00CCC0
00CCC0
00CCC0
018DA4
018F74
030FB4
060C06
1C0E0E
7007FC
000000
ENDCHAR

STARTCHAR cns1_2926
ENCODING 10534
SWIDTH 960 0
DWIDTH 24 0
BBX 24 24 0 -2
BITMAP
000000
018000
01C000
018300
03FF80
030300
060600
0C0C30
1FFFF8
361830
061830
061830
07FFF0
061830
061830
061830
07FFF0
060030
000000
0C8410
18C618
30630C
30630C
000000
ENDCHAR

STARTCHAR cns1_2927
ENCODING 10535
SWIDTH 960 0
DWIDTH 24 0
BBX 24 24 0 -2
BITMAP
000000
007000
006000
0860C0
0FFFE0
0C00C0
0C00C0
0FFFC0
0C00C0
0C00C0
0FFFC0
0C00C0
0C0018
0FFFFC
0C0000
0C000C
0FFFFE
0C020C
12230C
33318C
33198C
61987C
619818
000000
ENDCHAR

STARTCHAR cns1_2928
ENCODING 10536
SWIDTH 960 0
DWIDTH 24 0
BBX 24 24 0 -2
BITMAP
000000
003800
003000
0030C0
003FE0
003000
203018
3FFFFC
306018
303318
318318
30C618
306D98
3C38D8
361C18
333618
306318
30C1D8
31B0D8
331818
300018
3FFFF8
300018
000000
ENDCHAR

STARTCHAR cns1_2929
ENCODING 10537
SWIDTH 960 0
DWIDTH 24 0
BBX 24 24 0 -2
BITMAP
000000
000E00
000C00
100C0C
1FFFFE
186300
186318
1FFFFC
186318
186318
186318
1FFFF8
180018
19C380
198330
19B378
19FBE0
198300
318304
318304
31FB06
6F838E
6601FC
000000
ENDCHAR

STARTCHAR cns1_292A
ENCODING 10538
SWIDTH 960 0
DWIDTH 24 0
BBX 24 24 0 -2
BITMAP
000000
001C00
001800
00180C
7FFFFE
061860
061860
0618E0
0F18E0
0DB9B0
19FF18
30DB8C
0188C0
037070
0661BE
1CFFDC
718180
03E300
063E00
0C1F00
007180
01C0E0
0F0070
000000
ENDCHAR

STARTCHAR cns1_292B
ENCODING 10539
SWIDTH 960 0
DWIDTH 24 0
BBX 24 24 0 -2
BITMAP
000000
000E00
000C00
100C0C
1FFFFE
18C060
18C060
18D86C
1FFDFE
18C060
18C060
1AD168
1AD168
1AD168
1AD168
1AD168
1AD568
1AD56A
32DD6A
36C36A
30C66E
60C060
60C060
000000
ENDCHAR

STARTCHAR cns1_292C
ENCODING 10540
SWIDTH 960 0
DWIDTH 24 0
BBX 24 24 0 -2
BITMAP
000000
018300
018300
018318
3FFFFC
018300
018300
01FF00
00000C
7FFFFE
000000
080030
0FFFF8
0C1830
0C1830
0FFFF0
0C1830
0C1830
0FFFF0
0C0030
01C380
0700E0
3C0038
000000
ENDCHAR

STARTCHAR cns1_292D
ENCODING 10541
SWIDTH 960 0
DWIDTH 24 0
BBX 24 24 0 -2
BITMAP
000000
000000
0003F0
007E00
0FD800
00180C
3FFFFE
007800
00DE00
039B80
0E18E0
383E38
006300
01D9C0
071870
1C181E
7319C0
019B00
007E00
03DB80
1E19F0
00F8C0
003000
000000
ENDCHAR

STARTCHAR cns1_292E
ENCODING 10542
SWIDTH 960 0
DWIDTH 24 0
BBX 24 24 0 -2
BITMAP
000000
080018
0FFFFC
0C1818
0C1818
0F1998
0D9998
0CDB18
0CDE18
0C1818
0FFFF8
0C1818
001800
001860
07FFF0
001800
00180C
7FFFFE
000000
088430
18C618
30630C
30630C
000000
ENDCHAR

STARTCHAR cns1_292F
ENCODING 10543
SWIDTH 960 0
DWIDTH 24 0
BBX 24 24 0 -2
BITMAP
000000
00E700
18C630
0CC630
06C660
06C6CC
7FFFFE
019800
0319C0
061870
1C181C
7FFFFC
0C1830
0CF9F0
0CD9B0
0CD9B0
0CD9B0
0D99B0
0D99B0
0D99B0
0F1830
0C19F0
0C1860
000000
ENDCHAR

STARTCHAR cns1_2930
ENCODING 10544
SWIDTH 960 0
DWIDTH 24 0
BBX 24 24 0 -2
BITMAP
000000
2000C0
3FFFE0
3198C0
3198C0
3198C0
3F9FC0
3198C0
019800
419860
7F9FF0
619860
619860
619860
7F9FE0
619860
619860
619864
7F9FE4
619864
018006
01C00E
00FFFC
000000
ENDCHAR

STARTCHAR cns1_2931
ENCODING 10545
SWIDTH 960 0
DWIDTH 24 0
BBX 24 24 0 -2
BITMAP
000000
010180
01FFC0
1D819C
198198
19FF98
198198
198198
19FF98
198198
198198
19FF98
18C418
1FE7F8
18C618
00C60C
7FC7FE
0CC630
0CC630
18C630
18C630
30C630
60C630
000000
ENDCHAR

STARTCHAR cns1_2932
ENCODING 10546
SWIDTH 960 0
DWIDTH 24 0
BBX 24 24 0 -2
BITMAP
000000
0700E0
0600C0
0660C0
7FF0C0
0600CC
060FFE
06C0C0
3FE0C0
0000CC
20DFFE
3FE60C
30C60C
30C318
30C318
3FC1B0
30C1E0
0080C0
1181E0
196370
0FC638
781C1E
30700C
000000
ENDCHAR

STARTCHAR cns1_2933
ENCODING 10547
SWIDTH 960 0
DWIDTH 24 0
BBX 24 24 0 -2
BITMAP
000000
007018
11C7FC
1F0018
180018
186018
1FF7F8
180018
180018
1FFFF8
180018
181830
1E1E30
1B1B30
1999B0
1E1E30
1B1B30
1999B0
181832
19DBB2
1F1E3A
7CF01E
30400E
000000
ENDCHAR

STARTCHAR cns1_2934
ENCODING 10548
SWIDTH 960 0
DWIDTH 24 0
BBX 24 24 0 -2
BITMAP
000000
001C00
021860
03FFF0
030060
03FFE0
030060
03FFE0
030060
03FFE0
030060
100018
1FFFFC
181818
1FFFF8
181818
1FFFF8
01818C
7FFFFE
018180
030180
060180
1C0180
000000
ENDCHAR

STARTCHAR cns1_2935
ENCODING 10549
SWIDTH 960 0
DWIDTH 24 0
BBX 24 24 0 -2
BITMAP
000000
001C00
001800
00180C
7FFFFE
006300
01B69C
7FDCF0
1998D0
1998D0
1998D8
3718EC
601B86
070170
060060
07FFE0
060060
060060
07FFE0
060060
060060
0C0060
180060
000000
ENDCHAR

STARTCHAR cns1_2936
ENCODING 10550
SWIDTH 960 0
DWIDTH 24 0
BBX 24 24 0 -2
BITMAP
000000
000E00
038C60
030FF0
030C00
030C00
030C0C
7FFFFE
018300
39830E
31830C
33C78C
366CCC
3C786C
3FFFFC
31830C
31830C
31830C
31C78C
3366CC
362C6C
3FFFFC
30000C
000000
ENDCHAR

STARTCHAR cns1_2937
ENCODING 10551
SWIDTH 960 0
DWIDTH 24 0
BBX 24 24 0 -2
BITMAP
000000
038700
036618
3FF7FC
000600
18660C
0CC7FE
0CD60C
7FF80C
0007FC
20C60C
3FE600
30C630
30C7F8
3FC600
30C630
30C7F8
3FC600
30C632
30C7FA
30C602
37C706
3183FE
000000
ENDCHAR

STARTCHAR cns1_2938
ENCODING 10552
SWIDTH 960 0
DWIDTH 24 0
BBX 24 24 0 -2
BITMAP
000000
00CC00
01FE00
030C00
061800
1C3018
7FFFFC
0C3618
0FF7F8
003618
1F3600
033618
7FFFFC
033618
1F3778
0037D8
3F36F8
0337B8
03361A
7FFFFA
03301A
033806
3F1FFE
000000
ENDCHAR

STARTCHAR cns1_2939
ENCODING 10553
SWIDTH 960 0
DWIDTH 24 0
BBX 24 24 0 -2
BITMAP
000000
001800
003C00
006600
00C380
0380E0
06FF30
1C001E
700000
0FBEF8
0DB6D8
0DB6D8
0FBEF8
000000
100018
1FFFFC
18C318
18C318
1FFFF8
18C318
18C318
18C378
18C330
000000
ENDCHAR

STARTCHAR cns1_4221
ENCODING 16929
SWIDTH 960 0
DWIDTH 24 0
BBX 24 24 0 -2
BITMAP
000000
63CFB8
73CFB8
324910
324910
324910
324910
2A4910
2A4910
2A4910
2A4910
2A4910
264910
264910
264910
264910
264910
224910
224932
224976
224954
225154
6233FC
000000
ENDCHAR

STARTCHAR cns1_4222
ENCODING 16930
SWIDTH 960 0
DWIDTH 24 0
BBX 24 24 0 -2
BITMAP
000000
3F0700
2D1880
4CB040
0C6000
0C6004
0C601C
0C600C
0C602C
0C304C
0C1F8C
1E061E
000000
600006
463B32
494522
484522
4E4522
4345E2
414522
48C522
494522
663BF6
000000
ENDCHAR

STARTCHAR cns1_4223
ENCODING 16931
SWIDTH 960 0
DWIDTH 24 0
BBX 24 24 0 -2
BITMAP
000000
3F0700
2D1880
4CB040
0C6000
0C600C
0C6032
0C6012
0C6024
0C3048
0C1F92
1E061C
000000
600006
467F32
495522
4810C2
4E10C2
4110C2
4890C2
489122
473B32
600006
000000
ENDCHAR

STARTCHAR cns1_4224
ENCODING 16932
SWIDTH 960 0
DWIDTH 24 0
BBX 24 24 0 -2
BITMAP
000000
3F0780
2D1840
4CB040
0C6000
0C600C
0C6012
0C6006
0C202C
0C3042
0C1FB2
1E061C
000000
600006
4F7DB2
4912A2
4A10C2
4E10C2
4A10C2
481122
491122
4F3B32
600006
000000
ENDCHAR

STARTCHAR cns1_4225
ENCODING 16933
SWIDTH 960 0
DWIDTH 24 0
BBX 24 24 0 -2
BITMAP
000000
3F0700
2D1880
4CB040
0C6000
0C6004
0C600C
0C601C
0C6034
0C307E
0C1F84
1E060E
000000
600006
4F9872
44A4AA
444222
454222
474222
454222
444222
452C22
6F1076
000000
ENDCHAR

STARTCHAR cns1_4226
ENCODING 16934
SWIDTH 960 0
DWIDTH 24 0
BBX 24 24 0 -2
BITMAP
000000
3F0700
2D1880
4CB040
0C6000
0C601E
0C6010
0C601C
0C6032
0C3042
0C1F92
1E060C
000000
600006
4F6662
483492
49350A
4F3D0A
492D0A
482D2A
492492
4F646A
600006
000000
ENDCHAR

STARTCHAR cns1_4227
ENCODING 16935
SWIDTH 960 0
DWIDTH 24 0
BBX 24 24 0 -2
BITMAP
000000
3F0700
2D1880
4CA040
0C6000
0C600E
0C6010
0C6014
0C603A
0C3052
0C1F92
1E060C
000000
600006
421DB2
4622A2
4520E2
4540C2
4540A2
4F40A2
4922A2
599DB2
600006
000000
ENDCHAR

STARTCHAR cns1_4228
ENCODING 16936
SWIDTH 960 0
DWIDTH 24 0
BBX 24 24 0 -2
BITMAP
000000
7DFA10
448210
448210
448210
448210
448210
448210
448210
448210
488210
78A210
48E210
44A210
448210
428210
428210
428210
428210
428210
428210
448252
79FBDE
000000
ENDCHAR

STARTCHAR cns1_4229
ENCODING 16937
SWIDTH 960 0
DWIDTH 24 0
BBX 24 24 0 -2
BITMAP
000000
7FBF80
309880
305840
321900
32190C
3E1F12
321912
301812
301852
381C92
7C3F8C
000000
600006
47C3C2
422422
422402
43C382
426062
422012
426412
47C3E2
600006
000000
ENDCHAR

STARTCHAR cns1_422A
ENCODING 16938
SWIDTH 960 0
DWIDTH 24 0
BBX 24 24 0 -2
BITMAP
000000
7F3F80
311880
309840
321900
321904
3E1F1C
32190C
30180C
30184C
301C8C
7C3F9E
000000
6F77F6
442082
442082
442082
47E082
442082
442082
442082
4F71C2
600006
000000
ENDCHAR

STARTCHAR cns1_422B
ENCODING 16939
SWIDTH 960 0
DWIDTH 24 0
BBX 24 24 0 -2
BITMAP
000000
7FBF80
309880
305840
321900
32190C
3E1F12
321912
301804
301848
381C92
7C3F1C
000000
600006
4F07E2
440222
440242
4403C2
440242
440222
442202
466302
6FC786
000000
ENDCHAR

STARTCHAR cns1_422C
ENCODING 16940
SWIDTH 960 0
DWIDTH 24 0
BBX 24 24 0 -2
BITMAP
000000
7FBF80
309880
305840
321900
32190C
3E1F12
321906
30180C
301842
381CB2
7C3F1C
000000
600006
4E77F2
422082
422082
424082
414082
414082
418082
408082
600006
000000
ENDCHAR

STARTCHAR cns1_422D
ENCODING 16941
SWIDTH 960 0
DWIDTH 24 0
BBX 24 24 0 -2
BITMAP
000000
7FBF80
309880
305840
321900
321904
3E1F04
32190C
301814
30187E
381C84
7C3F0E
000000
600006
4FC7E2
442212
448242
4783C2
448242
440202
460302
4F0782
600006
000000
ENDCHAR

STARTCHAR cns1_422E
ENCODING 16942
SWIDTH 960 0
DWIDTH 24 0
BBX 24 24 0 -2
BITMAP
000000
7FBF80
309880
305840
321900
32191E
3E1F10
32191C
301812
301842
381C92
7C3F0C
000000
600006
43C7C2
446222
4C0222
480242
480382
4C0242
442242
43C732
600006
000000
ENDCHAR

STARTCHAR cns1_422F
ENCODING 16943
SWIDTH 960 0
DWIDTH 24 0
BBX 24 24 0 -2
BITMAP
000000
0E40C0
17C1B0
10C110
204208
204208
202608
20060C
300404
380404
1E0404
1F8404
07C404
01E404
006404
006404
00240C
20260C
202608
202208
304318
3CC110
2780E0
000000
ENDCHAR

STARTCHAR cns1_4230
ENCODING 16944
SWIDTH 960 0
DWIDTH 24 0
BBX 24 24 0 -2
BITMAP
000000
0743FC
0FC0F0
10E060
106060
303060
301060
300060
380060
1C0060
0F0060
078060
01C060
00E060
006060
003060
003060
103060
103060
102060
182060
1CC0F0
1383FC
000000
ENDCHAR

STARTCHAR cns1_4231
ENCODING 16945
SWIDTH 960 0
DWIDTH 24 0
BBX 24 24 0 -2
BITMAP
000000
3F0780
2D1880
4CA040
0C6000
0C601E
0C6012
0C6004
0C6024
0C3048
0C1F88
1E0608
000000
600006
4E31F2
491092
4890A2
4890A2
4890E2
489082
491292
4E3DF2
600006
000000
ENDCHAR

STARTCHAR cns1_4232
ENCODING 16946
SWIDTH 960 0
DWIDTH 24 0
BBX 24 24 0 -2
BITMAP
000000
780600
2C0B00
221100
221100
212080
212080
212000
212000
212000
212000
216000
216000
216000
216000
212004
21205C
21208C
21308C
22308C
22198C
261F0C
7C0E1E
000000
ENDCHAR

STARTCHAR cns1_4233
ENCODING 16947
SWIDTH 960 0
DWIDTH 24 0
BBX 24 24 0 -2
BITMAP
000000
780480
3C0B00
221100
221100
222080
212080
212000
212000
212000
216000
216000
216000
216000
216000
21601C
2120B2
2120A2
222084
223108
221108
241E12
7C0C3E
000000
ENDCHAR

STARTCHAR cns1_4234
ENCODING 16948
SWIDTH 960 0
DWIDTH 24 0
BBX 24 24 0 -2
BITMAP
000000
780480
3C0B00
221100
221100
222080
212080
212000
212000
212000
216000
216000
216000
216000
216000
21601C
212092
212082
22208C
223106
221102
241E32
7C0C1C
000000
ENDCHAR

STARTCHAR cns1_4235
ENCODING 16949
SWIDTH 960 0
DWIDTH 24 0
BBX 24 24 0 -2
BITMAP
000000
780480
3C0B00
221100
221100
222080
212080
212000
212000
212000
216000
216000
216000
216000
216000
216004
212084
21208C
22208C
223114
22113E
241E04
7C0C0E
000000
ENDCHAR

STARTCHAR cns1_4236
ENCODING 16950
SWIDTH 960 0
DWIDTH 24 0
BBX 24 24 0 -2
BITMAP
000000
3F0780
2D1880
4CA040
0C2000
0C600C
0C6012
0C6012
0C202E
0C3052
0C1F92
1E060C
000000
600006
4D99B2
4498A2
4698A2
46A8C2
45A8A2
45B4A2
45A4A2
4CEDB2
600006
000000
ENDCHAR

STARTCHAR cns1_4237
ENCODING 16951
SWIDTH 960 0
DWIDTH 24 0
BBX 24 24 0 -2
BITMAP
000000
3F0780
2D1880
4CA040
0C6000
0C600C
0C6012
0C6012
0C6036
0C3042
0C1F92
1E060C
000000
600006
466DB2
492992
482992
4E1952
411152
409132
489122
4D3112
660006
000000
ENDCHAR

STARTCHAR cns1_4238
ENCODING 16952
SWIDTH 960 0
DWIDTH 24 0
BBX 24 24 0 -2
BITMAP
000000
3F0600
2D1900
4CA080
0C6000
0C6024
0C606A
0C602A
0C606A
0C30AA
0C1F2A
1E0474
000000
600006
4F7FE2
495532
481112
4A1122
4E11C2
4A1122
489112
491112
6E3BE6
000000
ENDCHAR

STARTCHAR cns1_4239
ENCODING 16953
SWIDTH 960 0
DWIDTH 24 0
BBX 24 24 0 -2
BITMAP
000000
0A18C6
1639C6
2238C2
223842
413862
413862
403862
405862
405872
404852
404852
404852
40485A
40484A
407C4A
418C4A
41844E
418444
628444
228444
3C84C4
198EC2
000000
ENDCHAR

STARTCHAR cns1_423A
ENCODING 16954
SWIDTH 960 0
DWIDTH 24 0
BBX 24 24 0 -2
BITMAP
000000
7FDE1E
7ECE1E
104A18
104A18
104A28
102A28
100A28
108A28
110928
110928
110928
1F0928
110948
110948
110948
100948
1028C8
1028C8
104888
104888
18C88C
7FDC9E
000000
ENDCHAR

STARTCHAR cns1_423B
ENCODING 16955
SWIDTH 960 0
DWIDTH 24 0
BBX 24 24 0 -2
BITMAP
000000
1AE6F8
3FE6EC
464246
424242
424242
414242
404242
404242
604244
784244
3C4278
1E4244
064242
024242
034242
014242
414242
416242
412442
622442
722446
5C18FC
000000
ENDCHAR

STARTCHAR cns1_423C
ENCODING 16956
SWIDTH 960 0
DWIDTH 24 0
BBX 24 24 0 -2
BITMAP
000000
7E1A00
623E3C
224626
214242
214242
214140
204040
224080
246080
247880
243C80
3C1E80
240680
240380
2403C0
2201C2
20C1C2
214142
214142
236264
22723C
7E5C18
000000
ENDCHAR

STARTCHAR cns1_423D
ENCODING 16957
SWIDTH 960 0
DWIDTH 24 0
BBX 24 24 0 -2
BITMAP
000000
1E0E80
0C1180
0C2040
0C3000
0C1E04
0C0784
0C00CC
0C0054
0C207E
0C1884
1E070E
000000
600006
47E3C2
421462
424402
43C382
4240E2
420012
420412
4703E2
600006
000000
ENDCHAR

STARTCHAR cns1_423E
ENCODING 16958
SWIDTH 960 0
DWIDTH 24 0
BBX 24 24 0 -2
BITMAP
000000
1E0E80
0C1180
0C2040
0C3000
0C1E0C
0C0792
0C00C6
0C004C
0C2042
0C18B2
1E071C
000000
600006
43C3E2
466462
440402
440382
4400E2
446012
442412
43E3E2
600006
000000
ENDCHAR

STARTCHAR cns1_423F
ENCODING 16959
SWIDTH 960 0
DWIDTH 24 0
BBX 24 24 0 -2
BITMAP
000000
1E0E80
0C1180
0C2040
0C3000
0C1E0C
0C07B2
0C00D2
0C0044
0C2048
0C1892
1E071C
000000
600006
4FC3E2
446462
442402
444382
4780E2
448012
464412
4F73E2
600006
000000
ENDCHAR

STARTCHAR cns1_4240
ENCODING 16960
SWIDTH 960 0
DWIDTH 24 0
BBX 24 24 0 -2
BITMAP
000000
1E0E80
0C1180
0C2040
0C3000
0C1E04
0C079C
0C00CC
0C004C
0C204C
0C188C
1E071E
000000
600006
4E73E2
442462
442402
442382
4420E2
442012
442412
4343E2
608006
000000
ENDCHAR

STARTCHAR cns1_4241
ENCODING 16961
SWIDTH 960 0
DWIDTH 24 0
BBX 24 24 0 -2
BITMAP
000000
70FCE0
7C6E60
264240
224240
224140
214040
214040
214440
214840
214840
217840
217840
214840
214840
214440
214040
214040
214140
224142
224242
246646
79FEFC
000000
ENDCHAR

STARTCHAR cns1_4421
ENCODING 17441
SWIDTH 960 0
DWIDTH 24 0
BBX 24 24 0 -2
BITMAP
000000
000000
000000
000000
000000
000000
000000
000000
000000
000000
000008
00001C
7FFFFE
000000
000000
000000
000000
000000
000000
000000
000000
000000
000000
000000
ENDCHAR

STARTCHAR cns1_4422
ENCODING 17442
SWIDTH 960 0
DWIDTH 24 0
BBX 24 24 0 -2
BITMAP
000000
000000
000040
3FFFE0
0000F0
0001E0
000780
000E00
003800
006000
00C000
018000
030000
060000
0C0000
180004
180004
300004
380004
1C0006
0FFFFE
03FFFC
000000
000000
ENDCHAR

STARTCHAR cns1_4423
ENCODING 17443
SWIDTH 960 0
DWIDTH 24 0
BBX 24 24 0 -2
BITMAP
000000
000008
00001C
7FFFFE
001800
001800
001800
001800
001800
001800
001800
001800
001800
001800
001800
001800
001800
001800
001800
001800
001800
07F800
007000
000000
ENDCHAR

STARTCHAR cns1_4424
ENCODING 17444
SWIDTH 960 0
DWIDTH 24 0
BBX 24 24 0 -2
BITMAP
000000
00E000
00C000
00C000
00C000
00C000
00C000
00C00C
7FFFFE
00C000
00C000
00C000
00C000
00C000
00C000
00C000
00C000
00C000
00C000
00C000
00FFFC
007FF8
000000
000000
ENDCHAR

STARTCHAR cns1_4425
ENCODING 17445
SWIDTH 960 0
DWIDTH 24 0
BBX 24 24 0 -2
BITMAP
000000
000100
3FFF80
018180
018180
018300
018300
018304
0183FE
01860E
01860C
03000C
03000C
03000C
02000C
06000C
060018
0C0018
0C0018
180030
1800F0
300FE0
4001C0
000000
ENDCHAR

STARTCHAR cns1_4426
ENCODING 17446
SWIDTH 960 0
DWIDTH 24 0
BBX 24 24 0 -2
BITMAP
000000
00E000
00C000
00C000
00C000
00C000
00C080
7FFFC0
00C1C0
01C180
018180
018180
018180
030180
030180
030180
060184
060184
0C0184
0C0184
180186
3001FE
4000FC
000000
ENDCHAR

STARTCHAR cns1_4427
ENCODING 17447
SWIDTH 960 0
DWIDTH 24 0
BBX 24 24 0 -2
BITMAP
000000
000008
7FFFFC
00001E
00003C
000070
0000C0
000300
001C00
001800
001800
001800
001800
001800
001800
001800
001800
001800
001800
001800
001800
07F800
007000
000000
ENDCHAR

STARTCHAR cns1_4428
ENCODING 17448
SWIDTH 960 0
DWIDTH 24 0
BBX 24 24 0 -2
BITMAP
000000
000000
000000
000040
0000E0
1FFFF0
000000
000000
000000
000000
000000
000000
000000
000000
000000
000000
000008
00001C
7FFFFE
000000
000000
000000
000000
000000
ENDCHAR

STARTCHAR cns1_4429
ENCODING 17449
SWIDTH 960 0
DWIDTH 24 0
BBX 24 24 0 -2
BITMAP
000000
003800
003000
003000
003000
003000
003000
003000
003800
007800
006800
006800
00E400
00C400
00C600
018200
030300
030180
0600C0
0C0070
18003C
30001E
400004
000000
ENDCHAR

STARTCHAR cns1_442A
ENCODING 17450
SWIDTH 960 0
DWIDTH 24 0
BBX 24 24 0 -2
BITMAP
000000
038380
030300
030300
030300
030300
030300
030300
030300
030300
030300
030300
030300
030300
070300
060304
060304
060304
0C0304
0C0304
180306
3003FE
4001FC
000000
ENDCHAR

STARTCHAR cns1_442B
ENCODING 17451
SWIDTH 960 0
DWIDTH 24 0
BBX 24 24 0 -2
BITMAP
000000
00E000
006000
006000
003000
003000
003000
001800
001800
001800
001C00
002C00
006600
006600
00C300
00C300
018180
0180C0
0300C0
060070
0C0038
30001E
40000C
000000
ENDCHAR

STARTCHAR cns1_442C
ENCODING 17452
SWIDTH 960 0
DWIDTH 24 0
BBX 24 24 0 -2
BITMAP
000000
000000
000000
000E00
000600
018200
01C300
018300
018100
038100
030180
030180
030080
0600C0
0600C0
0C0060
0C0060
180030
180038
30001C
40000E
000004
000000
000000
ENDCHAR

STARTCHAR cns1_442D
ENCODING 17453
SWIDTH 960 0
DWIDTH 24 0
BBX 24 24 0 -2
BITMAP
000000
020080
03FFC0
0301C0
030180
030180
030180
030180
030180
030180
030180
030180
030180
030180
030180
060184
060184
060184
0C0184
0C0186
180186
3001FE
4000FC
000000
ENDCHAR

STARTCHAR cns1_442E
ENCODING 17454
SWIDTH 960 0
DWIDTH 24 0
BBX 24 24 0 -2
BITMAP
000000
000004
3FFFFE
00600E
00600C
00600C
00600C
00600C
00600C
00600C
00600C
00C00C
00C00C
00C00C
01800C
01800C
03000C
030018
060018
0C0038
180070
300FE0
4003C0
000000
ENDCHAR

STARTCHAR cns1_442F
ENCODING 17455
SWIDTH 960 0
DWIDTH 24 0
BBX 24 24 0 -2
BITMAP
000000
000004
3FFFFE
00000E
00000C
00000C
00000C
00040C
00080C
00300C
00600C
00C00C
03800C
07000C
0E000C
1C000C
08000C
000018
000018
000038
000070
000FE0
0003C0
000000
ENDCHAR

STARTCHAR cns1_4430
ENCODING 17456
SWIDTH 960 0
DWIDTH 24 0
BBX 24 24 0 -2
BITMAP
000000
003800
003000
003000
003000
003004
3FFFFE
00300E
00300C
00300C
00600C
00600C
00600C
00C00C
00C00C
01800C
01800C
03000C
030018
060018
0C0038
180FF0
6000E0
000000
ENDCHAR

STARTCHAR cns1_4431
ENCODING 17457
SWIDTH 960 0
DWIDTH 24 0
BBX 24 24 0 -2
BITMAP
000000
1C0000
180000
180180
1803C0
180700
180E00
181C00
183000
186000
198000
1E0000
180000
180000
180008
180008
180008
180008
180008
180008
18000C
1FFFFC
0FFFF8
000000
ENDCHAR

STARTCHAR cns1_4432
ENCODING 17458
SWIDTH 960 0
DWIDTH 24 0
BBX 24 24 0 -2
BITMAP
000000
001C00
001800
001800
001800
001800
001800
001800
001808
00181C
7FFFFE
001800
001800
001800
001800
001800
001800
001800
001800
001800
001800
001800
001800
000000
ENDCHAR

STARTCHAR cns1_4433
ENCODING 17459
SWIDTH 960 0
DWIDTH 24 0
BBX 24 24 0 -2
BITMAP
000000
00E000
00C000
00C000
00C000
00C000
00C000
00C000
00F000
00CE00
00C380
00C0E0
00C070
00C030
00C000
00C000
00C000
00C000
00C000
00C000
00C000
00C000
00C000
000000
ENDCHAR

STARTCHAR cns1_4434
ENCODING 17460
SWIDTH 960 0
DWIDTH 24 0
BBX 24 24 0 -2
BITMAP
000000
000060
3FFFF0
020070
020060
020060
0200C0
0100C0
010180
018180
008300
00C300
006200
003600
001C00
001C00
003600
006300
00C1C0
0180E0
030078
0C003E
70000C
000000
ENDCHAR

STARTCHAR cns1_4435
ENCODING 17461
SWIDTH 960 0
DWIDTH 24 0
BBX 24 24 0 -2
BITMAP
000000
000020
000070
1FFFF8
000000
000000
000000
000000
000000
000040
0000E0
0FFFF0
000000
000000
000000
000000
000000
000000
000008
00001C
7FFFFE
000000
000000
000000
ENDCHAR

STARTCHAR cns1_4436
ENCODING 17462
SWIDTH 960 0
DWIDTH 24 0
BBX 24 24 0 -2
BITMAP
000000
000008
00001C
7FFFFE
003000
003000
003000
003000
003C00
003300
0031C0
0030E0
003070
003038
003030
003000
003000
003000
003000
003000
003000
003000
003000
000000
ENDCHAR

STARTCHAR cns1_4437
ENCODING 17463
SWIDTH 960 0
DWIDTH 24 0
BBX 24 24 0 -2
BITMAP
000000
000E00
000C00
000C00
000C00
000C0C
7FFFFE
000C00
000C00
0C0C00
060C00
060C00
030C00
031800
019800
00F000
006000
00F000
00DC00
018700
0601E0
1C007E
70001C
000000
ENDCHAR

STARTCHAR cns1_4438
ENCODING 17464
SWIDTH 960 0
DWIDTH 24 0
BBX 24 24 0 -2
BITMAP
000000
003800
003000
003000
003000
003000
003000
003000
003000
003030
003FF8
003000
003000
003000
003000
003000
003000
003000
003000
003008
00301C
7FFFFE
000000
000000
ENDCHAR

STARTCHAR cns1_4439
ENCODING 17465
SWIDTH 960 0
DWIDTH 24 0
BBX 24 24 0 -2
BITMAP
000000
70000E
180018
0C0030
060060
0300C0
018180
00C300
006600
003C00
001800
001800
001800
001800
001800
001800
001800
001800
001800
001800
001800
001800
001800
000000
ENDCHAR

STARTCHAR cns1_443A
ENCODING 17466
SWIDTH 960 0
DWIDTH 24 0
BBX 24 24 0 -2
BITMAP
000000
038000
030000
030000
030000
030000
030080
7FFFC0
0301C0
030180
030180
030180
03C180
036180
033180
063980
061984
060184
0C0184
0C0186
180186
3001FE
4000FC
000000
ENDCHAR

STARTCHAR cns1_443B
ENCODING 17467
SWIDTH 960 0
DWIDTH 24 0
BBX 24 24 0 -2
BITMAP
000000
040080
07FFC0
0601C0
060180
060180
060180
060180
060180
068180
066180
063180
063980
061980
061980
0C0184
0C0184
0C0184
080184
180186
100186
3001FE
4000FC
000000
ENDCHAR

STARTCHAR cns1_443C
ENCODING 17468
SWIDTH 960 0
DWIDTH 24 0
BBX 24 24 0 -2
BITMAP
000000
01C000
018000
030080
03FFC0
0301C0
060180
060180
0C0300
0C0300
180600
300700
400D00
000900
001980
001080
0030C0
006040
00C060
018030
030038
0C001E
70000C
000000
ENDCHAR

STARTCHAR cns1_443D
ENCODING 17469
SWIDTH 960 0
DWIDTH 24 0
BBX 24 24 0 -2
BITMAP
000000
003000
003800
003000
006000
006000
00C000
018000
030000
060000
381800
001C00
001800
003000
003000
006080
004040
00C060
018030
0303F8
3FFE18
1F801C
00000C
000000
ENDCHAR

STARTCHAR cns1_443E
ENCODING 17470
SWIDTH 960 0
DWIDTH 24 0
BBX 24 24 0 -2
BITMAP
000000
001C00
001800
0E1800
0C1800
0C1800
0C1810
0C1FF8
0FF838
7C1830
0C1830
0C1860
0C1860
0C1840
0C1880
0C1800
0C1800
0C1804
0C0004
0C0004
0C0006
0FFFFE
07FFFC
000000
ENDCHAR

STARTCHAR cns1_443F
ENCODING 17471
SWIDTH 960 0
DWIDTH 24 0
BBX 24 24 0 -2
BITMAP
000000
060000
060000
060018
0FFFFC
0C0000
180000
180000
300180
47FF80
000E00
001C00
003800
007000
00E000
01C000
038000
070004
0C0004
1C0004
1C0006
0FFFFE
03FFFC
000000
ENDCHAR

STARTCHAR cns1_4440
ENCODING 17472
SWIDTH 960 0
DWIDTH 24 0
BBX 24 24 0 -2
BITMAP
000000
000030
1FFFF8
001800
001800
001800
001800
001800
001800
00180C
7FFFFE
001800
001800
001800
001800
001800
001800
001800
001800
001800
001800
07F800
00F000
000000
ENDCHAR

STARTCHAR cns1_4441
ENCODING 17473
SWIDTH 960 0
DWIDTH 24 0
BBX 24 24 0 -2
BITMAP
000000
002000
003000
001800
001C00
000C08
00081C
7FFFFE
0C0000
0C0000
0C0000
0C0000
0C0000
0C0000
0C0000
0C0000
0C0000
0C0000
0C0000
0C0000
0FFFFC
07FFF8
000000
000000
ENDCHAR

STARTCHAR cns1_4442
ENCODING 17474
SWIDTH 960 0
DWIDTH 24 0
BBX 24 24 0 -2
BITMAP
000000
000008
00001C
7FFFFE
018300
018300
018300
018300
018300
018300
018300
018300
018300
030300
030300
030304
060304
060304
0C0304
0C0306
180306
3003FE
4001FC
000000
ENDCHAR

STARTCHAR cns1_4443
ENCODING 17475
SWIDTH 960 0
DWIDTH 24 0
BBX 24 24 0 -2
BITMAP
000000
000004
3FFFFE
00300E
00300C
00300C
00300C
0C300C
03300C
01F00C
00F00C
00300C
00600C
00600C
00C00C
00C00C
018018
018018
030018
060038
0C0070
300FE0
4003C0
000000
ENDCHAR

STARTCHAR cns1_4444
ENCODING 17476
SWIDTH 960 0
DWIDTH 24 0
BBX 24 24 0 -2
BITMAP
000000
070000
060000
060000
0C0004
0FFFFE
0C000E
18000C
18000C
30000C
21000C
40C00C
00600C
00300C
00300C
00180C
00180C
000018
000018
000018
000030
0003F0
0001C0
000000
ENDCHAR

STARTCHAR cns1_4445
ENCODING 17477
SWIDTH 960 0
DWIDTH 24 0
BBX 24 24 0 -2
BITMAP
000000
000030
0003F8
007F80
1FF800
001800
001800
001800
001800
001808
00181C
7FFFFE
001800
001800
001800
001800
001800
001800
001800
001800
001800
001800
001800
000000
ENDCHAR

STARTCHAR cns1_4446
ENCODING 17478
SWIDTH 960 0
DWIDTH 24 0
BBX 24 24 0 -2
BITMAP
000000
000008
1FFFFC
00001C
020018
023030
021830
021860
010C60
018CC0
0080C0
00C180
006300
002300
003600
001C00
001C00
003600
006300
00C1C0
0180F0
06003E
38000C
000000
ENDCHAR

STARTCHAR cns1_4447
ENCODING 17479
SWIDTH 960 0
DWIDTH 24 0
BBX 24 24 0 -2
BITMAP
000000
000000
000000
000000
080008
0FFFFC
0C001C
0C0018
0C0018
0C0018
0C0018
0C0018
0C0018
0C0018
0C0018
0C0018
0C0018
0C0018
0C0018
0FFFF8
0C0018
0C0018
000000
000000
ENDCHAR

STARTCHAR cns1_4448
ENCODING 17480
SWIDTH 960 0
DWIDTH 24 0
BBX 24 24 0 -2
BITMAP
000000
001C00
001800
001800
001800
001800
001800
001800
001830
1FFFF8
001800
001800
001800
001800
001800
001800
001800
001800
001800
001808
00181C
7FFFFE
000000
000000
ENDCHAR

STARTCHAR cns1_4449
ENCODING 17481
SWIDTH 960 0
DWIDTH 24 0
BBX 24 24 0 -2
BITMAP
000000
001C00
001800
001800
001800
001800
001800
001808
00181C
7FFFFE
001800
001800
001800
001800
001800
001800
001800
001800
001800
001800
001830
1FFFF8
000000
000000
ENDCHAR

STARTCHAR cns1_444A
ENCODING 17482
SWIDTH 960 0
DWIDTH 24 0
BBX 24 24 0 -2
BITMAP
000000
00E000
00C000
01C004
01FFFE
01800E
03000C
03001C
070018
06C038
0C6030
183870
201C60
001CE0
0008C0
000180
000300
000600
000C00
003000
01C000
070000
380000
000000
ENDCHAR

STARTCHAR cns1_444B
ENCODING 17483
SWIDTH 960 0
DWIDTH 24 0
BBX 24 24 0 -2
BITMAP
000000
001C00
001800
001800
001800
001808
00181C
7FFFFE
001800
001800
003400
003400
003400
006200
006300
00C100
00C180
0180C0
0300E0
060070
0C0038
18001E
60000C
000000
ENDCHAR

STARTCHAR cns1_444C
ENCODING 17484
SWIDTH 960 0
DWIDTH 24 0
BBX 24 24 0 -2
BITMAP
000000
007000
006000
006000
00C080
00C0C0
0180CC
7FFFFE
0180C0
0300C0
0300C0
030180
060180
060300
1F8300
0C7600
001C00
001E00
003380
0060E0
01C070
070038
380018
000000
ENDCHAR

STARTCHAR cns1_444D
ENCODING 17485
SWIDTH 960 0
DWIDTH 24 0
BBX 24 24 0 -2
BITMAP
000000
000030
1FFFF8
000070
0000E0
0001C0
000700
001C00
001800
001808
00181C
7FFFFE
001800
001800
001800
001800
001800
001800
001800
001800
001800
01F800
007000
000000
ENDCHAR

STARTCHAR cns1_444E
ENCODING 17486
SWIDTH 960 0
DWIDTH 24 0
BBX 24 24 0 -2
BITMAP
000000
000010
3FFFF8
00003C
000070
0000C0
000180
000E00
000C00
000C06
000C38
000DC0
001F00
03FC00
7F8C00
380C00
000C00
000C00
000C00
000C00
000C00
01FC00
003800
000000
ENDCHAR

STARTCHAR cns1_444F
ENCODING 17487
SWIDTH 960 0
DWIDTH 24 0
BBX 24 24 0 -2
BITMAP
000000
000018
1FFFFC
000038
000070
0000E0
000380
003E00
101800
081800
061800
031800
019800
00D800
007800
001800
001F00
0019E0
00183E
00180C
001800
03F800
007000
000000
ENDCHAR

STARTCHAR cns1_4450
ENCODING 17488
SWIDTH 960 0
DWIDTH 24 0
BBX 24 24 0 -2
BITMAP
000000
0000E0
0000C0
0000C0
0000C0
0000C6
7FFFFE
0000C0
0000C0
0C00C0
0300C0
0180C0
01C0C0
00E0C0
00C0C0
0000C0
0000C0
0000C0
0000C0
0000C0
0000C0
003FC0
000780
000000
ENDCHAR

STARTCHAR cns1_4451
ENCODING 17489
SWIDTH 960 0
DWIDTH 24 0
BBX 24 24 0 -2
BITMAP
000000
001C00
001800
001800
001800
001800
001800
0618C0
061860
0C1830
0C1838
181818
18181C
30180C
30180E
601806
401806
001800
001800
001800
001800
07F800
007000
000000
ENDCHAR

STARTCHAR cns1_4452
ENCODING 17490
SWIDTH 960 0
DWIDTH 24 0
BBX 24 24 0 -2
BITMAP
000000
003800
003000
003000
003008
00301C
7FFFFE
003000
003000
003700
003600
003600
006600
006600
006600
00C600
00C600
018604
030604
060604
0C0606
3007FE
4003FC
000000
ENDCHAR

STARTCHAR cns1_4453
ENCODING 17491
SWIDTH 960 0
DWIDTH 24 0
BBX 24 24 0 -2
BITMAP
000000
040004
07FFFE
06000E
06000C
06000C
06000C
06000C
06000C
06000C
07FFFC
06000C
06000C
060000
060000
0C0000
0C0000
0C0000
180000
180000
300000
200000
400000
000000
ENDCHAR

STARTCHAR cns1_4454
ENCODING 17492
SWIDTH 960 0
DWIDTH 24 0
BBX 24 24 0 -2
BITMAP
000000
001C00
001800
001800
001800
001800
001800
38180E
30180C
30180C
30180C
30180C
30180C
30180C
30180C
30180C
30180C
30180C
30180C
30180C
3FFFFC
30000C
30000C
000000
ENDCHAR

STARTCHAR cns1_4455
ENCODING 17493
SWIDTH 960 0
DWIDTH 24 0
BBX 24 24 0 -2
BITMAP
000000
0E000E
0C0E0C
0C0C0C
0C0C0C
0C0C0C
0C0C0C
0C0C0C
0C0C0C
0C0C0C
0C0C0C
0C0C0C
0C0C0C
0C0C0C
180C0C
180C0C
180C0C
180C0C
300C0C
30000C
20000C
20000C
40000C
000000
ENDCHAR

STARTCHAR cns1_4456
ENCODING 17494
SWIDTH 960 0
DWIDTH 24 0
BBX 24 24 0 -2
BITMAP
000000
000000
000000
000018
3FFFFC
001800
001800
001800
001800
001800
001800
001800
001800
001800
001800
001800
001800
001800
001808
00181C
7FFFFE
000000
000000
000000
ENDCHAR

STARTCHAR cns1_4457
ENCODING 17495
SWIDTH 960 0
DWIDTH 24 0
BBX 24 24 0 -2
BITMAP
000000
000020
7FFFF0
000070
000060
000060
000060
000060
000060
200060
3FFFE0
300060
300000
300000
300000
300000
300004
300004
300004
300006
3FFFFE
1FFFFC
000000
000000
ENDCHAR

STARTCHAR cns1_4458
ENCODING 17496
SWIDTH 960 0
DWIDTH 24 0
BBX 24 24 0 -2
BITMAP
000000
000010
7FFFF8
000038
000030
000030
000030
380030
300030
300030
3FFFF0
300030
300030
300000
300000
300004
300004
300004
300006
300006
3FFFFE
1FFFFC
000000
000000
ENDCHAR

STARTCHAR cns1_4459
ENCODING 17497
SWIDTH 960 0
DWIDTH 24 0
BBX 24 24 0 -2
BITMAP
000000
200008
3FFFFC
30001C
300018
300018
300018
300018
300018
300018
3FFFF8
300018
300018
300000
300000
300004
300004
300004
300006
300006
3FFFFE
1FFFFC
000000
000000
ENDCHAR

STARTCHAR cns1_445A
ENCODING 17498
SWIDTH 960 0
DWIDTH 24 0
BBX 24 24 0 -2
BITMAP
000000
001C00
001800
001800
001800
101808
1FFFFC
18181C
181818
181818
181818
181818
181818
181818
181818
181818
181818
181818
1819F8
181870
001800
001800
001800
000000
ENDCHAR

STARTCHAR cns1_445B
ENCODING 17499
SWIDTH 960 0
DWIDTH 24 0
BBX 24 24 0 -2
BITMAP
000000
000030
1FFFF8
001800
001800
001800
001800
001800
001800
001808
00181C
7FFFFE
001800
001800
001800
001800
001800
001800
001800
001800
001800
001800
001800
000000
ENDCHAR

STARTCHAR cns1_445C
ENCODING 17500
SWIDTH 960 0
DWIDTH 24 0
BBX 24 24 0 -2
BITMAP
000000
01C1C0
018180
018180
018180
018180
018180
018180
01818C
7FFFFE
018180
018180
018180
018180
030180
030180
030180
060180
060180
0C0180
180180
300180
400180
000000
ENDCHAR

STARTCHAR cns1_445D
ENCODING 17501
SWIDTH 960 0
DWIDTH 24 0
BBX 24 24 0 -2
BITMAP
000000
003800
003180
0030C0
003060
003060
003000
00300C
7FFFFE
003000
003000
003000
001800
001800
000C00
000C04
000604
000704
000384
0001C4
0000F6
00003E
00000C
000000
ENDCHAR

STARTCHAR cns1_445E
ENCODING 17502
SWIDTH 960 0
DWIDTH 24 0
BBX 24 24 0 -2
BITMAP
000000
000010
3FFFF8
000030
000030
000030
100030
1FFFF0
180030
180000
300000
300000
300008
3FFFFC
30001C
300018
000018
000038
000030
000030
000060
001FE0
000380
000000
ENDCHAR

STARTCHAR cns1_445F
ENCODING 17503
SWIDTH 960 0
DWIDTH 24 0
BBX 24 24 0 -2
BITMAP
000000
000E00
000C00
000C00
000C00
000C0C
7FFFFE
000C00
001C00
003C00
007C00
006C00
00CC00
018C00
030C00
060C00
0C0C00
300C00
400C00
000C00
000C00
01FC00
007800
000000
ENDCHAR

STARTCHAR cns1_4460
ENCODING 17504
SWIDTH 960 0
DWIDTH 24 0
BBX 24 24 0 -2
BITMAP
000000
000020
1FFFF0
00C070
00C060
00C060
00C060
00C060
018060
018060
018064
7FFFFE
0180C0
0180C0
0180C0
0380C0
0300C0
0300C0
0300C0
0300C0
0300CC
7FFFFE
000000
000000
ENDCHAR

STARTCHAR cns1_4461
ENCODING 17505
SWIDTH 960 0
DWIDTH 24 0
BBX 24 24 0 -2
BITMAP
000000
00000C
7FFFFE
003000
003000
003000
383030
303FF8
303000
303000
303000
303004
3FFFFE
30000E
00000C
00000C
000018
000018
000018
000030
000070
007FE0
000780
000000
ENDCHAR

STARTCHAR cns1_4462
ENCODING 17506
SWIDTH 960 0
DWIDTH 24 0
BBX 24 24 0 -2
BITMAP
000000
00000C
7FFFFE
000700
000600
000E00
000C00
001C00
001800
003800
007B80
00D860
019830
031818
06181C
0C180C
30180E
401804
001800
001800
001800
001800
001800
000000
ENDCHAR

STARTCHAR cns1_4463
ENCODING 17507
SWIDTH 960 0
DWIDTH 24 0
BBX 24 24 0 -2
BITMAP
000000
001C00
001800
001800
001800
201804
3FFFFE
30180E
30180C
30180C
30180C
30180C
30180C
3FFFFC
30180C
30180C
001800
001800
001800
001800
001800
001800
001800
000000
ENDCHAR

STARTCHAR cns1_4464
ENCODING 17508
SWIDTH 960 0
DWIDTH 24 0
BBX 24 24 0 -2
BITMAP
000000
001C00
001800
0018F0
001F80
0FF800
001800
001800
001800
001830
1FFFF8
001800
001800
001800
001800
00180C
7FFFFE
001800
001800
001800
001800
001800
001800
000000
ENDCHAR

STARTCHAR cns1_4465
ENCODING 17509
SWIDTH 960 0
DWIDTH 24 0
BBX 24 24 0 -2
BITMAP
000000
040020
07FFF0
060070
060060
064060
063060
061860
061C60
060C60
060060
06006C
7FFFFE
060060
060060
060060
0C0060
0C0060
0C0060
180060
180060
3007E0
4000C0
000000
ENDCHAR

STARTCHAR cns1_4466
ENCODING 17510
SWIDTH 960 0
DWIDTH 24 0
BBX 24 24 0 -2
BITMAP
000000
006000
003800
001C00
000810
3FFFF8
00001C
000038
000038
000070
0000E0
0001C0
000380
000700
001C00
003800
08E000
1B8000
140000
330000
61C000
60FFFE
003FFC
000000
ENDCHAR

STARTCHAR cns1_4467
ENCODING 17511
SWIDTH 960 0
DWIDTH 24 0
BBX 24 24 0 -2
BITMAP
000000
000010
1FFFF8
003038
003030
003030
003030
003034
7FFFFE
003030
003030
003030
003030
003030
1FFFF0
006030
00C000
00C000
018000
030000
060000
0C0000
300000
000000
ENDCHAR

STARTCHAR cns1_4468
ENCODING 17512
SWIDTH 960 0
DWIDTH 24 0
BBX 24 24 0 -2
BITMAP
000000
000060
0FFFF0
0000E0
0001C0
008300
006400
003800
001C00
000C0C
7FFFFE
00181C
001818
001830
001860
001880
001800
001800
001800
001800
001800
03F800
007000
000000
ENDCHAR

STARTCHAR cns1_4469
ENCODING 17513
SWIDTH 960 0
DWIDTH 24 0
BBX 24 24 0 -2
BITMAP
000000
000030
1FFFF8
000000
000000
000000
000000
000000
00000C
7FFFFE
006000
006000
006000
00E000
00C100
00C0C0
018060
018030
030018
0201FC
021E0C
7FF00E
3C0006
000000
ENDCHAR

STARTCHAR cns1_446A
ENCODING 17514
SWIDTH 960 0
DWIDTH 24 0
BBX 24 24 0 -2
BITMAP
000000
01C1C0
018180
018180
018180
018188
3FFFFC
018180
018180
018180
018180
018180
01818C
7FFFFE
018180
018180
018180
030180
030180
060180
0C0180
180180
600180
000000
ENDCHAR

STARTCHAR cns1_446B
ENCODING 17515
SWIDTH 960 0
DWIDTH 24 0
BBX 24 24 0 -2
BITMAP
000000
000018
3FFFFC
00C000
00C000
00C000
00C000
00C020
01FFF0
018070
018060
018060
030060
030060
030060
03FFC0
0600C0
0000C0
000180
000180
00018C
7FFFFE
000000
000000
ENDCHAR

STARTCHAR cns1_446C
ENCODING 17516
SWIDTH 960 0
DWIDTH 24 0
BBX 24 24 0 -2
BITMAP
000000
000000
000000
000018
3FFFFC
001800
001800
001800
003000
003000
003040
0FFFE0
0060E0
0060C0
00C0C0
00C0C0
00C0C0
0180C0
0180C0
0180C0
0300CC
7FFFFE
000000
000000
ENDCHAR

STARTCHAR cns1_446D
ENCODING 17517
SWIDTH 960 0
DWIDTH 24 0
BBX 24 24 0 -2
BITMAP
000000
004000
003000
003800
00180C
7FFFFE
000000
000000
020080
03FFC0
0301C0
030180
030180
030180
030180
060184
060184
060184
0C0184
0C0184
180186
3001FE
4000FC
000000
ENDCHAR

STARTCHAR cns1_446E
ENCODING 17518
SWIDTH 960 0
DWIDTH 24 0
BBX 24 24 0 -2
BITMAP
000000
018000
018000
030000
030018
033FFC
060000
060000
0C0000
0C0000
1E0000
360000
260000
460000
060000
060000
060000
060000
060008
06001C
067FFE
060000
060000
000000
ENDCHAR

STARTCHAR cns1_446F
ENCODING 17519
SWIDTH 960 0
DWIDTH 24 0
BBX 24 24 0 -2
BITMAP
000000
0301C0
030180
060180
060180
060180
0C0180
0C018C
0C7FFE
1E0180
1E0180
360180
260180
660180
460180
060180
060180
060180
060180
060180
060180
060180
060180
000000
ENDCHAR

STARTCHAR cns1_4470
ENCODING 17520
SWIDTH 960 0
DWIDTH 24 0
BBX 24 24 0 -2
BITMAP
000000
070000
06000C
067FFE
0C0180
0C0180
0C0180
180180
180180
380180
3C0180
2C0180
6C0180
4C0180
0C0180
0C0180
0C0180
0C0180
0C0180
0C0180
0C0180
0C1F80
0C0700
000000
ENDCHAR

STARTCHAR cns1_4471
ENCODING 17521
SWIDTH 960 0
DWIDTH 24 0
BBX 24 24 0 -2
BITMAP
000000
01C1C0
018180
038180
030180
030180
070180
060180
0E0180
0E01C0
1B01B0
330198
23018C
63018E
430186
030186
030180
030180
030180
030180
030180
030180
030180
000000
ENDCHAR

STARTCHAR cns1_4472
ENCODING 17522
SWIDTH 960 0
DWIDTH 24 0
BBX 24 24 0 -2
BITMAP
000000
071C00
061800
061800
061800
0C1820
0C1FF0
18F870
181860
181860
381860
2C1860
6C1860
4C1860
0C3060
0C3060
0C3064
0C2064
0C6064
0C4066
0CC066
0C807E
0D003C
000000
ENDCHAR

STARTCHAR cns1_4473
ENCODING 17523
SWIDTH 960 0
DWIDTH 24 0
BBX 24 24 0 -2
BITMAP
000000
030020
037FF0
060C70
060C60
060C60
0C0C60
0C0CC0
0C0CC4
180CFE
180CCE
3818CC
2C180C
4C180C
4C180C
0C180C
0C300C
0C300C
0C200C
0C600C
0C4018
0C81F8
0C0070
000000
ENDCHAR

STARTCHAR cns1_4474
ENCODING 17524
SWIDTH 960 0
DWIDTH 24 0
BBX 24 24 0 -2
BITMAP
000000
001800
003800
003400
006200
00C300
018180
0300E0
060078
0C031E
33FF8C
400000
000000
000040
0FFFE0
0000E0
0000C0
000180
000180
000180
000300
000300
000600
000000
ENDCHAR

STARTCHAR cns1_4475
ENCODING 17525
SWIDTH 960 0
DWIDTH 24 0
BBX 24 24 0 -2
BITMAP
000000
001800
003800
007400
006200
00C300
018180
0300C0
060060
0C0038
31C19E
41818C
018180
018180
018180
018180
030180
030180
060180
060180
0C0180
180180
200180
000000
ENDCHAR

STARTCHAR cns1_4476
ENCODING 17526
SWIDTH 960 0
DWIDTH 24 0
BBX 24 24 0 -2
BITMAP
000000
10000C
1FFFFE
180000
180000
180E00
180C00
180C00
180C00
180C00
180C00
180C00
180C00
181A00
181A00
183300
303100
306180
3060C0
30C060
218038
26001E
48000C
000000
ENDCHAR

ENDFONT
